mtllib Holybro_MS5525DSO_Module.mtl
# Approximate Holybro MS5525DSO module, units mm
o PCB
usemtl pcb
v -11.000000 -10.000000 0.000000
v -11.000000 -10.000000 1.600000
v -11.000000 10.000000 0.000000
v -11.000000 10.000000 1.600000
v 11.000000 -10.000000 0.000000
v 11.000000 -10.000000 1.600000
v 11.000000 10.000000 0.000000
v 11.000000 10.000000 1.600000
f 1 2 4
f 1 4 3
f 5 7 8
f 5 8 6
f 1 5 6
f 1 6 2
f 3 4 8
f 3 8 7
f 1 3 7
f 1 7 5
f 2 6 8
f 2 8 4
o MS5525DSO_Sensor
usemtl sensor
v -5.100000 -3.600000 1.600000
v -5.100000 -3.600000 6.400000
v -5.100000 5.600000 1.600000
v -5.100000 5.600000 6.400000
v 5.100000 -3.600000 1.600000
v 5.100000 -3.600000 6.400000
v 5.100000 5.600000 1.600000
v 5.100000 5.600000 6.400000
f 9 10 12
f 9 12 11
f 13 15 16
f 13 16 14
f 9 13 14
f 9 14 10
f 11 12 16
f 11 16 15
f 9 11 15
f 9 15 13
f 10 14 16
f 10 16 12
o Pressure_Port_Dynamic
usemtl port
v -1.050000 1.000000 5.400000
v -1.086355 1.322655 5.400000
v -1.193595 1.629131 5.400000
v -1.366344 1.904060 5.400000
v -1.595940 2.133656 5.400000
v -1.870869 2.306405 5.400000
v -2.177345 2.413645 5.400000
v -2.500000 2.450000 5.400000
v -2.822655 2.413645 5.400000
v -3.129131 2.306405 5.400000
v -3.404060 2.133656 5.400000
v -3.633656 1.904060 5.400000
v -3.806405 1.629131 5.400000
v -3.913645 1.322655 5.400000
v -3.950000 1.000000 5.400000
v -3.913645 0.677345 5.400000
v -3.806405 0.370869 5.400000
v -3.633656 0.095940 5.400000
v -3.404060 -0.133656 5.400000
v -3.129131 -0.306405 5.400000
v -2.822655 -0.413645 5.400000
v -2.500000 -0.450000 5.400000
v -2.177345 -0.413645 5.400000
v -1.870869 -0.306405 5.400000
v -1.595940 -0.133656 5.400000
v -1.366344 0.095940 5.400000
v -1.193595 0.370869 5.400000
v -1.086355 0.677345 5.400000
v -1.050000 1.000000 10.600000
v -1.086355 1.322655 10.600000
v -1.193595 1.629131 10.600000
v -1.366344 1.904060 10.600000
v -1.595940 2.133656 10.600000
v -1.870869 2.306405 10.600000
v -2.177345 2.413645 10.600000
v -2.500000 2.450000 10.600000
v -2.822655 2.413645 10.600000
v -3.129131 2.306405 10.600000
v -3.404060 2.133656 10.600000
v -3.633656 1.904060 10.600000
v -3.806405 1.629131 10.600000
v -3.913645 1.322655 10.600000
v -3.950000 1.000000 10.600000
v -3.913645 0.677345 10.600000
v -3.806405 0.370869 10.600000
v -3.633656 0.095940 10.600000
v -3.404060 -0.133656 10.600000
v -3.129131 -0.306405 10.600000
v -2.822655 -0.413645 10.600000
v -2.500000 -0.450000 10.600000
v -2.177345 -0.413645 10.600000
v -1.870869 -0.306405 10.600000
v -1.595940 -0.133656 10.600000
v -1.366344 0.095940 10.600000
v -1.193595 0.370869 10.600000
v -1.086355 0.677345 10.600000
v -2.500000 1.000000 5.400000
v -2.500000 1.000000 10.600000
f 17 18 46
f 17 46 45
f 73 17 18
f 74 46 45
f 18 19 47
f 18 47 46
f 73 18 19
f 74 47 46
f 19 20 48
f 19 48 47
f 73 19 20
f 74 48 47
f 20 21 49
f 20 49 48
f 73 20 21
f 74 49 48
f 21 22 50
f 21 50 49
f 73 21 22
f 74 50 49
f 22 23 51
f 22 51 50
f 73 22 23
f 74 51 50
f 23 24 52
f 23 52 51
f 73 23 24
f 74 52 51
f 24 25 53
f 24 53 52
f 73 24 25
f 74 53 52
f 25 26 54
f 25 54 53
f 73 25 26
f 74 54 53
f 26 27 55
f 26 55 54
f 73 26 27
f 74 55 54
f 27 28 56
f 27 56 55
f 73 27 28
f 74 56 55
f 28 29 57
f 28 57 56
f 73 28 29
f 74 57 56
f 29 30 58
f 29 58 57
f 73 29 30
f 74 58 57
f 30 31 59
f 30 59 58
f 73 30 31
f 74 59 58
f 31 32 60
f 31 60 59
f 73 31 32
f 74 60 59
f 32 33 61
f 32 61 60
f 73 32 33
f 74 61 60
f 33 34 62
f 33 62 61
f 73 33 34
f 74 62 61
f 34 35 63
f 34 63 62
f 73 34 35
f 74 63 62
f 35 36 64
f 35 64 63
f 73 35 36
f 74 64 63
f 36 37 65
f 36 65 64
f 73 36 37
f 74 65 64
f 37 38 66
f 37 66 65
f 73 37 38
f 74 66 65
f 38 39 67
f 38 67 66
f 73 38 39
f 74 67 66
f 39 40 68
f 39 68 67
f 73 39 40
f 74 68 67
f 40 41 69
f 40 69 68
f 73 40 41
f 74 69 68
f 41 42 70
f 41 70 69
f 73 41 42
f 74 70 69
f 42 43 71
f 42 71 70
f 73 42 43
f 74 71 70
f 43 44 72
f 43 72 71
f 73 43 44
f 74 72 71
f 44 17 45
f 44 45 72
f 73 44 17
f 74 45 72
o Pressure_Port_Static
usemtl port
v 3.950000 1.000000 5.400000
v 3.913645 1.322655 5.400000
v 3.806405 1.629131 5.400000
v 3.633656 1.904060 5.400000
v 3.404060 2.133656 5.400000
v 3.129131 2.306405 5.400000
v 2.822655 2.413645 5.400000
v 2.500000 2.450000 5.400000
v 2.177345 2.413645 5.400000
v 1.870869 2.306405 5.400000
v 1.595940 2.133656 5.400000
v 1.366344 1.904060 5.400000
v 1.193595 1.629131 5.400000
v 1.086355 1.322655 5.400000
v 1.050000 1.000000 5.400000
v 1.086355 0.677345 5.400000
v 1.193595 0.370869 5.400000
v 1.366344 0.095940 5.400000
v 1.595940 -0.133656 5.400000
v 1.870869 -0.306405 5.400000
v 2.177345 -0.413645 5.400000
v 2.500000 -0.450000 5.400000
v 2.822655 -0.413645 5.400000
v 3.129131 -0.306405 5.400000
v 3.404060 -0.133656 5.400000
v 3.633656 0.095940 5.400000
v 3.806405 0.370869 5.400000
v 3.913645 0.677345 5.400000
v 3.950000 1.000000 10.600000
v 3.913645 1.322655 10.600000
v 3.806405 1.629131 10.600000
v 3.633656 1.904060 10.600000
v 3.404060 2.133656 10.600000
v 3.129131 2.306405 10.600000
v 2.822655 2.413645 10.600000
v 2.500000 2.450000 10.600000
v 2.177345 2.413645 10.600000
v 1.870869 2.306405 10.600000
v 1.595940 2.133656 10.600000
v 1.366344 1.904060 10.600000
v 1.193595 1.629131 10.600000
v 1.086355 1.322655 10.600000
v 1.050000 1.000000 10.600000
v 1.086355 0.677345 10.600000
v 1.193595 0.370869 10.600000
v 1.366344 0.095940 10.600000
v 1.595940 -0.133656 10.600000
v 1.870869 -0.306405 10.600000
v 2.177345 -0.413645 10.600000
v 2.500000 -0.450000 10.600000
v 2.822655 -0.413645 10.600000
v 3.129131 -0.306405 10.600000
v 3.404060 -0.133656 10.600000
v 3.633656 0.095940 10.600000
v 3.806405 0.370869 10.600000
v 3.913645 0.677345 10.600000
v 2.500000 1.000000 5.400000
v 2.500000 1.000000 10.600000
f 75 76 104
f 75 104 103
f 131 75 76
f 132 104 103
f 76 77 105
f 76 105 104
f 131 76 77
f 132 105 104
f 77 78 106
f 77 106 105
f 131 77 78
f 132 106 105
f 78 79 107
f 78 107 106
f 131 78 79
f 132 107 106
f 79 80 108
f 79 108 107
f 131 79 80
f 132 108 107
f 80 81 109
f 80 109 108
f 131 80 81
f 132 109 108
f 81 82 110
f 81 110 109
f 131 81 82
f 132 110 109
f 82 83 111
f 82 111 110
f 131 82 83
f 132 111 110
f 83 84 112
f 83 112 111
f 131 83 84
f 132 112 111
f 84 85 113
f 84 113 112
f 131 84 85
f 132 113 112
f 85 86 114
f 85 114 113
f 131 85 86
f 132 114 113
f 86 87 115
f 86 115 114
f 131 86 87
f 132 115 114
f 87 88 116
f 87 116 115
f 131 87 88
f 132 116 115
f 88 89 117
f 88 117 116
f 131 88 89
f 132 117 116
f 89 90 118
f 89 118 117
f 131 89 90
f 132 118 117
f 90 91 119
f 90 119 118
f 131 90 91
f 132 119 118
f 91 92 120
f 91 120 119
f 131 91 92
f 132 120 119
f 92 93 121
f 92 121 120
f 131 92 93
f 132 121 120
f 93 94 122
f 93 122 121
f 131 93 94
f 132 122 121
f 94 95 123
f 94 123 122
f 131 94 95
f 132 123 122
f 95 96 124
f 95 124 123
f 131 95 96
f 132 124 123
f 96 97 125
f 96 125 124
f 131 96 97
f 132 125 124
f 97 98 126
f 97 126 125
f 131 97 98
f 132 126 125
f 98 99 127
f 98 127 126
f 131 98 99
f 132 127 126
f 99 100 128
f 99 128 127
f 131 99 100
f 132 128 127
f 100 101 129
f 100 129 128
f 131 100 101
f 132 129 128
f 101 102 130
f 101 130 129
f 131 101 102
f 132 130 129
f 102 75 103
f 102 103 130
f 131 102 75
f 132 103 130
o GH4_Connector
usemtl connector
v -4.100000 -9.700000 0.800000
v -4.100000 -9.700000 5.200000
v -4.100000 -4.700000 0.800000
v -4.100000 -4.700000 5.200000
v 4.100000 -9.700000 0.800000
v 4.100000 -9.700000 5.200000
v 4.100000 -4.700000 0.800000
v 4.100000 -4.700000 5.200000
f 133 134 136
f 133 136 135
f 137 139 140
f 137 140 138
f 133 137 138
f 133 138 134
f 135 136 140
f 135 140 139
f 133 135 139
f 133 139 137
f 134 138 140
f 134 140 136
o Connector_Pin_1
usemtl metal
v -2.475000 -10.050000 2.775000
v -2.475000 -10.050000 3.225000
v -2.475000 -8.550000 2.775000
v -2.475000 -8.550000 3.225000
v -2.025000 -10.050000 2.775000
v -2.025000 -10.050000 3.225000
v -2.025000 -8.550000 2.775000
v -2.025000 -8.550000 3.225000
f 141 142 144
f 141 144 143
f 145 147 148
f 145 148 146
f 141 145 146
f 141 146 142
f 143 144 148
f 143 148 147
f 141 143 147
f 141 147 145
f 142 146 148
f 142 148 144
o Connector_Pin_2
usemtl metal
v -0.975000 -10.050000 2.775000
v -0.975000 -10.050000 3.225000
v -0.975000 -8.550000 2.775000
v -0.975000 -8.550000 3.225000
v -0.525000 -10.050000 2.775000
v -0.525000 -10.050000 3.225000
v -0.525000 -8.550000 2.775000
v -0.525000 -8.550000 3.225000
f 149 150 152
f 149 152 151
f 153 155 156
f 153 156 154
f 149 153 154
f 149 154 150
f 151 152 156
f 151 156 155
f 149 151 155
f 149 155 153
f 150 154 156
f 150 156 152
o Connector_Pin_3
usemtl metal
v 0.525000 -10.050000 2.775000
v 0.525000 -10.050000 3.225000
v 0.525000 -8.550000 2.775000
v 0.525000 -8.550000 3.225000
v 0.975000 -10.050000 2.775000
v 0.975000 -10.050000 3.225000
v 0.975000 -8.550000 2.775000
v 0.975000 -8.550000 3.225000
f 157 158 160
f 157 160 159
f 161 163 164
f 161 164 162
f 157 161 162
f 157 162 158
f 159 160 164
f 159 164 163
f 157 159 163
f 157 163 161
f 158 162 164
f 158 164 160
o Connector_Pin_4
usemtl metal
v 2.025000 -10.050000 2.775000
v 2.025000 -10.050000 3.225000
v 2.025000 -8.550000 2.775000
v 2.025000 -8.550000 3.225000
v 2.475000 -10.050000 2.775000
v 2.475000 -10.050000 3.225000
v 2.475000 -8.550000 2.775000
v 2.475000 -8.550000 3.225000
f 165 166 168
f 165 168 167
f 169 171 172
f 169 172 170
f 165 169 170
f 165 170 166
f 167 168 172
f 167 172 171
f 165 167 171
f 165 171 169
f 166 170 172
f 166 172 168
o Mounting_Hole_1
usemtl hole
v -6.700000 -7.000000 -0.150000
v -6.730744 -6.687855 -0.150000
v -6.821793 -6.387707 -0.150000
v -6.969649 -6.111088 -0.150000
v -7.168629 -5.868629 -0.150000
v -7.411088 -5.669649 -0.150000
v -7.687707 -5.521793 -0.150000
v -7.987855 -5.430744 -0.150000
v -8.300000 -5.400000 -0.150000
v -8.612145 -5.430744 -0.150000
v -8.912293 -5.521793 -0.150000
v -9.188912 -5.669649 -0.150000
v -9.431371 -5.868629 -0.150000
v -9.630351 -6.111088 -0.150000
v -9.778207 -6.387707 -0.150000
v -9.869256 -6.687855 -0.150000
v -9.900000 -7.000000 -0.150000
v -9.869256 -7.312145 -0.150000
v -9.778207 -7.612293 -0.150000
v -9.630351 -7.888912 -0.150000
v -9.431371 -8.131371 -0.150000
v -9.188912 -8.330351 -0.150000
v -8.912293 -8.478207 -0.150000
v -8.612145 -8.569256 -0.150000
v -8.300000 -8.600000 -0.150000
v -7.987855 -8.569256 -0.150000
v -7.687707 -8.478207 -0.150000
v -7.411088 -8.330351 -0.150000
v -7.168629 -8.131371 -0.150000
v -6.969649 -7.888912 -0.150000
v -6.821793 -7.612293 -0.150000
v -6.730744 -7.312145 -0.150000
v -6.700000 -7.000000 1.750000
v -6.730744 -6.687855 1.750000
v -6.821793 -6.387707 1.750000
v -6.969649 -6.111088 1.750000
v -7.168629 -5.868629 1.750000
v -7.411088 -5.669649 1.750000
v -7.687707 -5.521793 1.750000
v -7.987855 -5.430744 1.750000
v -8.300000 -5.400000 1.750000
v -8.612145 -5.430744 1.750000
v -8.912293 -5.521793 1.750000
v -9.188912 -5.669649 1.750000
v -9.431371 -5.868629 1.750000
v -9.630351 -6.111088 1.750000
v -9.778207 -6.387707 1.750000
v -9.869256 -6.687855 1.750000
v -9.900000 -7.000000 1.750000
v -9.869256 -7.312145 1.750000
v -9.778207 -7.612293 1.750000
v -9.630351 -7.888912 1.750000
v -9.431371 -8.131371 1.750000
v -9.188912 -8.330351 1.750000
v -8.912293 -8.478207 1.750000
v -8.612145 -8.569256 1.750000
v -8.300000 -8.600000 1.750000
v -7.987855 -8.569256 1.750000
v -7.687707 -8.478207 1.750000
v -7.411088 -8.330351 1.750000
v -7.168629 -8.131371 1.750000
v -6.969649 -7.888912 1.750000
v -6.821793 -7.612293 1.750000
v -6.730744 -7.312145 1.750000
v -8.300000 -7.000000 -0.150000
v -8.300000 -7.000000 1.750000
f 173 174 206
f 173 206 205
f 237 173 174
f 238 206 205
f 174 175 207
f 174 207 206
f 237 174 175
f 238 207 206
f 175 176 208
f 175 208 207
f 237 175 176
f 238 208 207
f 176 177 209
f 176 209 208
f 237 176 177
f 238 209 208
f 177 178 210
f 177 210 209
f 237 177 178
f 238 210 209
f 178 179 211
f 178 211 210
f 237 178 179
f 238 211 210
f 179 180 212
f 179 212 211
f 237 179 180
f 238 212 211
f 180 181 213
f 180 213 212
f 237 180 181
f 238 213 212
f 181 182 214
f 181 214 213
f 237 181 182
f 238 214 213
f 182 183 215
f 182 215 214
f 237 182 183
f 238 215 214
f 183 184 216
f 183 216 215
f 237 183 184
f 238 216 215
f 184 185 217
f 184 217 216
f 237 184 185
f 238 217 216
f 185 186 218
f 185 218 217
f 237 185 186
f 238 218 217
f 186 187 219
f 186 219 218
f 237 186 187
f 238 219 218
f 187 188 220
f 187 220 219
f 237 187 188
f 238 220 219
f 188 189 221
f 188 221 220
f 237 188 189
f 238 221 220
f 189 190 222
f 189 222 221
f 237 189 190
f 238 222 221
f 190 191 223
f 190 223 222
f 237 190 191
f 238 223 222
f 191 192 224
f 191 224 223
f 237 191 192
f 238 224 223
f 192 193 225
f 192 225 224
f 237 192 193
f 238 225 224
f 193 194 226
f 193 226 225
f 237 193 194
f 238 226 225
f 194 195 227
f 194 227 226
f 237 194 195
f 238 227 226
f 195 196 228
f 195 228 227
f 237 195 196
f 238 228 227
f 196 197 229
f 196 229 228
f 237 196 197
f 238 229 228
f 197 198 230
f 197 230 229
f 237 197 198
f 238 230 229
f 198 199 231
f 198 231 230
f 237 198 199
f 238 231 230
f 199 200 232
f 199 232 231
f 237 199 200
f 238 232 231
f 200 201 233
f 200 233 232
f 237 200 201
f 238 233 232
f 201 202 234
f 201 234 233
f 237 201 202
f 238 234 233
f 202 203 235
f 202 235 234
f 237 202 203
f 238 235 234
f 203 204 236
f 203 236 235
f 237 203 204
f 238 236 235
f 204 173 205
f 204 205 236
f 237 204 173
f 238 205 236
o Mounting_Hole_2
usemtl hole
v 9.900000 7.000000 -0.150000
v 9.869256 7.312145 -0.150000
v 9.778207 7.612293 -0.150000
v 9.630351 7.888912 -0.150000
v 9.431371 8.131371 -0.150000
v 9.188912 8.330351 -0.150000
v 8.912293 8.478207 -0.150000
v 8.612145 8.569256 -0.150000
v 8.300000 8.600000 -0.150000
v 7.987855 8.569256 -0.150000
v 7.687707 8.478207 -0.150000
v 7.411088 8.330351 -0.150000
v 7.168629 8.131371 -0.150000
v 6.969649 7.888912 -0.150000
v 6.821793 7.612293 -0.150000
v 6.730744 7.312145 -0.150000
v 6.700000 7.000000 -0.150000
v 6.730744 6.687855 -0.150000
v 6.821793 6.387707 -0.150000
v 6.969649 6.111088 -0.150000
v 7.168629 5.868629 -0.150000
v 7.411088 5.669649 -0.150000
v 7.687707 5.521793 -0.150000
v 7.987855 5.430744 -0.150000
v 8.300000 5.400000 -0.150000
v 8.612145 5.430744 -0.150000
v 8.912293 5.521793 -0.150000
v 9.188912 5.669649 -0.150000
v 9.431371 5.868629 -0.150000
v 9.630351 6.111088 -0.150000
v 9.778207 6.387707 -0.150000
v 9.869256 6.687855 -0.150000
v 9.900000 7.000000 1.750000
v 9.869256 7.312145 1.750000
v 9.778207 7.612293 1.750000
v 9.630351 7.888912 1.750000
v 9.431371 8.131371 1.750000
v 9.188912 8.330351 1.750000
v 8.912293 8.478207 1.750000
v 8.612145 8.569256 1.750000
v 8.300000 8.600000 1.750000
v 7.987855 8.569256 1.750000
v 7.687707 8.478207 1.750000
v 7.411088 8.330351 1.750000
v 7.168629 8.131371 1.750000
v 6.969649 7.888912 1.750000
v 6.821793 7.612293 1.750000
v 6.730744 7.312145 1.750000
v 6.700000 7.000000 1.750000
v 6.730744 6.687855 1.750000
v 6.821793 6.387707 1.750000
v 6.969649 6.111088 1.750000
v 7.168629 5.868629 1.750000
v 7.411088 5.669649 1.750000
v 7.687707 5.521793 1.750000
v 7.987855 5.430744 1.750000
v 8.300000 5.400000 1.750000
v 8.612145 5.430744 1.750000
v 8.912293 5.521793 1.750000
v 9.188912 5.669649 1.750000
v 9.431371 5.868629 1.750000
v 9.630351 6.111088 1.750000
v 9.778207 6.387707 1.750000
v 9.869256 6.687855 1.750000
v 8.300000 7.000000 -0.150000
v 8.300000 7.000000 1.750000
f 239 240 272
f 239 272 271
f 303 239 240
f 304 272 271
f 240 241 273
f 240 273 272
f 303 240 241
f 304 273 272
f 241 242 274
f 241 274 273
f 303 241 242
f 304 274 273
f 242 243 275
f 242 275 274
f 303 242 243
f 304 275 274
f 243 244 276
f 243 276 275
f 303 243 244
f 304 276 275
f 244 245 277
f 244 277 276
f 303 244 245
f 304 277 276
f 245 246 278
f 245 278 277
f 303 245 246
f 304 278 277
f 246 247 279
f 246 279 278
f 303 246 247
f 304 279 278
f 247 248 280
f 247 280 279
f 303 247 248
f 304 280 279
f 248 249 281
f 248 281 280
f 303 248 249
f 304 281 280
f 249 250 282
f 249 282 281
f 303 249 250
f 304 282 281
f 250 251 283
f 250 283 282
f 303 250 251
f 304 283 282
f 251 252 284
f 251 284 283
f 303 251 252
f 304 284 283
f 252 253 285
f 252 285 284
f 303 252 253
f 304 285 284
f 253 254 286
f 253 286 285
f 303 253 254
f 304 286 285
f 254 255 287
f 254 287 286
f 303 254 255
f 304 287 286
f 255 256 288
f 255 288 287
f 303 255 256
f 304 288 287
f 256 257 289
f 256 289 288
f 303 256 257
f 304 289 288
f 257 258 290
f 257 290 289
f 303 257 258
f 304 290 289
f 258 259 291
f 258 291 290
f 303 258 259
f 304 291 290
f 259 260 292
f 259 292 291
f 303 259 260
f 304 292 291
f 260 261 293
f 260 293 292
f 303 260 261
f 304 293 292
f 261 262 294
f 261 294 293
f 303 261 262
f 304 294 293
f 262 263 295
f 262 295 294
f 303 262 263
f 304 295 294
f 263 264 296
f 263 296 295
f 303 263 264
f 304 296 295
f 264 265 297
f 264 297 296
f 303 264 265
f 304 297 296
f 265 266 298
f 265 298 297
f 303 265 266
f 304 298 297
f 266 267 299
f 266 299 298
f 303 266 267
f 304 299 298
f 267 268 300
f 267 300 299
f 303 267 268
f 304 300 299
f 268 269 301
f 268 301 300
f 303 268 269
f 304 301 300
f 269 270 302
f 269 302 301
f 303 269 270
f 304 302 301
f 270 239 271
f 270 271 302
f 303 270 239
f 304 271 302
