mtllib AT115A_8-14S_ESC.mtl
# AT115A 8-14S ESC; units millimeters
o ESC_Main_Body
usemtl black
v -46.000000 -22.750000 -12.000000
v -46.000000 -22.750000 12.000000
v -46.000000 22.750000 -12.000000
v -46.000000 22.750000 12.000000
v 46.000000 -22.750000 -12.000000
v 46.000000 -22.750000 12.000000
v 46.000000 22.750000 -12.000000
v 46.000000 22.750000 12.000000
f 1 2 4
f 1 4 3
f 5 7 8
f 5 8 6
f 1 5 6
f 1 6 2
f 3 4 8
f 3 8 7
f 1 3 7
f 1 7 5
f 2 6 8
f 2 8 4
o Rear_Cover
usemtl dark
v -44.000000 -21.500000 -13.550000
v -44.000000 -21.500000 -11.650000
v -44.000000 21.500000 -13.550000
v -44.000000 21.500000 -11.650000
v 44.000000 -21.500000 -13.550000
v 44.000000 -21.500000 -11.650000
v 44.000000 21.500000 -13.550000
v 44.000000 21.500000 -11.650000
f 9 10 12
f 9 12 11
f 13 15 16
f 13 16 14
f 9 13 14
f 9 14 10
f 11 12 16
f 11 16 15
f 9 11 15
f 9 15 13
f 10 14 16
f 10 16 12
o Heatsink_Base
usemtl aluminum
v -38.000000 -19.750000 11.200000
v -38.000000 -19.750000 13.600000
v -38.000000 19.750000 11.200000
v -38.000000 19.750000 13.600000
v 38.000000 -19.750000 11.200000
v 38.000000 -19.750000 13.600000
v 38.000000 19.750000 11.200000
v 38.000000 19.750000 13.600000
f 17 18 20
f 17 20 19
f 21 23 24
f 21 24 22
f 17 21 22
f 17 22 18
f 19 20 24
f 19 24 23
f 17 19 23
f 17 23 21
f 18 22 24
f 18 24 20
o Cooling_Fin_1
usemtl aluminum
v -38.000000 -18.625000 12.400000
v -38.000000 -18.625000 17.600000
v -38.000000 -17.775000 12.400000
v -38.000000 -17.775000 17.600000
v 38.000000 -18.625000 12.400000
v 38.000000 -18.625000 17.600000
v 38.000000 -17.775000 12.400000
v 38.000000 -17.775000 17.600000
f 25 26 28
f 25 28 27
f 29 31 32
f 29 32 30
f 25 29 30
f 25 30 26
f 27 28 32
f 27 32 31
f 25 27 31
f 25 31 29
f 26 30 32
f 26 32 28
o Cooling_Fin_2
usemtl aluminum
v -38.000000 -15.825000 12.400000
v -38.000000 -15.825000 17.600000
v -38.000000 -14.975000 12.400000
v -38.000000 -14.975000 17.600000
v 38.000000 -15.825000 12.400000
v 38.000000 -15.825000 17.600000
v 38.000000 -14.975000 12.400000
v 38.000000 -14.975000 17.600000
f 33 34 36
f 33 36 35
f 37 39 40
f 37 40 38
f 33 37 38
f 33 38 34
f 35 36 40
f 35 40 39
f 33 35 39
f 33 39 37
f 34 38 40
f 34 40 36
o Cooling_Fin_3
usemtl aluminum
v -38.000000 -13.025000 12.400000
v -38.000000 -13.025000 17.600000
v -38.000000 -12.175000 12.400000
v -38.000000 -12.175000 17.600000
v 38.000000 -13.025000 12.400000
v 38.000000 -13.025000 17.600000
v 38.000000 -12.175000 12.400000
v 38.000000 -12.175000 17.600000
f 41 42 44
f 41 44 43
f 45 47 48
f 45 48 46
f 41 45 46
f 41 46 42
f 43 44 48
f 43 48 47
f 41 43 47
f 41 47 45
f 42 46 48
f 42 48 44
o Cooling_Fin_4
usemtl aluminum
v -38.000000 -10.225000 12.400000
v -38.000000 -10.225000 17.600000
v -38.000000 -9.375000 12.400000
v -38.000000 -9.375000 17.600000
v 38.000000 -10.225000 12.400000
v 38.000000 -10.225000 17.600000
v 38.000000 -9.375000 12.400000
v 38.000000 -9.375000 17.600000
f 49 50 52
f 49 52 51
f 53 55 56
f 53 56 54
f 49 53 54
f 49 54 50
f 51 52 56
f 51 56 55
f 49 51 55
f 49 55 53
f 50 54 56
f 50 56 52
o Cooling_Fin_5
usemtl aluminum
v -38.000000 -7.425000 12.400000
v -38.000000 -7.425000 17.600000
v -38.000000 -6.575000 12.400000
v -38.000000 -6.575000 17.600000
v 38.000000 -7.425000 12.400000
v 38.000000 -7.425000 17.600000
v 38.000000 -6.575000 12.400000
v 38.000000 -6.575000 17.600000
f 57 58 60
f 57 60 59
f 61 63 64
f 61 64 62
f 57 61 62
f 57 62 58
f 59 60 64
f 59 64 63
f 57 59 63
f 57 63 61
f 58 62 64
f 58 64 60
o Cooling_Fin_6
usemtl aluminum
v -38.000000 -4.625000 12.400000
v -38.000000 -4.625000 17.600000
v -38.000000 -3.775000 12.400000
v -38.000000 -3.775000 17.600000
v 38.000000 -4.625000 12.400000
v 38.000000 -4.625000 17.600000
v 38.000000 -3.775000 12.400000
v 38.000000 -3.775000 17.600000
f 65 66 68
f 65 68 67
f 69 71 72
f 69 72 70
f 65 69 70
f 65 70 66
f 67 68 72
f 67 72 71
f 65 67 71
f 65 71 69
f 66 70 72
f 66 72 68
o Cooling_Fin_7
usemtl aluminum
v -38.000000 -1.825000 12.400000
v -38.000000 -1.825000 17.600000
v -38.000000 -0.975000 12.400000
v -38.000000 -0.975000 17.600000
v 38.000000 -1.825000 12.400000
v 38.000000 -1.825000 17.600000
v 38.000000 -0.975000 12.400000
v 38.000000 -0.975000 17.600000
f 73 74 76
f 73 76 75
f 77 79 80
f 77 80 78
f 73 77 78
f 73 78 74
f 75 76 80
f 75 80 79
f 73 75 79
f 73 79 77
f 74 78 80
f 74 80 76
o Cooling_Fin_8
usemtl aluminum
v -38.000000 0.975000 12.400000
v -38.000000 0.975000 17.600000
v -38.000000 1.825000 12.400000
v -38.000000 1.825000 17.600000
v 38.000000 0.975000 12.400000
v 38.000000 0.975000 17.600000
v 38.000000 1.825000 12.400000
v 38.000000 1.825000 17.600000
f 81 82 84
f 81 84 83
f 85 87 88
f 85 88 86
f 81 85 86
f 81 86 82
f 83 84 88
f 83 88 87
f 81 83 87
f 81 87 85
f 82 86 88
f 82 88 84
o Cooling_Fin_9
usemtl aluminum
v -38.000000 3.775000 12.400000
v -38.000000 3.775000 17.600000
v -38.000000 4.625000 12.400000
v -38.000000 4.625000 17.600000
v 38.000000 3.775000 12.400000
v 38.000000 3.775000 17.600000
v 38.000000 4.625000 12.400000
v 38.000000 4.625000 17.600000
f 89 90 92
f 89 92 91
f 93 95 96
f 93 96 94
f 89 93 94
f 89 94 90
f 91 92 96
f 91 96 95
f 89 91 95
f 89 95 93
f 90 94 96
f 90 96 92
o Cooling_Fin_10
usemtl aluminum
v -38.000000 6.575000 12.400000
v -38.000000 6.575000 17.600000
v -38.000000 7.425000 12.400000
v -38.000000 7.425000 17.600000
v 38.000000 6.575000 12.400000
v 38.000000 6.575000 17.600000
v 38.000000 7.425000 12.400000
v 38.000000 7.425000 17.600000
f 97 98 100
f 97 100 99
f 101 103 104
f 101 104 102
f 97 101 102
f 97 102 98
f 99 100 104
f 99 104 103
f 97 99 103
f 97 103 101
f 98 102 104
f 98 104 100
o Cooling_Fin_11
usemtl aluminum
v -38.000000 9.375000 12.400000
v -38.000000 9.375000 17.600000
v -38.000000 10.225000 12.400000
v -38.000000 10.225000 17.600000
v 38.000000 9.375000 12.400000
v 38.000000 9.375000 17.600000
v 38.000000 10.225000 12.400000
v 38.000000 10.225000 17.600000
f 105 106 108
f 105 108 107
f 109 111 112
f 109 112 110
f 105 109 110
f 105 110 106
f 107 108 112
f 107 112 111
f 105 107 111
f 105 111 109
f 106 110 112
f 106 112 108
o Cooling_Fin_12
usemtl aluminum
v -38.000000 12.175000 12.400000
v -38.000000 12.175000 17.600000
v -38.000000 13.025000 12.400000
v -38.000000 13.025000 17.600000
v 38.000000 12.175000 12.400000
v 38.000000 12.175000 17.600000
v 38.000000 13.025000 12.400000
v 38.000000 13.025000 17.600000
f 113 114 116
f 113 116 115
f 117 119 120
f 117 120 118
f 113 117 118
f 113 118 114
f 115 116 120
f 115 120 119
f 113 115 119
f 113 119 117
f 114 118 120
f 114 120 116
o Cooling_Fin_13
usemtl aluminum
v -38.000000 14.975000 12.400000
v -38.000000 14.975000 17.600000
v -38.000000 15.825000 12.400000
v -38.000000 15.825000 17.600000
v 38.000000 14.975000 12.400000
v 38.000000 14.975000 17.600000
v 38.000000 15.825000 12.400000
v 38.000000 15.825000 17.600000
f 121 122 124
f 121 124 123
f 125 127 128
f 125 128 126
f 121 125 126
f 121 126 122
f 123 124 128
f 123 128 127
f 121 123 127
f 121 127 125
f 122 126 128
f 122 128 124
o Cooling_Fin_14
usemtl aluminum
v -38.000000 17.775000 12.400000
v -38.000000 17.775000 17.600000
v -38.000000 18.625000 12.400000
v -38.000000 18.625000 17.600000
v 38.000000 17.775000 12.400000
v 38.000000 17.775000 17.600000
v 38.000000 18.625000 12.400000
v 38.000000 18.625000 17.600000
f 129 130 132
f 129 132 131
f 133 135 136
f 133 136 134
f 129 133 134
f 129 134 130
f 131 132 136
f 131 136 135
f 129 131 135
f 129 135 133
f 130 134 136
f 130 136 132
o Side_Rail_-21.8
usemtl dark
v -41.000000 -22.750000 9.300000
v -41.000000 -22.750000 14.300000
v -41.000000 -20.850000 9.300000
v -41.000000 -20.850000 14.300000
v 41.000000 -22.750000 9.300000
v 41.000000 -22.750000 14.300000
v 41.000000 -20.850000 9.300000
v 41.000000 -20.850000 14.300000
f 137 138 140
f 137 140 139
f 141 143 144
f 141 144 142
f 137 141 142
f 137 142 138
f 139 140 144
f 139 144 143
f 137 139 143
f 137 143 141
f 138 142 144
f 138 144 140
o Side_Rail_21.8
usemtl dark
v -41.000000 20.850000 9.300000
v -41.000000 20.850000 14.300000
v -41.000000 22.750000 9.300000
v -41.000000 22.750000 14.300000
v 41.000000 20.850000 9.300000
v 41.000000 20.850000 14.300000
v 41.000000 22.750000 9.300000
v 41.000000 22.750000 14.300000
f 145 146 148
f 145 148 147
f 149 151 152
f 149 152 150
f 145 149 150
f 145 150 146
f 147 148 152
f 147 152 151
f 145 147 151
f 145 151 149
f 146 150 152
f 146 152 148
o End_Cap_-44.5
usemtl black
v -46.000000 -21.750000 -12.750000
v -46.000000 -21.750000 12.750000
v -46.000000 21.750000 -12.750000
v -46.000000 21.750000 12.750000
v -43.000000 -21.750000 -12.750000
v -43.000000 -21.750000 12.750000
v -43.000000 21.750000 -12.750000
v -43.000000 21.750000 12.750000
f 153 154 156
f 153 156 155
f 157 159 160
f 157 160 158
f 153 157 158
f 153 158 154
f 155 156 160
f 155 160 159
f 153 155 159
f 153 159 157
f 154 158 160
f 154 160 156
o End_Cap_44.5
usemtl black
v 43.000000 -21.750000 -12.750000
v 43.000000 -21.750000 12.750000
v 43.000000 21.750000 -12.750000
v 43.000000 21.750000 12.750000
v 46.000000 -21.750000 -12.750000
v 46.000000 -21.750000 12.750000
v 46.000000 21.750000 -12.750000
v 46.000000 21.750000 12.750000
f 161 162 164
f 161 164 163
f 165 167 168
f 165 168 166
f 161 165 166
f 161 166 162
f 163 164 168
f 163 168 167
f 161 163 167
f 161 167 165
f 162 166 168
f 162 168 164
o M3p5_Screw_1
usemtl screw
v -31.200000 -18.000000 15.200000
v -31.295408 -17.275307 15.200000
v -31.575129 -16.600000 15.200000
v -32.020101 -16.020101 15.200000
v -32.600000 -15.575129 15.200000
v -33.275307 -15.295408 15.200000
v -34.000000 -15.200000 15.200000
v -34.724693 -15.295408 15.200000
v -35.400000 -15.575129 15.200000
v -35.979899 -16.020101 15.200000
v -36.424871 -16.600000 15.200000
v -36.704592 -17.275307 15.200000
v -36.800000 -18.000000 15.200000
v -36.704592 -18.724693 15.200000
v -36.424871 -19.400000 15.200000
v -35.979899 -19.979899 15.200000
v -35.400000 -20.424871 15.200000
v -34.724693 -20.704592 15.200000
v -34.000000 -20.800000 15.200000
v -33.275307 -20.704592 15.200000
v -32.600000 -20.424871 15.200000
v -32.020101 -19.979899 15.200000
v -31.575129 -19.400000 15.200000
v -31.295408 -18.724693 15.200000
v -31.200000 -18.000000 16.600000
v -31.295408 -17.275307 16.600000
v -31.575129 -16.600000 16.600000
v -32.020101 -16.020101 16.600000
v -32.600000 -15.575129 16.600000
v -33.275307 -15.295408 16.600000
v -34.000000 -15.200000 16.600000
v -34.724693 -15.295408 16.600000
v -35.400000 -15.575129 16.600000
v -35.979899 -16.020101 16.600000
v -36.424871 -16.600000 16.600000
v -36.704592 -17.275307 16.600000
v -36.800000 -18.000000 16.600000
v -36.704592 -18.724693 16.600000
v -36.424871 -19.400000 16.600000
v -35.979899 -19.979899 16.600000
v -35.400000 -20.424871 16.600000
v -34.724693 -20.704592 16.600000
v -34.000000 -20.800000 16.600000
v -33.275307 -20.704592 16.600000
v -32.600000 -20.424871 16.600000
v -32.020101 -19.979899 16.600000
v -31.575129 -19.400000 16.600000
v -31.295408 -18.724693 16.600000
f 169 170 194
f 169 194 193
f 170 171 195
f 170 195 194
f 171 172 196
f 171 196 195
f 172 173 197
f 172 197 196
f 173 174 198
f 173 198 197
f 174 175 199
f 174 199 198
f 175 176 200
f 175 200 199
f 176 177 201
f 176 201 200
f 177 178 202
f 177 202 201
f 178 179 203
f 178 203 202
f 179 180 204
f 179 204 203
f 180 181 205
f 180 205 204
f 181 182 206
f 181 206 205
f 182 183 207
f 182 207 206
f 183 184 208
f 183 208 207
f 184 185 209
f 184 209 208
f 185 186 210
f 185 210 209
f 186 187 211
f 186 211 210
f 187 188 212
f 187 212 211
f 188 189 213
f 188 213 212
f 189 190 214
f 189 214 213
f 190 191 215
f 190 215 214
f 191 192 216
f 191 216 215
f 192 169 193
f 192 193 216
f 169 171 170
f 193 194 195
f 169 172 171
f 193 195 196
f 169 173 172
f 193 196 197
f 169 174 173
f 193 197 198
f 169 175 174
f 193 198 199
f 169 176 175
f 193 199 200
f 169 177 176
f 193 200 201
f 169 178 177
f 193 201 202
f 169 179 178
f 193 202 203
f 169 180 179
f 193 203 204
f 169 181 180
f 193 204 205
f 169 182 181
f 193 205 206
f 169 183 182
f 193 206 207
f 169 184 183
f 193 207 208
f 169 185 184
f 193 208 209
f 169 186 185
f 193 209 210
f 169 187 186
f 193 210 211
f 169 188 187
f 193 211 212
f 169 189 188
f 193 212 213
f 169 190 189
f 193 213 214
f 169 191 190
f 193 214 215
f 169 192 191
f 193 215 216
o M3p5_Screw_2
usemtl screw
v 36.800000 -18.000000 15.200000
v 36.704592 -17.275307 15.200000
v 36.424871 -16.600000 15.200000
v 35.979899 -16.020101 15.200000
v 35.400000 -15.575129 15.200000
v 34.724693 -15.295408 15.200000
v 34.000000 -15.200000 15.200000
v 33.275307 -15.295408 15.200000
v 32.600000 -15.575129 15.200000
v 32.020101 -16.020101 15.200000
v 31.575129 -16.600000 15.200000
v 31.295408 -17.275307 15.200000
v 31.200000 -18.000000 15.200000
v 31.295408 -18.724693 15.200000
v 31.575129 -19.400000 15.200000
v 32.020101 -19.979899 15.200000
v 32.600000 -20.424871 15.200000
v 33.275307 -20.704592 15.200000
v 34.000000 -20.800000 15.200000
v 34.724693 -20.704592 15.200000
v 35.400000 -20.424871 15.200000
v 35.979899 -19.979899 15.200000
v 36.424871 -19.400000 15.200000
v 36.704592 -18.724693 15.200000
v 36.800000 -18.000000 16.600000
v 36.704592 -17.275307 16.600000
v 36.424871 -16.600000 16.600000
v 35.979899 -16.020101 16.600000
v 35.400000 -15.575129 16.600000
v 34.724693 -15.295408 16.600000
v 34.000000 -15.200000 16.600000
v 33.275307 -15.295408 16.600000
v 32.600000 -15.575129 16.600000
v 32.020101 -16.020101 16.600000
v 31.575129 -16.600000 16.600000
v 31.295408 -17.275307 16.600000
v 31.200000 -18.000000 16.600000
v 31.295408 -18.724693 16.600000
v 31.575129 -19.400000 16.600000
v 32.020101 -19.979899 16.600000
v 32.600000 -20.424871 16.600000
v 33.275307 -20.704592 16.600000
v 34.000000 -20.800000 16.600000
v 34.724693 -20.704592 16.600000
v 35.400000 -20.424871 16.600000
v 35.979899 -19.979899 16.600000
v 36.424871 -19.400000 16.600000
v 36.704592 -18.724693 16.600000
f 217 218 242
f 217 242 241
f 218 219 243
f 218 243 242
f 219 220 244
f 219 244 243
f 220 221 245
f 220 245 244
f 221 222 246
f 221 246 245
f 222 223 247
f 222 247 246
f 223 224 248
f 223 248 247
f 224 225 249
f 224 249 248
f 225 226 250
f 225 250 249
f 226 227 251
f 226 251 250
f 227 228 252
f 227 252 251
f 228 229 253
f 228 253 252
f 229 230 254
f 229 254 253
f 230 231 255
f 230 255 254
f 231 232 256
f 231 256 255
f 232 233 257
f 232 257 256
f 233 234 258
f 233 258 257
f 234 235 259
f 234 259 258
f 235 236 260
f 235 260 259
f 236 237 261
f 236 261 260
f 237 238 262
f 237 262 261
f 238 239 263
f 238 263 262
f 239 240 264
f 239 264 263
f 240 217 241
f 240 241 264
f 217 219 218
f 241 242 243
f 217 220 219
f 241 243 244
f 217 221 220
f 241 244 245
f 217 222 221
f 241 245 246
f 217 223 222
f 241 246 247
f 217 224 223
f 241 247 248
f 217 225 224
f 241 248 249
f 217 226 225
f 241 249 250
f 217 227 226
f 241 250 251
f 217 228 227
f 241 251 252
f 217 229 228
f 241 252 253
f 217 230 229
f 241 253 254
f 217 231 230
f 241 254 255
f 217 232 231
f 241 255 256
f 217 233 232
f 241 256 257
f 217 234 233
f 241 257 258
f 217 235 234
f 241 258 259
f 217 236 235
f 241 259 260
f 217 237 236
f 241 260 261
f 217 238 237
f 241 261 262
f 217 239 238
f 241 262 263
f 217 240 239
f 241 263 264
o M3p5_Screw_3
usemtl screw
v -31.200000 18.000000 15.200000
v -31.295408 18.724693 15.200000
v -31.575129 19.400000 15.200000
v -32.020101 19.979899 15.200000
v -32.600000 20.424871 15.200000
v -33.275307 20.704592 15.200000
v -34.000000 20.800000 15.200000
v -34.724693 20.704592 15.200000
v -35.400000 20.424871 15.200000
v -35.979899 19.979899 15.200000
v -36.424871 19.400000 15.200000
v -36.704592 18.724693 15.200000
v -36.800000 18.000000 15.200000
v -36.704592 17.275307 15.200000
v -36.424871 16.600000 15.200000
v -35.979899 16.020101 15.200000
v -35.400000 15.575129 15.200000
v -34.724693 15.295408 15.200000
v -34.000000 15.200000 15.200000
v -33.275307 15.295408 15.200000
v -32.600000 15.575129 15.200000
v -32.020101 16.020101 15.200000
v -31.575129 16.600000 15.200000
v -31.295408 17.275307 15.200000
v -31.200000 18.000000 16.600000
v -31.295408 18.724693 16.600000
v -31.575129 19.400000 16.600000
v -32.020101 19.979899 16.600000
v -32.600000 20.424871 16.600000
v -33.275307 20.704592 16.600000
v -34.000000 20.800000 16.600000
v -34.724693 20.704592 16.600000
v -35.400000 20.424871 16.600000
v -35.979899 19.979899 16.600000
v -36.424871 19.400000 16.600000
v -36.704592 18.724693 16.600000
v -36.800000 18.000000 16.600000
v -36.704592 17.275307 16.600000
v -36.424871 16.600000 16.600000
v -35.979899 16.020101 16.600000
v -35.400000 15.575129 16.600000
v -34.724693 15.295408 16.600000
v -34.000000 15.200000 16.600000
v -33.275307 15.295408 16.600000
v -32.600000 15.575129 16.600000
v -32.020101 16.020101 16.600000
v -31.575129 16.600000 16.600000
v -31.295408 17.275307 16.600000
f 265 266 290
f 265 290 289
f 266 267 291
f 266 291 290
f 267 268 292
f 267 292 291
f 268 269 293
f 268 293 292
f 269 270 294
f 269 294 293
f 270 271 295
f 270 295 294
f 271 272 296
f 271 296 295
f 272 273 297
f 272 297 296
f 273 274 298
f 273 298 297
f 274 275 299
f 274 299 298
f 275 276 300
f 275 300 299
f 276 277 301
f 276 301 300
f 277 278 302
f 277 302 301
f 278 279 303
f 278 303 302
f 279 280 304
f 279 304 303
f 280 281 305
f 280 305 304
f 281 282 306
f 281 306 305
f 282 283 307
f 282 307 306
f 283 284 308
f 283 308 307
f 284 285 309
f 284 309 308
f 285 286 310
f 285 310 309
f 286 287 311
f 286 311 310
f 287 288 312
f 287 312 311
f 288 265 289
f 288 289 312
f 265 267 266
f 289 290 291
f 265 268 267
f 289 291 292
f 265 269 268
f 289 292 293
f 265 270 269
f 289 293 294
f 265 271 270
f 289 294 295
f 265 272 271
f 289 295 296
f 265 273 272
f 289 296 297
f 265 274 273
f 289 297 298
f 265 275 274
f 289 298 299
f 265 276 275
f 289 299 300
f 265 277 276
f 289 300 301
f 265 278 277
f 289 301 302
f 265 279 278
f 289 302 303
f 265 280 279
f 289 303 304
f 265 281 280
f 289 304 305
f 265 282 281
f 289 305 306
f 265 283 282
f 289 306 307
f 265 284 283
f 289 307 308
f 265 285 284
f 289 308 309
f 265 286 285
f 289 309 310
f 265 287 286
f 289 310 311
f 265 288 287
f 289 311 312
o M3p5_Screw_4
usemtl screw
v 36.800000 18.000000 15.200000
v 36.704592 18.724693 15.200000
v 36.424871 19.400000 15.200000
v 35.979899 19.979899 15.200000
v 35.400000 20.424871 15.200000
v 34.724693 20.704592 15.200000
v 34.000000 20.800000 15.200000
v 33.275307 20.704592 15.200000
v 32.600000 20.424871 15.200000
v 32.020101 19.979899 15.200000
v 31.575129 19.400000 15.200000
v 31.295408 18.724693 15.200000
v 31.200000 18.000000 15.200000
v 31.295408 17.275307 15.200000
v 31.575129 16.600000 15.200000
v 32.020101 16.020101 15.200000
v 32.600000 15.575129 15.200000
v 33.275307 15.295408 15.200000
v 34.000000 15.200000 15.200000
v 34.724693 15.295408 15.200000
v 35.400000 15.575129 15.200000
v 35.979899 16.020101 15.200000
v 36.424871 16.600000 15.200000
v 36.704592 17.275307 15.200000
v 36.800000 18.000000 16.600000
v 36.704592 18.724693 16.600000
v 36.424871 19.400000 16.600000
v 35.979899 19.979899 16.600000
v 35.400000 20.424871 16.600000
v 34.724693 20.704592 16.600000
v 34.000000 20.800000 16.600000
v 33.275307 20.704592 16.600000
v 32.600000 20.424871 16.600000
v 32.020101 19.979899 16.600000
v 31.575129 19.400000 16.600000
v 31.295408 18.724693 16.600000
v 31.200000 18.000000 16.600000
v 31.295408 17.275307 16.600000
v 31.575129 16.600000 16.600000
v 32.020101 16.020101 16.600000
v 32.600000 15.575129 16.600000
v 33.275307 15.295408 16.600000
v 34.000000 15.200000 16.600000
v 34.724693 15.295408 16.600000
v 35.400000 15.575129 16.600000
v 35.979899 16.020101 16.600000
v 36.424871 16.600000 16.600000
v 36.704592 17.275307 16.600000
f 313 314 338
f 313 338 337
f 314 315 339
f 314 339 338
f 315 316 340
f 315 340 339
f 316 317 341
f 316 341 340
f 317 318 342
f 317 342 341
f 318 319 343
f 318 343 342
f 319 320 344
f 319 344 343
f 320 321 345
f 320 345 344
f 321 322 346
f 321 346 345
f 322 323 347
f 322 347 346
f 323 324 348
f 323 348 347
f 324 325 349
f 324 349 348
f 325 326 350
f 325 350 349
f 326 327 351
f 326 351 350
f 327 328 352
f 327 352 351
f 328 329 353
f 328 353 352
f 329 330 354
f 329 354 353
f 330 331 355
f 330 355 354
f 331 332 356
f 331 356 355
f 332 333 357
f 332 357 356
f 333 334 358
f 333 358 357
f 334 335 359
f 334 359 358
f 335 336 360
f 335 360 359
f 336 313 337
f 336 337 360
f 313 315 314
f 337 338 339
f 313 316 315
f 337 339 340
f 313 317 316
f 337 340 341
f 313 318 317
f 337 341 342
f 313 319 318
f 337 342 343
f 313 320 319
f 337 343 344
f 313 321 320
f 337 344 345
f 313 322 321
f 337 345 346
f 313 323 322
f 337 346 347
f 313 324 323
f 337 347 348
f 313 325 324
f 337 348 349
f 313 326 325
f 337 349 350
f 313 327 326
f 337 350 351
f 313 328 327
f 337 351 352
f 313 329 328
f 337 352 353
f 313 330 329
f 337 353 354
f 313 331 330
f 337 354 355
f 313 332 331
f 337 355 356
f 313 333 332
f 337 356 357
f 313 334 333
f 337 357 358
f 313 335 334
f 337 358 359
f 313 336 335
f 337 359 360
o Battery_blackwire_Cable
usemtl blackwire
v -83.000000 -3.400000 0.000000
v -83.000000 -3.527253 0.803444
v -83.000000 -3.896556 1.528242
v -83.000000 -4.471758 2.103444
v -83.000000 -5.196556 2.472747
v -83.000000 -6.000000 2.600000
v -83.000000 -6.803444 2.472747
v -83.000000 -7.528242 2.103444
v -83.000000 -8.103444 1.528242
v -83.000000 -8.472747 0.803444
v -83.000000 -8.600000 0.000000
v -83.000000 -8.472747 -0.803444
v -83.000000 -8.103444 -1.528242
v -83.000000 -7.528242 -2.103444
v -83.000000 -6.803444 -2.472747
v -83.000000 -6.000000 -2.600000
v -83.000000 -5.196556 -2.472747
v -83.000000 -4.471758 -2.103444
v -83.000000 -3.896556 -1.528242
v -83.000000 -3.527253 -0.803444
v -45.000000 -3.400000 0.000000
v -45.000000 -3.527253 0.803444
v -45.000000 -3.896556 1.528242
v -45.000000 -4.471758 2.103444
v -45.000000 -5.196556 2.472747
v -45.000000 -6.000000 2.600000
v -45.000000 -6.803444 2.472747
v -45.000000 -7.528242 2.103444
v -45.000000 -8.103444 1.528242
v -45.000000 -8.472747 0.803444
v -45.000000 -8.600000 0.000000
v -45.000000 -8.472747 -0.803444
v -45.000000 -8.103444 -1.528242
v -45.000000 -7.528242 -2.103444
v -45.000000 -6.803444 -2.472747
v -45.000000 -6.000000 -2.600000
v -45.000000 -5.196556 -2.472747
v -45.000000 -4.471758 -2.103444
v -45.000000 -3.896556 -1.528242
v -45.000000 -3.527253 -0.803444
f 361 362 382
f 361 382 381
f 362 363 383
f 362 383 382
f 363 364 384
f 363 384 383
f 364 365 385
f 364 385 384
f 365 366 386
f 365 386 385
f 366 367 387
f 366 387 386
f 367 368 388
f 367 388 387
f 368 369 389
f 368 389 388
f 369 370 390
f 369 390 389
f 370 371 391
f 370 391 390
f 371 372 392
f 371 392 391
f 372 373 393
f 372 393 392
f 373 374 394
f 373 394 393
f 374 375 395
f 374 395 394
f 375 376 396
f 375 396 395
f 376 377 397
f 376 397 396
f 377 378 398
f 377 398 397
f 378 379 399
f 378 399 398
f 379 380 400
f 379 400 399
f 380 361 381
f 380 381 400
f 361 363 362
f 381 382 383
f 361 364 363
f 381 383 384
f 361 365 364
f 381 384 385
f 361 366 365
f 381 385 386
f 361 367 366
f 381 386 387
f 361 368 367
f 381 387 388
f 361 369 368
f 381 388 389
f 361 370 369
f 381 389 390
f 361 371 370
f 381 390 391
f 361 372 371
f 381 391 392
f 361 373 372
f 381 392 393
f 361 374 373
f 381 393 394
f 361 375 374
f 381 394 395
f 361 376 375
f 381 395 396
f 361 377 376
f 381 396 397
f 361 378 377
f 381 397 398
f 361 379 378
f 381 398 399
f 361 380 379
f 381 399 400
o Battery_blackwire_Terminal
usemtl metal
v -85.500000 -2.900000 0.000000
v -85.500000 -3.051725 0.957953
v -85.500000 -3.492047 1.822134
v -85.500000 -4.177866 2.507953
v -85.500000 -5.042047 2.948275
v -85.500000 -6.000000 3.100000
v -85.500000 -6.957953 2.948275
v -85.500000 -7.822134 2.507953
v -85.500000 -8.507953 1.822134
v -85.500000 -8.948275 0.957953
v -85.500000 -9.100000 0.000000
v -85.500000 -8.948275 -0.957953
v -85.500000 -8.507953 -1.822134
v -85.500000 -7.822134 -2.507953
v -85.500000 -6.957953 -2.948275
v -85.500000 -6.000000 -3.100000
v -85.500000 -5.042047 -2.948275
v -85.500000 -4.177866 -2.507953
v -85.500000 -3.492047 -1.822134
v -85.500000 -3.051725 -0.957953
v -80.500000 -2.900000 0.000000
v -80.500000 -3.051725 0.957953
v -80.500000 -3.492047 1.822134
v -80.500000 -4.177866 2.507953
v -80.500000 -5.042047 2.948275
v -80.500000 -6.000000 3.100000
v -80.500000 -6.957953 2.948275
v -80.500000 -7.822134 2.507953
v -80.500000 -8.507953 1.822134
v -80.500000 -8.948275 0.957953
v -80.500000 -9.100000 0.000000
v -80.500000 -8.948275 -0.957953
v -80.500000 -8.507953 -1.822134
v -80.500000 -7.822134 -2.507953
v -80.500000 -6.957953 -2.948275
v -80.500000 -6.000000 -3.100000
v -80.500000 -5.042047 -2.948275
v -80.500000 -4.177866 -2.507953
v -80.500000 -3.492047 -1.822134
v -80.500000 -3.051725 -0.957953
f 401 402 422
f 401 422 421
f 402 403 423
f 402 423 422
f 403 404 424
f 403 424 423
f 404 405 425
f 404 425 424
f 405 406 426
f 405 426 425
f 406 407 427
f 406 427 426
f 407 408 428
f 407 428 427
f 408 409 429
f 408 429 428
f 409 410 430
f 409 430 429
f 410 411 431
f 410 431 430
f 411 412 432
f 411 432 431
f 412 413 433
f 412 433 432
f 413 414 434
f 413 434 433
f 414 415 435
f 414 435 434
f 415 416 436
f 415 436 435
f 416 417 437
f 416 437 436
f 417 418 438
f 417 438 437
f 418 419 439
f 418 439 438
f 419 420 440
f 419 440 439
f 420 401 421
f 420 421 440
f 401 403 402
f 421 422 423
f 401 404 403
f 421 423 424
f 401 405 404
f 421 424 425
f 401 406 405
f 421 425 426
f 401 407 406
f 421 426 427
f 401 408 407
f 421 427 428
f 401 409 408
f 421 428 429
f 401 410 409
f 421 429 430
f 401 411 410
f 421 430 431
f 401 412 411
f 421 431 432
f 401 413 412
f 421 432 433
f 401 414 413
f 421 433 434
f 401 415 414
f 421 434 435
f 401 416 415
f 421 435 436
f 401 417 416
f 421 436 437
f 401 418 417
f 421 437 438
f 401 419 418
f 421 438 439
f 401 420 419
f 421 439 440
o Battery_red_Cable
usemtl red
v -83.000000 8.600000 0.000000
v -83.000000 8.472747 0.803444
v -83.000000 8.103444 1.528242
v -83.000000 7.528242 2.103444
v -83.000000 6.803444 2.472747
v -83.000000 6.000000 2.600000
v -83.000000 5.196556 2.472747
v -83.000000 4.471758 2.103444
v -83.000000 3.896556 1.528242
v -83.000000 3.527253 0.803444
v -83.000000 3.400000 0.000000
v -83.000000 3.527253 -0.803444
v -83.000000 3.896556 -1.528242
v -83.000000 4.471758 -2.103444
v -83.000000 5.196556 -2.472747
v -83.000000 6.000000 -2.600000
v -83.000000 6.803444 -2.472747
v -83.000000 7.528242 -2.103444
v -83.000000 8.103444 -1.528242
v -83.000000 8.472747 -0.803444
v -45.000000 8.600000 0.000000
v -45.000000 8.472747 0.803444
v -45.000000 8.103444 1.528242
v -45.000000 7.528242 2.103444
v -45.000000 6.803444 2.472747
v -45.000000 6.000000 2.600000
v -45.000000 5.196556 2.472747
v -45.000000 4.471758 2.103444
v -45.000000 3.896556 1.528242
v -45.000000 3.527253 0.803444
v -45.000000 3.400000 0.000000
v -45.000000 3.527253 -0.803444
v -45.000000 3.896556 -1.528242
v -45.000000 4.471758 -2.103444
v -45.000000 5.196556 -2.472747
v -45.000000 6.000000 -2.600000
v -45.000000 6.803444 -2.472747
v -45.000000 7.528242 -2.103444
v -45.000000 8.103444 -1.528242
v -45.000000 8.472747 -0.803444
f 441 442 462
f 441 462 461
f 442 443 463
f 442 463 462
f 443 444 464
f 443 464 463
f 444 445 465
f 444 465 464
f 445 446 466
f 445 466 465
f 446 447 467
f 446 467 466
f 447 448 468
f 447 468 467
f 448 449 469
f 448 469 468
f 449 450 470
f 449 470 469
f 450 451 471
f 450 471 470
f 451 452 472
f 451 472 471
f 452 453 473
f 452 473 472
f 453 454 474
f 453 474 473
f 454 455 475
f 454 475 474
f 455 456 476
f 455 476 475
f 456 457 477
f 456 477 476
f 457 458 478
f 457 478 477
f 458 459 479
f 458 479 478
f 459 460 480
f 459 480 479
f 460 441 461
f 460 461 480
f 441 443 442
f 461 462 463
f 441 444 443
f 461 463 464
f 441 445 444
f 461 464 465
f 441 446 445
f 461 465 466
f 441 447 446
f 461 466 467
f 441 448 447
f 461 467 468
f 441 449 448
f 461 468 469
f 441 450 449
f 461 469 470
f 441 451 450
f 461 470 471
f 441 452 451
f 461 471 472
f 441 453 452
f 461 472 473
f 441 454 453
f 461 473 474
f 441 455 454
f 461 474 475
f 441 456 455
f 461 475 476
f 441 457 456
f 461 476 477
f 441 458 457
f 461 477 478
f 441 459 458
f 461 478 479
f 441 460 459
f 461 479 480
o Battery_red_Terminal
usemtl metal
v -85.500000 9.100000 0.000000
v -85.500000 8.948275 0.957953
v -85.500000 8.507953 1.822134
v -85.500000 7.822134 2.507953
v -85.500000 6.957953 2.948275
v -85.500000 6.000000 3.100000
v -85.500000 5.042047 2.948275
v -85.500000 4.177866 2.507953
v -85.500000 3.492047 1.822134
v -85.500000 3.051725 0.957953
v -85.500000 2.900000 0.000000
v -85.500000 3.051725 -0.957953
v -85.500000 3.492047 -1.822134
v -85.500000 4.177866 -2.507953
v -85.500000 5.042047 -2.948275
v -85.500000 6.000000 -3.100000
v -85.500000 6.957953 -2.948275
v -85.500000 7.822134 -2.507953
v -85.500000 8.507953 -1.822134
v -85.500000 8.948275 -0.957953
v -80.500000 9.100000 0.000000
v -80.500000 8.948275 0.957953
v -80.500000 8.507953 1.822134
v -80.500000 7.822134 2.507953
v -80.500000 6.957953 2.948275
v -80.500000 6.000000 3.100000
v -80.500000 5.042047 2.948275
v -80.500000 4.177866 2.507953
v -80.500000 3.492047 1.822134
v -80.500000 3.051725 0.957953
v -80.500000 2.900000 0.000000
v -80.500000 3.051725 -0.957953
v -80.500000 3.492047 -1.822134
v -80.500000 4.177866 -2.507953
v -80.500000 5.042047 -2.948275
v -80.500000 6.000000 -3.100000
v -80.500000 6.957953 -2.948275
v -80.500000 7.822134 -2.507953
v -80.500000 8.507953 -1.822134
v -80.500000 8.948275 -0.957953
f 481 482 502
f 481 502 501
f 482 483 503
f 482 503 502
f 483 484 504
f 483 504 503
f 484 485 505
f 484 505 504
f 485 486 506
f 485 506 505
f 486 487 507
f 486 507 506
f 487 488 508
f 487 508 507
f 488 489 509
f 488 509 508
f 489 490 510
f 489 510 509
f 490 491 511
f 490 511 510
f 491 492 512
f 491 512 511
f 492 493 513
f 492 513 512
f 493 494 514
f 493 514 513
f 494 495 515
f 494 515 514
f 495 496 516
f 495 516 515
f 496 497 517
f 496 517 516
f 497 498 518
f 497 518 517
f 498 499 519
f 498 519 518
f 499 500 520
f 499 520 519
f 500 481 501
f 500 501 520
f 481 483 482
f 501 502 503
f 481 484 483
f 501 503 504
f 481 485 484
f 501 504 505
f 481 486 485
f 501 505 506
f 481 487 486
f 501 506 507
f 481 488 487
f 501 507 508
f 481 489 488
f 501 508 509
f 481 490 489
f 501 509 510
f 481 491 490
f 501 510 511
f 481 492 491
f 501 511 512
f 481 493 492
f 501 512 513
f 481 494 493
f 501 513 514
f 481 495 494
f 501 514 515
f 481 496 495
f 501 515 516
f 481 497 496
f 501 516 517
f 481 498 497
f 501 517 518
f 481 499 498
f 501 518 519
f 481 500 499
f 501 519 520
o Motor_Phase_Cable_1
usemtl phase
v 45.000000 -6.500000 0.000000
v 45.000000 -6.622359 0.772542
v 45.000000 -6.977458 1.469463
v 45.000000 -7.530537 2.022542
v 45.000000 -8.227458 2.377641
v 45.000000 -9.000000 2.500000
v 45.000000 -9.772542 2.377641
v 45.000000 -10.469463 2.022542
v 45.000000 -11.022542 1.469463
v 45.000000 -11.377641 0.772542
v 45.000000 -11.500000 0.000000
v 45.000000 -11.377641 -0.772542
v 45.000000 -11.022542 -1.469463
v 45.000000 -10.469463 -2.022542
v 45.000000 -9.772542 -2.377641
v 45.000000 -9.000000 -2.500000
v 45.000000 -8.227458 -2.377641
v 45.000000 -7.530537 -2.022542
v 45.000000 -6.977458 -1.469463
v 45.000000 -6.622359 -0.772542
v 83.000000 -6.500000 0.000000
v 83.000000 -6.622359 0.772542
v 83.000000 -6.977458 1.469463
v 83.000000 -7.530537 2.022542
v 83.000000 -8.227458 2.377641
v 83.000000 -9.000000 2.500000
v 83.000000 -9.772542 2.377641
v 83.000000 -10.469463 2.022542
v 83.000000 -11.022542 1.469463
v 83.000000 -11.377641 0.772542
v 83.000000 -11.500000 0.000000
v 83.000000 -11.377641 -0.772542
v 83.000000 -11.022542 -1.469463
v 83.000000 -10.469463 -2.022542
v 83.000000 -9.772542 -2.377641
v 83.000000 -9.000000 -2.500000
v 83.000000 -8.227458 -2.377641
v 83.000000 -7.530537 -2.022542
v 83.000000 -6.977458 -1.469463
v 83.000000 -6.622359 -0.772542
f 521 522 542
f 521 542 541
f 522 523 543
f 522 543 542
f 523 524 544
f 523 544 543
f 524 525 545
f 524 545 544
f 525 526 546
f 525 546 545
f 526 527 547
f 526 547 546
f 527 528 548
f 527 548 547
f 528 529 549
f 528 549 548
f 529 530 550
f 529 550 549
f 530 531 551
f 530 551 550
f 531 532 552
f 531 552 551
f 532 533 553
f 532 553 552
f 533 534 554
f 533 554 553
f 534 535 555
f 534 555 554
f 535 536 556
f 535 556 555
f 536 537 557
f 536 557 556
f 537 538 558
f 537 558 557
f 538 539 559
f 538 559 558
f 539 540 560
f 539 560 559
f 540 521 541
f 540 541 560
f 521 523 522
f 541 542 543
f 521 524 523
f 541 543 544
f 521 525 524
f 541 544 545
f 521 526 525
f 541 545 546
f 521 527 526
f 541 546 547
f 521 528 527
f 541 547 548
f 521 529 528
f 541 548 549
f 521 530 529
f 541 549 550
f 521 531 530
f 541 550 551
f 521 532 531
f 541 551 552
f 521 533 532
f 541 552 553
f 521 534 533
f 541 553 554
f 521 535 534
f 541 554 555
f 521 536 535
f 541 555 556
f 521 537 536
f 541 556 557
f 521 538 537
f 541 557 558
f 521 539 538
f 541 558 559
f 521 540 539
f 541 559 560
o Motor_Bullet_1
usemtl metal
v 80.500000 -6.000000 0.000000
v 80.500000 -6.146830 0.927051
v 80.500000 -6.572949 1.763356
v 80.500000 -7.236644 2.427051
v 80.500000 -8.072949 2.853170
v 80.500000 -9.000000 3.000000
v 80.500000 -9.927051 2.853170
v 80.500000 -10.763356 2.427051
v 80.500000 -11.427051 1.763356
v 80.500000 -11.853170 0.927051
v 80.500000 -12.000000 0.000000
v 80.500000 -11.853170 -0.927051
v 80.500000 -11.427051 -1.763356
v 80.500000 -10.763356 -2.427051
v 80.500000 -9.927051 -2.853170
v 80.500000 -9.000000 -3.000000
v 80.500000 -8.072949 -2.853170
v 80.500000 -7.236644 -2.427051
v 80.500000 -6.572949 -1.763356
v 80.500000 -6.146830 -0.927051
v 85.500000 -6.000000 0.000000
v 85.500000 -6.146830 0.927051
v 85.500000 -6.572949 1.763356
v 85.500000 -7.236644 2.427051
v 85.500000 -8.072949 2.853170
v 85.500000 -9.000000 3.000000
v 85.500000 -9.927051 2.853170
v 85.500000 -10.763356 2.427051
v 85.500000 -11.427051 1.763356
v 85.500000 -11.853170 0.927051
v 85.500000 -12.000000 0.000000
v 85.500000 -11.853170 -0.927051
v 85.500000 -11.427051 -1.763356
v 85.500000 -10.763356 -2.427051
v 85.500000 -9.927051 -2.853170
v 85.500000 -9.000000 -3.000000
v 85.500000 -8.072949 -2.853170
v 85.500000 -7.236644 -2.427051
v 85.500000 -6.572949 -1.763356
v 85.500000 -6.146830 -0.927051
f 561 562 582
f 561 582 581
f 562 563 583
f 562 583 582
f 563 564 584
f 563 584 583
f 564 565 585
f 564 585 584
f 565 566 586
f 565 586 585
f 566 567 587
f 566 587 586
f 567 568 588
f 567 588 587
f 568 569 589
f 568 589 588
f 569 570 590
f 569 590 589
f 570 571 591
f 570 591 590
f 571 572 592
f 571 592 591
f 572 573 593
f 572 593 592
f 573 574 594
f 573 594 593
f 574 575 595
f 574 595 594
f 575 576 596
f 575 596 595
f 576 577 597
f 576 597 596
f 577 578 598
f 577 598 597
f 578 579 599
f 578 599 598
f 579 580 600
f 579 600 599
f 580 561 581
f 580 581 600
f 561 563 562
f 581 582 583
f 561 564 563
f 581 583 584
f 561 565 564
f 581 584 585
f 561 566 565
f 581 585 586
f 561 567 566
f 581 586 587
f 561 568 567
f 581 587 588
f 561 569 568
f 581 588 589
f 561 570 569
f 581 589 590
f 561 571 570
f 581 590 591
f 561 572 571
f 581 591 592
f 561 573 572
f 581 592 593
f 561 574 573
f 581 593 594
f 561 575 574
f 581 594 595
f 561 576 575
f 581 595 596
f 561 577 576
f 581 596 597
f 561 578 577
f 581 597 598
f 561 579 578
f 581 598 599
f 561 580 579
f 581 599 600
o Motor_Phase_Cable_2
usemtl phase
v 45.000000 2.500000 0.000000
v 45.000000 2.377641 0.772542
v 45.000000 2.022542 1.469463
v 45.000000 1.469463 2.022542
v 45.000000 0.772542 2.377641
v 45.000000 0.000000 2.500000
v 45.000000 -0.772542 2.377641
v 45.000000 -1.469463 2.022542
v 45.000000 -2.022542 1.469463
v 45.000000 -2.377641 0.772542
v 45.000000 -2.500000 0.000000
v 45.000000 -2.377641 -0.772542
v 45.000000 -2.022542 -1.469463
v 45.000000 -1.469463 -2.022542
v 45.000000 -0.772542 -2.377641
v 45.000000 -0.000000 -2.500000
v 45.000000 0.772542 -2.377641
v 45.000000 1.469463 -2.022542
v 45.000000 2.022542 -1.469463
v 45.000000 2.377641 -0.772542
v 83.000000 2.500000 0.000000
v 83.000000 2.377641 0.772542
v 83.000000 2.022542 1.469463
v 83.000000 1.469463 2.022542
v 83.000000 0.772542 2.377641
v 83.000000 0.000000 2.500000
v 83.000000 -0.772542 2.377641
v 83.000000 -1.469463 2.022542
v 83.000000 -2.022542 1.469463
v 83.000000 -2.377641 0.772542
v 83.000000 -2.500000 0.000000
v 83.000000 -2.377641 -0.772542
v 83.000000 -2.022542 -1.469463
v 83.000000 -1.469463 -2.022542
v 83.000000 -0.772542 -2.377641
v 83.000000 -0.000000 -2.500000
v 83.000000 0.772542 -2.377641
v 83.000000 1.469463 -2.022542
v 83.000000 2.022542 -1.469463
v 83.000000 2.377641 -0.772542
f 601 602 622
f 601 622 621
f 602 603 623
f 602 623 622
f 603 604 624
f 603 624 623
f 604 605 625
f 604 625 624
f 605 606 626
f 605 626 625
f 606 607 627
f 606 627 626
f 607 608 628
f 607 628 627
f 608 609 629
f 608 629 628
f 609 610 630
f 609 630 629
f 610 611 631
f 610 631 630
f 611 612 632
f 611 632 631
f 612 613 633
f 612 633 632
f 613 614 634
f 613 634 633
f 614 615 635
f 614 635 634
f 615 616 636
f 615 636 635
f 616 617 637
f 616 637 636
f 617 618 638
f 617 638 637
f 618 619 639
f 618 639 638
f 619 620 640
f 619 640 639
f 620 601 621
f 620 621 640
f 601 603 602
f 621 622 623
f 601 604 603
f 621 623 624
f 601 605 604
f 621 624 625
f 601 606 605
f 621 625 626
f 601 607 606
f 621 626 627
f 601 608 607
f 621 627 628
f 601 609 608
f 621 628 629
f 601 610 609
f 621 629 630
f 601 611 610
f 621 630 631
f 601 612 611
f 621 631 632
f 601 613 612
f 621 632 633
f 601 614 613
f 621 633 634
f 601 615 614
f 621 634 635
f 601 616 615
f 621 635 636
f 601 617 616
f 621 636 637
f 601 618 617
f 621 637 638
f 601 619 618
f 621 638 639
f 601 620 619
f 621 639 640
o Motor_Bullet_2
usemtl metal
v 80.500000 3.000000 0.000000
v 80.500000 2.853170 0.927051
v 80.500000 2.427051 1.763356
v 80.500000 1.763356 2.427051
v 80.500000 0.927051 2.853170
v 80.500000 0.000000 3.000000
v 80.500000 -0.927051 2.853170
v 80.500000 -1.763356 2.427051
v 80.500000 -2.427051 1.763356
v 80.500000 -2.853170 0.927051
v 80.500000 -3.000000 0.000000
v 80.500000 -2.853170 -0.927051
v 80.500000 -2.427051 -1.763356
v 80.500000 -1.763356 -2.427051
v 80.500000 -0.927051 -2.853170
v 80.500000 -0.000000 -3.000000
v 80.500000 0.927051 -2.853170
v 80.500000 1.763356 -2.427051
v 80.500000 2.427051 -1.763356
v 80.500000 2.853170 -0.927051
v 85.500000 3.000000 0.000000
v 85.500000 2.853170 0.927051
v 85.500000 2.427051 1.763356
v 85.500000 1.763356 2.427051
v 85.500000 0.927051 2.853170
v 85.500000 0.000000 3.000000
v 85.500000 -0.927051 2.853170
v 85.500000 -1.763356 2.427051
v 85.500000 -2.427051 1.763356
v 85.500000 -2.853170 0.927051
v 85.500000 -3.000000 0.000000
v 85.500000 -2.853170 -0.927051
v 85.500000 -2.427051 -1.763356
v 85.500000 -1.763356 -2.427051
v 85.500000 -0.927051 -2.853170
v 85.500000 -0.000000 -3.000000
v 85.500000 0.927051 -2.853170
v 85.500000 1.763356 -2.427051
v 85.500000 2.427051 -1.763356
v 85.500000 2.853170 -0.927051
f 641 642 662
f 641 662 661
f 642 643 663
f 642 663 662
f 643 644 664
f 643 664 663
f 644 645 665
f 644 665 664
f 645 646 666
f 645 666 665
f 646 647 667
f 646 667 666
f 647 648 668
f 647 668 667
f 648 649 669
f 648 669 668
f 649 650 670
f 649 670 669
f 650 651 671
f 650 671 670
f 651 652 672
f 651 672 671
f 652 653 673
f 652 673 672
f 653 654 674
f 653 674 673
f 654 655 675
f 654 675 674
f 655 656 676
f 655 676 675
f 656 657 677
f 656 677 676
f 657 658 678
f 657 678 677
f 658 659 679
f 658 679 678
f 659 660 680
f 659 680 679
f 660 641 661
f 660 661 680
f 641 643 642
f 661 662 663
f 641 644 643
f 661 663 664
f 641 645 644
f 661 664 665
f 641 646 645
f 661 665 666
f 641 647 646
f 661 666 667
f 641 648 647
f 661 667 668
f 641 649 648
f 661 668 669
f 641 650 649
f 661 669 670
f 641 651 650
f 661 670 671
f 641 652 651
f 661 671 672
f 641 653 652
f 661 672 673
f 641 654 653
f 661 673 674
f 641 655 654
f 661 674 675
f 641 656 655
f 661 675 676
f 641 657 656
f 661 676 677
f 641 658 657
f 661 677 678
f 641 659 658
f 661 678 679
f 641 660 659
f 661 679 680
o Motor_Phase_Cable_3
usemtl phase
v 45.000000 11.500000 0.000000
v 45.000000 11.377641 0.772542
v 45.000000 11.022542 1.469463
v 45.000000 10.469463 2.022542
v 45.000000 9.772542 2.377641
v 45.000000 9.000000 2.500000
v 45.000000 8.227458 2.377641
v 45.000000 7.530537 2.022542
v 45.000000 6.977458 1.469463
v 45.000000 6.622359 0.772542
v 45.000000 6.500000 0.000000
v 45.000000 6.622359 -0.772542
v 45.000000 6.977458 -1.469463
v 45.000000 7.530537 -2.022542
v 45.000000 8.227458 -2.377641
v 45.000000 9.000000 -2.500000
v 45.000000 9.772542 -2.377641
v 45.000000 10.469463 -2.022542
v 45.000000 11.022542 -1.469463
v 45.000000 11.377641 -0.772542
v 83.000000 11.500000 0.000000
v 83.000000 11.377641 0.772542
v 83.000000 11.022542 1.469463
v 83.000000 10.469463 2.022542
v 83.000000 9.772542 2.377641
v 83.000000 9.000000 2.500000
v 83.000000 8.227458 2.377641
v 83.000000 7.530537 2.022542
v 83.000000 6.977458 1.469463
v 83.000000 6.622359 0.772542
v 83.000000 6.500000 0.000000
v 83.000000 6.622359 -0.772542
v 83.000000 6.977458 -1.469463
v 83.000000 7.530537 -2.022542
v 83.000000 8.227458 -2.377641
v 83.000000 9.000000 -2.500000
v 83.000000 9.772542 -2.377641
v 83.000000 10.469463 -2.022542
v 83.000000 11.022542 -1.469463
v 83.000000 11.377641 -0.772542
f 681 682 702
f 681 702 701
f 682 683 703
f 682 703 702
f 683 684 704
f 683 704 703
f 684 685 705
f 684 705 704
f 685 686 706
f 685 706 705
f 686 687 707
f 686 707 706
f 687 688 708
f 687 708 707
f 688 689 709
f 688 709 708
f 689 690 710
f 689 710 709
f 690 691 711
f 690 711 710
f 691 692 712
f 691 712 711
f 692 693 713
f 692 713 712
f 693 694 714
f 693 714 713
f 694 695 715
f 694 715 714
f 695 696 716
f 695 716 715
f 696 697 717
f 696 717 716
f 697 698 718
f 697 718 717
f 698 699 719
f 698 719 718
f 699 700 720
f 699 720 719
f 700 681 701
f 700 701 720
f 681 683 682
f 701 702 703
f 681 684 683
f 701 703 704
f 681 685 684
f 701 704 705
f 681 686 685
f 701 705 706
f 681 687 686
f 701 706 707
f 681 688 687
f 701 707 708
f 681 689 688
f 701 708 709
f 681 690 689
f 701 709 710
f 681 691 690
f 701 710 711
f 681 692 691
f 701 711 712
f 681 693 692
f 701 712 713
f 681 694 693
f 701 713 714
f 681 695 694
f 701 714 715
f 681 696 695
f 701 715 716
f 681 697 696
f 701 716 717
f 681 698 697
f 701 717 718
f 681 699 698
f 701 718 719
f 681 700 699
f 701 719 720
o Motor_Bullet_3
usemtl metal
v 80.500000 12.000000 0.000000
v 80.500000 11.853170 0.927051
v 80.500000 11.427051 1.763356
v 80.500000 10.763356 2.427051
v 80.500000 9.927051 2.853170
v 80.500000 9.000000 3.000000
v 80.500000 8.072949 2.853170
v 80.500000 7.236644 2.427051
v 80.500000 6.572949 1.763356
v 80.500000 6.146830 0.927051
v 80.500000 6.000000 0.000000
v 80.500000 6.146830 -0.927051
v 80.500000 6.572949 -1.763356
v 80.500000 7.236644 -2.427051
v 80.500000 8.072949 -2.853170
v 80.500000 9.000000 -3.000000
v 80.500000 9.927051 -2.853170
v 80.500000 10.763356 -2.427051
v 80.500000 11.427051 -1.763356
v 80.500000 11.853170 -0.927051
v 85.500000 12.000000 0.000000
v 85.500000 11.853170 0.927051
v 85.500000 11.427051 1.763356
v 85.500000 10.763356 2.427051
v 85.500000 9.927051 2.853170
v 85.500000 9.000000 3.000000
v 85.500000 8.072949 2.853170
v 85.500000 7.236644 2.427051
v 85.500000 6.572949 1.763356
v 85.500000 6.146830 0.927051
v 85.500000 6.000000 0.000000
v 85.500000 6.146830 -0.927051
v 85.500000 6.572949 -1.763356
v 85.500000 7.236644 -2.427051
v 85.500000 8.072949 -2.853170
v 85.500000 9.000000 -3.000000
v 85.500000 9.927051 -2.853170
v 85.500000 10.763356 -2.427051
v 85.500000 11.427051 -1.763356
v 85.500000 11.853170 -0.927051
f 721 722 742
f 721 742 741
f 722 723 743
f 722 743 742
f 723 724 744
f 723 744 743
f 724 725 745
f 724 745 744
f 725 726 746
f 725 746 745
f 726 727 747
f 726 747 746
f 727 728 748
f 727 748 747
f 728 729 749
f 728 749 748
f 729 730 750
f 729 750 749
f 730 731 751
f 730 751 750
f 731 732 752
f 731 752 751
f 732 733 753
f 732 753 752
f 733 734 754
f 733 754 753
f 734 735 755
f 734 755 754
f 735 736 756
f 735 756 755
f 736 737 757
f 736 757 756
f 737 738 758
f 737 758 757
f 738 739 759
f 738 759 758
f 739 740 760
f 739 760 759
f 740 721 741
f 740 741 760
f 721 723 722
f 741 742 743
f 721 724 723
f 741 743 744
f 721 725 724
f 741 744 745
f 721 726 725
f 741 745 746
f 721 727 726
f 741 746 747
f 721 728 727
f 741 747 748
f 721 729 728
f 741 748 749
f 721 730 729
f 741 749 750
f 721 731 730
f 741 750 751
f 721 732 731
f 741 751 752
f 721 733 732
f 741 752 753
f 721 734 733
f 741 753 754
f 721 735 734
f 741 754 755
f 721 736 735
f 741 755 756
f 721 737 736
f 741 756 757
f 721 738 737
f 741 757 758
f 721 739 738
f 741 758 759
f 721 740 739
f 741 759 760
o Signal_Lead
usemtl signal
v -69.000000 16.300000 -5.000000
v -69.000000 16.201043 -4.502512
v -69.000000 15.919239 -4.080761
v -69.000000 15.497488 -3.798957
v -69.000000 15.000000 -3.700000
v -69.000000 14.502512 -3.798957
v -69.000000 14.080761 -4.080761
v -69.000000 13.798957 -4.502512
v -69.000000 13.700000 -5.000000
v -69.000000 13.798957 -5.497488
v -69.000000 14.080761 -5.919239
v -69.000000 14.502512 -6.201043
v -69.000000 15.000000 -6.300000
v -69.000000 15.497488 -6.201043
v -69.000000 15.919239 -5.919239
v -69.000000 16.201043 -5.497488
v -45.000000 16.300000 -5.000000
v -45.000000 16.201043 -4.502512
v -45.000000 15.919239 -4.080761
v -45.000000 15.497488 -3.798957
v -45.000000 15.000000 -3.700000
v -45.000000 14.502512 -3.798957
v -45.000000 14.080761 -4.080761
v -45.000000 13.798957 -4.502512
v -45.000000 13.700000 -5.000000
v -45.000000 13.798957 -5.497488
v -45.000000 14.080761 -5.919239
v -45.000000 14.502512 -6.201043
v -45.000000 15.000000 -6.300000
v -45.000000 15.497488 -6.201043
v -45.000000 15.919239 -5.919239
v -45.000000 16.201043 -5.497488
f 761 762 778
f 761 778 777
f 762 763 779
f 762 779 778
f 763 764 780
f 763 780 779
f 764 765 781
f 764 781 780
f 765 766 782
f 765 782 781
f 766 767 783
f 766 783 782
f 767 768 784
f 767 784 783
f 768 769 785
f 768 785 784
f 769 770 786
f 769 786 785
f 770 771 787
f 770 787 786
f 771 772 788
f 771 788 787
f 772 773 789
f 772 789 788
f 773 774 790
f 773 790 789
f 774 775 791
f 774 791 790
f 775 776 792
f 775 792 791
f 776 761 777
f 776 777 792
f 761 763 762
f 777 778 779
f 761 764 763
f 777 779 780
f 761 765 764
f 777 780 781
f 761 766 765
f 777 781 782
f 761 767 766
f 777 782 783
f 761 768 767
f 777 783 784
f 761 769 768
f 777 784 785
f 761 770 769
f 777 785 786
f 761 771 770
f 777 786 787
f 761 772 771
f 777 787 788
f 761 773 772
f 777 788 789
f 761 774 773
f 777 789 790
f 761 775 774
f 777 790 791
f 761 776 775
f 777 791 792
