# Foldable Omni Antenna 3D CAD Model
# Verification: 2.4GHz / 5.8GHz Dual-Band Foldable Omni with SMA Male Connector
# Height: 155mm, Base: 10.4mm, Weight: ~18g
o Foldable_Omni_Antenna
v 0 0 0
v 3.5 0 0
v 3.381 0 0.906
v 3.031 0 1.75
v 2.475 0 2.475
v 1.75 0 3.031
v 0.906 0 3.381
v 0 0 3.5
v -0.906 0 3.381
v -1.75 0 3.031
v -2.475 0 2.475
v -3.031 0 1.75
v -3.381 0 0.906
v -3.5 0 0
v -3.381 0 -0.906
v -3.031 0 -1.75
v -2.475 0 -2.475
v -1.75 0 -3.031
v -0.906 0 -3.381
v 0 0 -3.5
v 0.906 0 -3.381
v 1.75 0 -3.031
v 2.475 0 -2.475
v 3.031 0 -1.75
v 3.381 0 -0.906
v 3.5 0 0
v 3.381 0 0.906
v 3.031 0 1.75
v 2.475 0 2.475
v 1.75 0 3.031
v 0.906 0 3.381
v 0 0 3.5
v -0.906 0 3.381
v -1.75 0 3.031
v -2.475 0 2.475
v -3.031 0 1.75
v -3.381 0 0.906
v -3.5 0 0
v -3.381 0 -0.906
v -3.031 0 -1.75
v -2.475 0 -2.475
v -1.75 0 -3.031
v -0.906 0 -3.381
v 0 0 -3.5
v 0.906 0 -3.381
v 1.75 0 -3.031
v 2.475 0 -2.475
v 3.031 0 -1.75
v 3.381 0 -0.906
v 4.2 0 0
v 4.057 0 1.087
v 3.637 0 2.1
v 2.97 0 2.97
v 2.1 0 3.637
v 1.087 0 4.057
v 0 0 4.2
v -1.087 0 4.057
v -2.1 0 3.637
v -2.97 0 2.97
v -3.637 0 2.1
v -4.057 0 1.087
v -4.2 0 0
v -4.057 0 -1.087
v -3.637 0 -2.1
v -2.97 0 -2.97
v -2.1 0 -3.637
v -1.087 0 -4.057
v 0 0 -4.2
v 1.087 0 -4.057
v 2.1 0 -3.637
v 2.97 0 -2.97
v 3.637 0 -2.1
v 4.057 0 -1.087
v 4.8 1.5 0
v 4.636 1.5 1.242
v 4.157 1.5 2.4
v 3.394 1.5 3.394
v 2.4 1.5 4.157
v 1.242 1.5 4.636
v 0 1.5 4.8
v -1.242 1.5 4.636
v -2.4 1.5 4.157
v -3.394 1.5 3.394
v -4.157 1.5 2.4
v -4.636 1.5 1.242
v -4.8 1.5 0
v -4.636 1.5 -1.242
v -4.157 1.5 -2.4
v -3.394 1.5 -3.394
v -2.4 1.5 -4.157
v -1.242 1.5 -4.636
v 0 1.5 -4.8
v 1.242 1.5 -4.636
v 2.4 1.5 -4.157
v 3.394 1.5 -3.394
v 4.157 1.5 -2.4
v 4.636 1.5 -1.242
v 4.5 3 0
v 4.347 3 1.165
v 3.897 3 2.25
v 3.182 3 3.182
v 2.25 3 3.897
v 1.165 3 4.347
v 0 3 4.5
v -1.165 3 4.347
v -2.25 3 3.897
v -3.182 3 3.182
v -3.897 3 2.25
v -4.347 3 1.165
v -4.5 3 0
v -4.347 3 -1.165
v -3.897 3 -2.25
v -3.182 3 -3.182
v -2.25 3 -3.897
v -1.165 3 -4.347
v 0 3 -4.5
v 1.165 3 -4.347
v 2.25 3 -3.897
v 3.182 3 -3.182
v 3.897 3 -2.25
v 4.347 3 -1.165
v 4.8 4.5 0
v 4.636 4.5 1.242
v 4.157 4.5 2.4
v 3.394 4.5 3.394
v 2.4 4.5 4.157
v 1.242 4.5 4.636
v 0 4.5 4.8
v -1.242 4.5 4.636
v -2.4 4.5 4.157
v -3.394 4.5 3.394
v -4.157 4.5 2.4
v -4.636 4.5 1.242
v -4.8 4.5 0
v -4.636 4.5 -1.242
v -4.157 4.5 -2.4
v -3.394 4.5 -3.394
v -2.4 4.5 -4.157
v -1.242 4.5 -4.636
v 0 4.5 -4.8
v 1.242 4.5 -4.636
v 2.4 4.5 -4.157
v 3.394 4.5 -3.394
v 4.157 4.5 -2.4
v 4.636 4.5 -1.242
v 4.5 6 0
v 4.347 6 1.165
v 3.897 6 2.25
v 3.182 6 3.182
v 2.25 6 3.897
v 1.165 6 4.347
v 0 6 4.5
v -1.165 6 4.347
v -2.25 6 3.897
v -3.182 6 3.182
v -3.897 6 2.25
v -4.347 6 1.165
v -4.5 6 0
v -4.347 6 -1.165
v -3.897 6 -2.25
v -3.182 6 -3.182
v -2.25 6 -3.897
v -1.165 6 -4.347
v 0 6 -4.5
v 1.165 6 -4.347
v 2.25 6 -3.897
v 3.182 6 -3.182
v 3.897 6 -2.25
v 4.347 6 -1.165
v 4.8 7.5 0
v 4.636 7.5 1.242
v 4.157 7.5 2.4
v 3.394 7.5 3.394
v 2.4 7.5 4.157
v 1.242 7.5 4.636
v 0 7.5 4.8
v -1.242 7.5 4.636
v -2.4 7.5 4.157
v -3.394 7.5 3.394
v -4.157 7.5 2.4
v -4.636 7.5 1.242
v -4.8 7.5 0
v -4.636 7.5 -1.242
v -4.157 7.5 -2.4
v -3.394 7.5 -3.394
v -2.4 7.5 -4.157
v -1.242 7.5 -4.636
v 0 7.5 -4.8
v 1.242 7.5 -4.636
v 2.4 7.5 -4.157
v 3.394 7.5 -3.394
v 4.157 7.5 -2.4
v 4.636 7.5 -1.242
v 4.5 9 0
v 4.347 9 1.165
v 3.897 9 2.25
v 3.182 9 3.182
v 2.25 9 3.897
v 1.165 9 4.347
v 0 9 4.5
v -1.165 9 4.347
v -2.25 9 3.897
v -3.182 9 3.182
v -3.897 9 2.25
v -4.347 9 1.165
v -4.5 9 0
v -4.347 9 -1.165
v -3.897 9 -2.25
v -3.182 9 -3.182
v -2.25 9 -3.897
v -1.165 9 -4.347
v 0 9 -4.5
v 1.165 9 -4.347
v 2.25 9 -3.897
v 3.182 9 -3.182
v 3.897 9 -2.25
v 4.347 9 -1.165
v 5.2 10 0
v 5.023 10 1.346
v 4.503 10 2.6
v 3.677 10 3.677
v 2.6 10 4.503
v 1.346 10 5.023
v 0 10 5.2
v -1.346 10 5.023
v -2.6 10 4.503
v -3.677 10 3.677
v -4.503 10 2.6
v -5.023 10 1.346
v -5.2 10 0
v -5.023 10 -1.346
v -4.503 10 -2.6
v -3.677 10 -3.677
v -2.6 10 -4.503
v -1.346 10 -5.023
v 0 10 -5.2
v 1.346 10 -5.023
v 2.6 10 -4.503
v 3.677 10 -3.677
v 4.503 10 -2.6
v 5.023 10 -1.346
v 5.2 11.5 0
v 5.023 11.5 1.346
v 4.503 11.5 2.6
v 3.677 11.5 3.677
v 2.6 11.5 4.503
v 1.346 11.5 5.023
v 0 11.5 5.2
v -1.346 11.5 5.023
v -2.6 11.5 4.503
v -3.677 11.5 3.677
v -4.503 11.5 2.6
v -5.023 11.5 1.346
v -5.2 11.5 0
v -5.023 11.5 -1.346
v -4.503 11.5 -2.6
v -3.677 11.5 -3.677
v -2.6 11.5 -4.503
v -1.346 11.5 -5.023
v 0 11.5 -5.2
v 1.346 11.5 -5.023
v 2.6 11.5 -4.503
v 3.677 11.5 -3.677
v 4.503 11.5 -2.6
v 5.023 11.5 -1.346
v 4.6 12.5 0
v 4.443 12.5 1.191
v 3.984 12.5 2.3
v 3.253 12.5 3.253
v 2.3 12.5 3.984
v 1.191 12.5 4.443
v 0 12.5 4.6
v -1.191 12.5 4.443
v -2.3 12.5 3.984
v -3.253 12.5 3.253
v -3.984 12.5 2.3
v -4.443 12.5 1.191
v -4.6 12.5 0
v -4.443 12.5 -1.191
v -3.984 12.5 -2.3
v -3.253 12.5 -3.253
v -2.3 12.5 -3.984
v -1.191 12.5 -4.443
v 0 12.5 -4.6
v 1.191 12.5 -4.443
v 2.3 12.5 -3.984
v 3.253 12.5 -3.253
v 3.984 12.5 -2.3
v 4.443 12.5 -1.191
v 4.6 14 0
v 4.443 14 1.191
v 3.984 14 2.3
v 3.253 14 3.253
v 2.3 14 3.984
v 1.191 14 4.443
v 0 14 4.6
v -1.191 14 4.443
v -2.3 14 3.984
v -3.253 14 3.253
v -3.984 14 2.3
v -4.443 14 1.191
v -4.6 14 0
v -4.443 14 -1.191
v -3.984 14 -2.3
v -3.253 14 -3.253
v -2.3 14 -3.984
v -1.191 14 -4.443
v 0 14 -4.6
v 1.191 14 -4.443
v 2.3 14 -3.984
v 3.253 14 -3.253
v 3.984 14 -2.3
v 4.443 14 -1.191
v 4.6 14 0
v 4.443 14 1.191
v 3.984 14 2.3
v 3.253 14 3.253
v 2.3 14 3.984
v 1.191 14 4.443
v 0 14 4.6
v -1.191 14 4.443
v -2.3 14 3.984
v -3.253 14 3.253
v -3.984 14 2.3
v -4.443 14 1.191
v -4.6 14 0
v -4.443 14 -1.191
v -3.984 14 -2.3
v -3.253 14 -3.253
v -2.3 14 -3.984
v -1.191 14 -4.443
v 0 14 -4.6
v 1.191 14 -4.443
v 2.3 14 -3.984
v 3.253 14 -3.253
v 3.984 14 -2.3
v 4.443 14 -1.191
v 5.4 15.5 0
v 5.216 15.5 1.398
v 4.677 15.5 2.7
v 3.818 15.5 3.818
v 2.7 15.5 4.677
v 1.398 15.5 5.216
v 0 15.5 5.4
v -1.398 15.5 5.216
v -2.7 15.5 4.677
v -3.818 15.5 3.818
v -4.677 15.5 2.7
v -5.216 15.5 1.398
v -5.4 15.5 0
v -5.216 15.5 -1.398
v -4.677 15.5 -2.7
v -3.818 15.5 -3.818
v -2.7 15.5 -4.677
v -1.398 15.5 -5.216
v 0 15.5 -5.4
v 1.398 15.5 -5.216
v 2.7 15.5 -4.677
v 3.818 15.5 -3.818
v 4.677 15.5 -2.7
v 5.216 15.5 -1.398
v 5.6 18 0
v 5.409 18 1.449
v 4.85 18 2.8
v 3.96 18 3.96
v 2.8 18 4.85
v 1.449 18 5.409
v 0 18 5.6
v -1.449 18 5.409
v -2.8 18 4.85
v -3.96 18 3.96
v -4.85 18 2.8
v -5.409 18 1.449
v -5.6 18 0
v -5.409 18 -1.449
v -4.85 18 -2.8
v -3.96 18 -3.96
v -2.8 18 -4.85
v -1.449 18 -5.409
v 0 18 -5.6
v 1.449 18 -5.409
v 2.8 18 -4.85
v 3.96 18 -3.96
v 4.85 18 -2.8
v 5.409 18 -1.449
v 5.6 21 0
v 5.409 21 1.449
v 4.85 21 2.8
v 3.96 21 3.96
v 2.8 21 4.85
v 1.449 21 5.409
v 0 21 5.6
v -1.449 21 5.409
v -2.8 21 4.85
v -3.96 21 3.96
v -4.85 21 2.8
v -5.409 21 1.449
v -5.6 21 0
v -5.409 21 -1.449
v -4.85 21 -2.8
v -3.96 21 -3.96
v -2.8 21 -4.85
v -1.449 21 -5.409
v 0 21 -5.6
v 1.449 21 -5.409
v 2.8 21 -4.85
v 3.96 21 -3.96
v 4.85 21 -2.8
v 5.409 21 -1.449
v 5.4 23.5 0
v 5.216 23.5 1.398
v 4.677 23.5 2.7
v 3.818 23.5 3.818
v 2.7 23.5 4.677
v 1.398 23.5 5.216
v 0 23.5 5.4
v -1.398 23.5 5.216
v -2.7 23.5 4.677
v -3.818 23.5 3.818
v -4.677 23.5 2.7
v -5.216 23.5 1.398
v -5.4 23.5 0
v -5.216 23.5 -1.398
v -4.677 23.5 -2.7
v -3.818 23.5 -3.818
v -2.7 23.5 -4.677
v -1.398 23.5 -5.216
v 0 23.5 -5.4
v 1.398 23.5 -5.216
v 2.7 23.5 -4.677
v 3.818 23.5 -3.818
v 4.677 23.5 -2.7
v 5.216 23.5 -1.398
v 4.8 25 0
v 4.636 25 1.242
v 4.157 25 2.4
v 3.394 25 3.394
v 2.4 25 4.157
v 1.242 25 4.636
v 0 25 4.8
v -1.242 25 4.636
v -2.4 25 4.157
v -3.394 25 3.394
v -4.157 25 2.4
v -4.636 25 1.242
v -4.8 25 0
v -4.636 25 -1.242
v -4.157 25 -2.4
v -3.394 25 -3.394
v -2.4 25 -4.157
v -1.242 25 -4.636
v 0 25 -4.8
v 1.242 25 -4.636
v 2.4 25 -4.157
v 3.394 25 -3.394
v 4.157 25 -2.4
v 4.636 25 -1.242
v -5.8 19.5 1.4
v 5.8 19.5 1.4
v -5.8 20.2 1.212
v 5.8 20.2 1.212
v -5.8 20.712 0.7
v 5.8 20.712 0.7
v -5.8 20.9 0
v 5.8 20.9 0
v -5.8 20.712 -0.7
v 5.8 20.712 -0.7
v -5.8 20.2 -1.212
v 5.8 20.2 -1.212
v -5.8 19.5 -1.4
v 5.8 19.5 -1.4
v -5.8 18.8 -1.212
v 5.8 18.8 -1.212
v -5.8 18.288 -0.7
v 5.8 18.288 -0.7
v -5.8 18.1 0
v 5.8 18.1 0
v -5.8 18.288 0.7
v 5.8 18.288 0.7
v -5.8 18.8 1.212
v 5.8 18.8 1.212
v -5.8 19.5 0
v 5.8 19.5 0
v 4.8 25 0
v 4.636 25 1.242
v 4.157 25 2.4
v 3.394 25 3.394
v 2.4 25 4.157
v 1.242 25 4.636
v 0 25 4.8
v -1.242 25 4.636
v -2.4 25 4.157
v -3.394 25 3.394
v -4.157 25 2.4
v -4.636 25 1.242
v -4.8 25 0
v -4.636 25 -1.242
v -4.157 25 -2.4
v -3.394 25 -3.394
v -2.4 25 -4.157
v -1.242 25 -4.636
v 0 25 -4.8
v 1.242 25 -4.636
v 2.4 25 -4.157
v 3.394 25 -3.394
v 4.157 25 -2.4
v 4.636 25 -1.242
v 5 26.5 0
v 4.83 26.5 1.294
v 4.33 26.5 2.5
v 3.536 26.5 3.536
v 2.5 26.5 4.33
v 1.294 26.5 4.83
v 0 26.5 5
v -1.294 26.5 4.83
v -2.5 26.5 4.33
v -3.536 26.5 3.536
v -4.33 26.5 2.5
v -4.83 26.5 1.294
v -5 26.5 0
v -4.83 26.5 -1.294
v -4.33 26.5 -2.5
v -3.536 26.5 -3.536
v -2.5 26.5 -4.33
v -1.294 26.5 -4.83
v 0 26.5 -5
v 1.294 26.5 -4.83
v 2.5 26.5 -4.33
v 3.536 26.5 -3.536
v 4.33 26.5 -2.5
v 4.83 26.5 -1.294
v 4.7 28 0
v 4.54 28 1.216
v 4.07 28 2.35
v 3.323 28 3.323
v 2.35 28 4.07
v 1.216 28 4.54
v 0 28 4.7
v -1.216 28 4.54
v -2.35 28 4.07
v -3.323 28 3.323
v -4.07 28 2.35
v -4.54 28 1.216
v -4.7 28 0
v -4.54 28 -1.216
v -4.07 28 -2.35
v -3.323 28 -3.323
v -2.35 28 -4.07
v -1.216 28 -4.54
v 0 28 -4.7
v 1.216 28 -4.54
v 2.35 28 -4.07
v 3.323 28 -3.323
v 4.07 28 -2.35
v 4.54 28 -1.216
v 4.9 29.5 0
v 4.733 29.5 1.268
v 4.244 29.5 2.45
v 3.465 29.5 3.465
v 2.45 29.5 4.244
v 1.268 29.5 4.733
v 0 29.5 4.9
v -1.268 29.5 4.733
v -2.45 29.5 4.244
v -3.465 29.5 3.465
v -4.244 29.5 2.45
v -4.733 29.5 1.268
v -4.9 29.5 0
v -4.733 29.5 -1.268
v -4.244 29.5 -2.45
v -3.465 29.5 -3.465
v -2.45 29.5 -4.244
v -1.268 29.5 -4.733
v 0 29.5 -4.9
v 1.268 29.5 -4.733
v 2.45 29.5 -4.244
v 3.465 29.5 -3.465
v 4.244 29.5 -2.45
v 4.733 29.5 -1.268
v 4.6 31 0
v 4.443 31 1.191
v 3.984 31 2.3
v 3.253 31 3.253
v 2.3 31 3.984
v 1.191 31 4.443
v 0 31 4.6
v -1.191 31 4.443
v -2.3 31 3.984
v -3.253 31 3.253
v -3.984 31 2.3
v -4.443 31 1.191
v -4.6 31 0
v -4.443 31 -1.191
v -3.984 31 -2.3
v -3.253 31 -3.253
v -2.3 31 -3.984
v -1.191 31 -4.443
v 0 31 -4.6
v 1.191 31 -4.443
v 2.3 31 -3.984
v 3.253 31 -3.253
v 3.984 31 -2.3
v 4.443 31 -1.191
v 4.8 32.5 0
v 4.636 32.5 1.242
v 4.157 32.5 2.4
v 3.394 32.5 3.394
v 2.4 32.5 4.157
v 1.242 32.5 4.636
v 0 32.5 4.8
v -1.242 32.5 4.636
v -2.4 32.5 4.157
v -3.394 32.5 3.394
v -4.157 32.5 2.4
v -4.636 32.5 1.242
v -4.8 32.5 0
v -4.636 32.5 -1.242
v -4.157 32.5 -2.4
v -3.394 32.5 -3.394
v -2.4 32.5 -4.157
v -1.242 32.5 -4.636
v 0 32.5 -4.8
v 1.242 32.5 -4.636
v 2.4 32.5 -4.157
v 3.394 32.5 -3.394
v 4.157 32.5 -2.4
v 4.636 32.5 -1.242
v 4.5 34 0
v 4.347 34 1.165
v 3.897 34 2.25
v 3.182 34 3.182
v 2.25 34 3.897
v 1.165 34 4.347
v 0 34 4.5
v -1.165 34 4.347
v -2.25 34 3.897
v -3.182 34 3.182
v -3.897 34 2.25
v -4.347 34 1.165
v -4.5 34 0
v -4.347 34 -1.165
v -3.897 34 -2.25
v -3.182 34 -3.182
v -2.25 34 -3.897
v -1.165 34 -4.347
v 0 34 -4.5
v 1.165 34 -4.347
v 2.25 34 -3.897
v 3.182 34 -3.182
v 3.897 34 -2.25
v 4.347 34 -1.165
v 4.6 36 0
v 4.443 36 1.191
v 3.984 36 2.3
v 3.253 36 3.253
v 2.3 36 3.984
v 1.191 36 4.443
v 0 36 4.6
v -1.191 36 4.443
v -2.3 36 3.984
v -3.253 36 3.253
v -3.984 36 2.3
v -4.443 36 1.191
v -4.6 36 0
v -4.443 36 -1.191
v -3.984 36 -2.3
v -3.253 36 -3.253
v -2.3 36 -3.984
v -1.191 36 -4.443
v 0 36 -4.6
v 1.191 36 -4.443
v 2.3 36 -3.984
v 3.253 36 -3.253
v 3.984 36 -2.3
v 4.443 36 -1.191
v 4.6 36 0
v 4.443 36 1.191
v 3.984 36 2.3
v 3.253 36 3.253
v 2.3 36 3.984
v 1.191 36 4.443
v 0 36 4.6
v -1.191 36 4.443
v -2.3 36 3.984
v -3.253 36 3.253
v -3.984 36 2.3
v -4.443 36 1.191
v -4.6 36 0
v -4.443 36 -1.191
v -3.984 36 -2.3
v -3.253 36 -3.253
v -2.3 36 -3.984
v -1.191 36 -4.443
v 0 36 -4.6
v 1.191 36 -4.443
v 2.3 36 -3.984
v 3.253 36 -3.253
v 3.984 36 -2.3
v 4.443 36 -1.191
v 4.5 45 0
v 4.347 45 1.165
v 3.897 45 2.25
v 3.182 45 3.182
v 2.25 45 3.897
v 1.165 45 4.347
v 0 45 4.5
v -1.165 45 4.347
v -2.25 45 3.897
v -3.182 45 3.182
v -3.897 45 2.25
v -4.347 45 1.165
v -4.5 45 0
v -4.347 45 -1.165
v -3.897 45 -2.25
v -3.182 45 -3.182
v -2.25 45 -3.897
v -1.165 45 -4.347
v 0 45 -4.5
v 1.165 45 -4.347
v 2.25 45 -3.897
v 3.182 45 -3.182
v 3.897 45 -2.25
v 4.347 45 -1.165
v 4.4 60 0
v 4.25 60 1.139
v 3.811 60 2.2
v 3.111 60 3.111
v 2.2 60 3.811
v 1.139 60 4.25
v 0 60 4.4
v -1.139 60 4.25
v -2.2 60 3.811
v -3.111 60 3.111
v -3.811 60 2.2
v -4.25 60 1.139
v -4.4 60 0
v -4.25 60 -1.139
v -3.811 60 -2.2
v -3.111 60 -3.111
v -2.2 60 -3.811
v -1.139 60 -4.25
v 0 60 -4.4
v 1.139 60 -4.25
v 2.2 60 -3.811
v 3.111 60 -3.111
v 3.811 60 -2.2
v 4.25 60 -1.139
v 4.3 80 0
v 4.153 80 1.113
v 3.724 80 2.15
v 3.041 80 3.041
v 2.15 80 3.724
v 1.113 80 4.153
v 0 80 4.3
v -1.113 80 4.153
v -2.15 80 3.724
v -3.041 80 3.041
v -3.724 80 2.15
v -4.153 80 1.113
v -4.3 80 0
v -4.153 80 -1.113
v -3.724 80 -2.15
v -3.041 80 -3.041
v -2.15 80 -3.724
v -1.113 80 -4.153
v 0 80 -4.3
v 1.113 80 -4.153
v 2.15 80 -3.724
v 3.041 80 -3.041
v 3.724 80 -2.15
v 4.153 80 -1.113
v 4.2 105 0
v 4.057 105 1.087
v 3.637 105 2.1
v 2.97 105 2.97
v 2.1 105 3.637
v 1.087 105 4.057
v 0 105 4.2
v -1.087 105 4.057
v -2.1 105 3.637
v -2.97 105 2.97
v -3.637 105 2.1
v -4.057 105 1.087
v -4.2 105 0
v -4.057 105 -1.087
v -3.637 105 -2.1
v -2.97 105 -2.97
v -2.1 105 -3.637
v -1.087 105 -4.057
v 0 105 -4.2
v 1.087 105 -4.057
v 2.1 105 -3.637
v 2.97 105 -2.97
v 3.637 105 -2.1
v 4.057 105 -1.087
v 4.1 130 0
v 3.96 130 1.061
v 3.551 130 2.05
v 2.899 130 2.899
v 2.05 130 3.551
v 1.061 130 3.96
v 0 130 4.1
v -1.061 130 3.96
v -2.05 130 3.551
v -2.899 130 2.899
v -3.551 130 2.05
v -3.96 130 1.061
v -4.1 130 0
v -3.96 130 -1.061
v -3.551 130 -2.05
v -2.899 130 -2.899
v -2.05 130 -3.551
v -1.061 130 -3.96
v 0 130 -4.1
v 1.061 130 -3.96
v 2.05 130 -3.551
v 2.899 130 -2.899
v 3.551 130 -2.05
v 3.96 130 -1.061
v 4 145 0
v 3.864 145 1.035
v 3.464 145 2
v 2.828 145 2.828
v 2 145 3.464
v 1.035 145 3.864
v 0 145 4
v -1.035 145 3.864
v -2 145 3.464
v -2.828 145 2.828
v -3.464 145 2
v -3.864 145 1.035
v -4 145 0
v -3.864 145 -1.035
v -3.464 145 -2
v -2.828 145 -2.828
v -2 145 -3.464
v -1.035 145 -3.864
v 0 145 -4
v 1.035 145 -3.864
v 2 145 -3.464
v 2.828 145 -2.828
v 3.464 145 -2
v 3.864 145 -1.035
v 3.8 149 0
v 3.671 149 0.984
v 3.291 149 1.9
v 2.687 149 2.687
v 1.9 149 3.291
v 0.984 149 3.671
v 0 149 3.8
v -0.984 149 3.671
v -1.9 149 3.291
v -2.687 149 2.687
v -3.291 149 1.9
v -3.671 149 0.984
v -3.8 149 0
v -3.671 149 -0.984
v -3.291 149 -1.9
v -2.687 149 -2.687
v -1.9 149 -3.291
v -0.984 149 -3.671
v 0 149 -3.8
v 0.984 149 -3.671
v 1.9 149 -3.291
v 2.687 149 -2.687
v 3.291 149 -1.9
v 3.671 149 -0.984
v 3.5 151 0
v 3.381 151 0.906
v 3.031 151 1.75
v 2.475 151 2.475
v 1.75 151 3.031
v 0.906 151 3.381
v 0 151 3.5
v -0.906 151 3.381
v -1.75 151 3.031
v -2.475 151 2.475
v -3.031 151 1.75
v -3.381 151 0.906
v -3.5 151 0
v -3.381 151 -0.906
v -3.031 151 -1.75
v -2.475 151 -2.475
v -1.75 151 -3.031
v -0.906 151 -3.381
v 0 151 -3.5
v 0.906 151 -3.381
v 1.75 151 -3.031
v 2.475 151 -2.475
v 3.031 151 -1.75
v 3.381 151 -0.906
v 3 152.5 0
v 2.898 152.5 0.776
v 2.598 152.5 1.5
v 2.121 152.5 2.121
v 1.5 152.5 2.598
v 0.776 152.5 2.898
v 0 152.5 3
v -0.776 152.5 2.898
v -1.5 152.5 2.598
v -2.121 152.5 2.121
v -2.598 152.5 1.5
v -2.898 152.5 0.776
v -3 152.5 0
v -2.898 152.5 -0.776
v -2.598 152.5 -1.5
v -2.121 152.5 -2.121
v -1.5 152.5 -2.598
v -0.776 152.5 -2.898
v 0 152.5 -3
v 0.776 152.5 -2.898
v 1.5 152.5 -2.598
v 2.121 152.5 -2.121
v 2.598 152.5 -1.5
v 2.898 152.5 -0.776
v 2.2 153.8 0
v 2.125 153.8 0.569
v 1.905 153.8 1.1
v 1.556 153.8 1.556
v 1.1 153.8 1.905
v 0.569 153.8 2.125
v 0 153.8 2.2
v -0.569 153.8 2.125
v -1.1 153.8 1.905
v -1.556 153.8 1.556
v -1.905 153.8 1.1
v -2.125 153.8 0.569
v -2.2 153.8 0
v -2.125 153.8 -0.569
v -1.905 153.8 -1.1
v -1.556 153.8 -1.556
v -1.1 153.8 -1.905
v -0.569 153.8 -2.125
v 0 153.8 -2.2
v 0.569 153.8 -2.125
v 1.1 153.8 -1.905
v 1.556 153.8 -1.556
v 1.905 153.8 -1.1
v 2.125 153.8 -0.569
v 1.2 154.6 0
v 1.159 154.6 0.311
v 1.039 154.6 0.6
v 0.849 154.6 0.849
v 0.6 154.6 1.039
v 0.311 154.6 1.159
v 0 154.6 1.2
v -0.311 154.6 1.159
v -0.6 154.6 1.039
v -0.849 154.6 0.849
v -1.039 154.6 0.6
v -1.159 154.6 0.311
v -1.2 154.6 0
v -1.159 154.6 -0.311
v -1.039 154.6 -0.6
v -0.849 154.6 -0.849
v -0.6 154.6 -1.039
v -0.311 154.6 -1.159
v 0 154.6 -1.2
v 0.311 154.6 -1.159
v 0.6 154.6 -1.039
v 0.849 154.6 -0.849
v 1.039 154.6 -0.6
v 1.159 154.6 -0.311
v 0.1 155 0
v 0.097 155 0.026
v 0.087 155 0.05
v 0.071 155 0.071
v 0.05 155 0.087
v 0.026 155 0.097
v 0 155 0.1
v -0.026 155 0.097
v -0.05 155 0.087
v -0.071 155 0.071
v -0.087 155 0.05
v -0.097 155 0.026
v -0.1 155 0
v -0.097 155 -0.026
v -0.087 155 -0.05
v -0.071 155 -0.071
v -0.05 155 -0.087
v -0.026 155 -0.097
v 0 155 -0.1
v 0.026 155 -0.097
v 0.05 155 -0.087
v 0.071 155 -0.071
v 0.087 155 -0.05
v 0.097 155 -0.026
v 0 155 0
v 0.1 155 0
v 0.097 155 0.026
v 0.087 155 0.05
v 0.071 155 0.071
v 0.05 155 0.087
v 0.026 155 0.097
v 0 155 0.1
v -0.026 155 0.097
v -0.05 155 0.087
v -0.071 155 0.071
v -0.087 155 0.05
v -0.097 155 0.026
v -0.1 155 0
v -0.097 155 -0.026
v -0.087 155 -0.05
v -0.071 155 -0.071
v -0.05 155 -0.087
v -0.026 155 -0.097
v 0 155 -0.1
v 0.026 155 -0.097
v 0.05 155 -0.087
v 0.071 155 -0.071
v 0.087 155 -0.05
v 0.097 155 -0.026
vn 0 -1 0
vn 0 -1 0
vn 0 -1 0
vn 0 -1 0
vn 0 -1 0
vn 0 -1 0
vn 0 -1 0
vn 0 -1 0
vn 0 -1 0
vn 0 -1 0
vn 0 -1 0
vn 0 -1 0
vn 0 -1 0
vn 0 -1 0
vn 0 -1 0
vn 0 -1 0
vn 0 -1 0
vn 0 -1 0
vn 0 -1 0
vn 0 -1 0
vn 0 -1 0
vn 0 -1 0
vn 0 -1 0
vn 0 -1 0
vn 0 -1 0
vn 0.7557 -0.6549 0
vn 0.7299 -0.6549 0.1956
vn 0.6544 -0.6549 0.3778
vn 0.5344 -0.6549 0.5344
vn 0.3778 -0.6549 0.6544
vn 0.1956 -0.6549 0.7299
vn 0 -0.6549 0.7557
vn -0.1956 -0.6549 0.7299
vn -0.3778 -0.6549 0.6544
vn -0.5344 -0.6549 0.5344
vn -0.6544 -0.6549 0.3778
vn -0.7299 -0.6549 0.1956
vn -0.7557 -0.6549 0
vn -0.7299 -0.6549 -0.1956
vn -0.6544 -0.6549 -0.3778
vn -0.5344 -0.6549 -0.5344
vn -0.3778 -0.6549 -0.6544
vn -0.1956 -0.6549 -0.7299
vn 0 -0.6549 -0.7557
vn 0.1956 -0.6549 -0.7299
vn 0.3778 -0.6549 -0.6544
vn 0.5344 -0.6549 -0.5344
vn 0.6544 -0.6549 -0.3778
vn 0.7299 -0.6549 -0.1956
vn 0.995 -0.0995 0
vn 0.9611 -0.0995 0.2575
vn 0.8617 -0.0995 0.4975
vn 0.7036 -0.0995 0.7036
vn 0.4975 -0.0995 0.8617
vn 0.2575 -0.0995 0.9611
vn 0 -0.0995 0.995
vn -0.2575 -0.0995 0.9611
vn -0.4975 -0.0995 0.8617
vn -0.7036 -0.0995 0.7036
vn -0.8617 -0.0995 0.4975
vn -0.9611 -0.0995 0.2575
vn -0.995 -0.0995 0
vn -0.9611 -0.0995 -0.2575
vn -0.8617 -0.0995 -0.4975
vn -0.7036 -0.0995 -0.7036
vn -0.4975 -0.0995 -0.8617
vn -0.2575 -0.0995 -0.9611
vn 0 -0.0995 -0.995
vn 0.2575 -0.0995 -0.9611
vn 0.4975 -0.0995 -0.8617
vn 0.7036 -0.0995 -0.7036
vn 0.8617 -0.0995 -0.4975
vn 0.9611 -0.0995 -0.2575
vn 1 0 0
vn 0.9659 0 0.2588
vn 0.866 0 0.5
vn 0.7071 0 0.7071
vn 0.5 0 0.866
vn 0.2588 0 0.9659
vn 0 0 1
vn -0.2588 0 0.9659
vn -0.5 0 0.866
vn -0.7071 0 0.7071
vn -0.866 0 0.5
vn -0.9659 0 0.2588
vn -1 0 0
vn -0.9659 0 -0.2588
vn -0.866 0 -0.5
vn -0.7071 0 -0.7071
vn -0.5 0 -0.866
vn -0.2588 0 -0.9659
vn 0 0 -1
vn 0.2588 0 -0.9659
vn 0.5 0 -0.866
vn 0.7071 0 -0.7071
vn 0.866 0 -0.5
vn 0.9659 0 -0.2588
vn 1 0 0
vn 0.9659 0 0.2588
vn 0.866 0 0.5
vn 0.7071 0 0.7071
vn 0.5 0 0.866
vn 0.2588 0 0.9659
vn 0 0 1
vn -0.2588 0 0.9659
vn -0.5 0 0.866
vn -0.7071 0 0.7071
vn -0.866 0 0.5
vn -0.9659 0 0.2588
vn -1 0 0
vn -0.9659 0 -0.2588
vn -0.866 0 -0.5
vn -0.7071 0 -0.7071
vn -0.5 0 -0.866
vn -0.2588 0 -0.9659
vn 0 0 -1
vn 0.2588 0 -0.9659
vn 0.5 0 -0.866
vn 0.7071 0 -0.7071
vn 0.866 0 -0.5
vn 0.9659 0 -0.2588
vn 1 0 0
vn 0.9659 0 0.2588
vn 0.866 0 0.5
vn 0.7071 0 0.7071
vn 0.5 0 0.866
vn 0.2588 0 0.9659
vn 0 0 1
vn -0.2588 0 0.9659
vn -0.5 0 0.866
vn -0.7071 0 0.7071
vn -0.866 0 0.5
vn -0.9659 0 0.2588
vn -1 0 0
vn -0.9659 0 -0.2588
vn -0.866 0 -0.5
vn -0.7071 0 -0.7071
vn -0.5 0 -0.866
vn -0.2588 0 -0.9659
vn 0 0 -1
vn 0.2588 0 -0.9659
vn 0.5 0 -0.866
vn 0.7071 0 -0.7071
vn 0.866 0 -0.5
vn 0.9659 0 -0.2588
vn 1 0 0
vn 0.9659 0 0.2588
vn 0.866 0 0.5
vn 0.7071 0 0.7071
vn 0.5 0 0.866
vn 0.2588 0 0.9659
vn 0 0 1
vn -0.2588 0 0.9659
vn -0.5 0 0.866
vn -0.7071 0 0.7071
vn -0.866 0 0.5
vn -0.9659 0 0.2588
vn -1 0 0
vn -0.9659 0 -0.2588
vn -0.866 0 -0.5
vn -0.7071 0 -0.7071
vn -0.5 0 -0.866
vn -0.2588 0 -0.9659
vn 0 0 -1
vn 0.2588 0 -0.9659
vn 0.5 0 -0.866
vn 0.7071 0 -0.7071
vn 0.866 0 -0.5
vn 0.9659 0 -0.2588
vn 0.9874 -0.158 0
vn 0.9538 -0.158 0.2556
vn 0.8551 -0.158 0.4937
vn 0.6982 -0.158 0.6982
vn 0.4937 -0.158 0.8551
vn 0.2556 -0.158 0.9538
vn 0 -0.158 0.9874
vn -0.2556 -0.158 0.9538
vn -0.4937 -0.158 0.8551
vn -0.6982 -0.158 0.6982
vn -0.8551 -0.158 0.4937
vn -0.9538 -0.158 0.2556
vn -0.9874 -0.158 0
vn -0.9538 -0.158 -0.2556
vn -0.8551 -0.158 -0.4937
vn -0.6982 -0.158 -0.6982
vn -0.4937 -0.158 -0.8551
vn -0.2556 -0.158 -0.9538
vn 0 -0.158 -0.9874
vn 0.2556 -0.158 -0.9538
vn 0.4937 -0.158 -0.8551
vn 0.6982 -0.158 -0.6982
vn 0.8551 -0.158 -0.4937
vn 0.9538 -0.158 -0.2556
vn 0.963 -0.2696 0
vn 0.9302 -0.2696 0.2492
vn 0.834 -0.2696 0.4815
vn 0.6809 -0.2696 0.6809
vn 0.4815 -0.2696 0.834
vn 0.2492 -0.2696 0.9302
vn 0 -0.2696 0.963
vn -0.2492 -0.2696 0.9302
vn -0.4815 -0.2696 0.834
vn -0.6809 -0.2696 0.6809
vn -0.834 -0.2696 0.4815
vn -0.9302 -0.2696 0.2492
vn -0.963 -0.2696 0
vn -0.9302 -0.2696 -0.2492
vn -0.834 -0.2696 -0.4815
vn -0.6809 -0.2696 -0.6809
vn -0.4815 -0.2696 -0.834
vn -0.2492 -0.2696 -0.9302
vn 0 -0.2696 -0.963
vn 0.2492 -0.2696 -0.9302
vn 0.4815 -0.2696 -0.834
vn 0.6809 -0.2696 -0.6809
vn 0.834 -0.2696 -0.4815
vn 0.9302 -0.2696 -0.2492
vn 0.9724 0.2334 0
vn 0.9393 0.2334 0.2517
vn 0.8421 0.2334 0.4862
vn 0.6876 0.2334 0.6876
vn 0.4862 0.2334 0.8421
vn 0.2517 0.2334 0.9393
vn 0 0.2334 0.9724
vn -0.2517 0.2334 0.9393
vn -0.4862 0.2334 0.8421
vn -0.6876 0.2334 0.6876
vn -0.8421 0.2334 0.4862
vn -0.9393 0.2334 0.2517
vn -0.9724 0.2334 0
vn -0.9393 0.2334 -0.2517
vn -0.8421 0.2334 -0.4862
vn -0.6876 0.2334 -0.6876
vn -0.4862 0.2334 -0.8421
vn -0.2517 0.2334 -0.9393
vn 0 0.2334 -0.9724
vn 0.2517 0.2334 -0.9393
vn 0.4862 0.2334 -0.8421
vn 0.6876 0.2334 -0.6876
vn 0.8421 0.2334 -0.4862
vn 0.9393 0.2334 -0.2517
vn 0.9724 0.2334 0
vn 0.9393 0.2334 0.2517
vn 0.8421 0.2334 0.4862
vn 0.6876 0.2334 0.6876
vn 0.4862 0.2334 0.8421
vn 0.2517 0.2334 0.9393
vn 0 0.2334 0.9724
vn -0.2517 0.2334 0.9393
vn -0.4862 0.2334 0.8421
vn -0.6876 0.2334 0.6876
vn -0.8421 0.2334 0.4862
vn -0.9393 0.2334 0.2517
vn -0.9724 0.2334 0
vn -0.9393 0.2334 -0.2517
vn -0.8421 0.2334 -0.4862
vn -0.6876 0.2334 -0.6876
vn -0.4862 0.2334 -0.8421
vn -0.2517 0.2334 -0.9393
vn 0 0.2334 -0.9724
vn 0.2517 0.2334 -0.9393
vn 0.4862 0.2334 -0.8421
vn 0.6876 0.2334 -0.6876
vn 0.8421 0.2334 -0.4862
vn 0.9393 0.2334 -0.2517
vn 1 0 0
vn 0.9659 0 0.2588
vn 0.866 0 0.5
vn 0.7071 0 0.7071
vn 0.5 0 0.866
vn 0.2588 0 0.9659
vn 0 0 1
vn -0.2588 0 0.9659
vn -0.5 0 0.866
vn -0.7071 0 0.7071
vn -0.866 0 0.5
vn -0.9659 0 0.2588
vn -1 0 0
vn -0.9659 0 -0.2588
vn -0.866 0 -0.5
vn -0.7071 0 -0.7071
vn -0.5 0 -0.866
vn -0.2588 0 -0.9659
vn 0 0 -1
vn 0.2588 0 -0.9659
vn 0.5 0 -0.866
vn 0.7071 0 -0.7071
vn 0.866 0 -0.5
vn 0.9659 0 -0.2588
vn 0.8824 -0.4706 0
vn 0.8523 -0.4706 0.2284
vn 0.7641 -0.4706 0.4412
vn 0.6239 -0.4706 0.6239
vn 0.4412 -0.4706 0.7641
vn 0.2284 -0.4706 0.8523
vn 0 -0.4706 0.8824
vn -0.2284 -0.4706 0.8523
vn -0.4412 -0.4706 0.7641
vn -0.6239 -0.4706 0.6239
vn -0.7641 -0.4706 0.4412
vn -0.8523 -0.4706 0.2284
vn -0.8824 -0.4706 0
vn -0.8523 -0.4706 -0.2284
vn -0.7641 -0.4706 -0.4412
vn -0.6239 -0.4706 -0.6239
vn -0.4412 -0.4706 -0.7641
vn -0.2284 -0.4706 -0.8523
vn 0 -0.4706 -0.8824
vn 0.2284 -0.4706 -0.8523
vn 0.4412 -0.4706 -0.7641
vn 0.6239 -0.4706 -0.6239
vn 0.7641 -0.4706 -0.4412
vn 0.8523 -0.4706 -0.2284
vn 0.9701 -0.2425 0
vn 0.9371 -0.2425 0.2511
vn 0.8402 -0.2425 0.4851
vn 0.686 -0.2425 0.686
vn 0.4851 -0.2425 0.8402
vn 0.2511 -0.2425 0.9371
vn 0 -0.2425 0.9701
vn -0.2511 -0.2425 0.9371
vn -0.4851 -0.2425 0.8402
vn -0.686 -0.2425 0.686
vn -0.8402 -0.2425 0.4851
vn -0.9371 -0.2425 0.2511
vn -0.9701 -0.2425 0
vn -0.9371 -0.2425 -0.2511
vn -0.8402 -0.2425 -0.4851
vn -0.686 -0.2425 -0.686
vn -0.4851 -0.2425 -0.8402
vn -0.2511 -0.2425 -0.9371
vn 0 -0.2425 -0.9701
vn 0.2511 -0.2425 -0.9371
vn 0.4851 -0.2425 -0.8402
vn 0.686 -0.2425 -0.686
vn 0.8402 -0.2425 -0.4851
vn 0.9371 -0.2425 -0.2511
vn 0.9993 -0.0363 0
vn 0.9653 -0.0363 0.2586
vn 0.8655 -0.0363 0.4997
vn 0.7066 -0.0363 0.7066
vn 0.4997 -0.0363 0.8655
vn 0.2586 -0.0363 0.9653
vn 0 -0.0363 0.9993
vn -0.2586 -0.0363 0.9653
vn -0.4997 -0.0363 0.8655
vn -0.7066 -0.0363 0.7066
vn -0.8655 -0.0363 0.4997
vn -0.9653 -0.0363 0.2586
vn -0.9993 -0.0363 0
vn -0.9653 -0.0363 -0.2586
vn -0.8655 -0.0363 -0.4997
vn -0.7066 -0.0363 -0.7066
vn -0.4997 -0.0363 -0.8655
vn -0.2586 -0.0363 -0.9653
vn 0 -0.0363 -0.9993
vn 0.2586 -0.0363 -0.9653
vn 0.4997 -0.0363 -0.8655
vn 0.7066 -0.0363 -0.7066
vn 0.8655 -0.0363 -0.4997
vn 0.9653 -0.0363 -0.2586
vn 0.9993 0.0363 0
vn 0.9653 0.0363 0.2586
vn 0.8655 0.0363 0.4997
vn 0.7066 0.0363 0.7066
vn 0.4997 0.0363 0.8655
vn 0.2586 0.0363 0.9653
vn 0 0.0363 0.9993
vn -0.2586 0.0363 0.9653
vn -0.4997 0.0363 0.8655
vn -0.7066 0.0363 0.7066
vn -0.8655 0.0363 0.4997
vn -0.9653 0.0363 0.2586
vn -0.9993 0.0363 0
vn -0.9653 0.0363 -0.2586
vn -0.8655 0.0363 -0.4997
vn -0.7066 0.0363 -0.7066
vn -0.4997 0.0363 -0.8655
vn -0.2586 0.0363 -0.9653
vn 0 0.0363 -0.9993
vn 0.2586 0.0363 -0.9653
vn 0.4997 0.0363 -0.8655
vn 0.7066 0.0363 -0.7066
vn 0.8655 0.0363 -0.4997
vn 0.9653 0.0363 -0.2586
vn 0.9806 0.1961 0
vn 0.9472 0.1961 0.2538
vn 0.8492 0.1961 0.4903
vn 0.6934 0.1961 0.6934
vn 0.4903 0.1961 0.8492
vn 0.2538 0.1961 0.9472
vn 0 0.1961 0.9806
vn -0.2538 0.1961 0.9472
vn -0.4903 0.1961 0.8492
vn -0.6934 0.1961 0.6934
vn -0.8492 0.1961 0.4903
vn -0.9472 0.1961 0.2538
vn -0.9806 0.1961 0
vn -0.9472 0.1961 -0.2538
vn -0.8492 0.1961 -0.4903
vn -0.6934 0.1961 -0.6934
vn -0.4903 0.1961 -0.8492
vn -0.2538 0.1961 -0.9472
vn 0 0.1961 -0.9806
vn 0.2538 0.1961 -0.9472
vn 0.4903 0.1961 -0.8492
vn 0.6934 0.1961 -0.6934
vn 0.8492 0.1961 -0.4903
vn 0.9472 0.1961 -0.2538
vn 0.9285 0.3714 0
vn 0.8968 0.3714 0.2403
vn 0.8041 0.3714 0.4642
vn 0.6565 0.3714 0.6565
vn 0.4642 0.3714 0.8041
vn 0.2403 0.3714 0.8968
vn 0 0.3714 0.9285
vn -0.2403 0.3714 0.8968
vn -0.4642 0.3714 0.8041
vn -0.6565 0.3714 0.6565
vn -0.8041 0.3714 0.4642
vn -0.8968 0.3714 0.2403
vn -0.9285 0.3714 0
vn -0.8968 0.3714 -0.2403
vn -0.8041 0.3714 -0.4642
vn -0.6565 0.3714 -0.6565
vn -0.4642 0.3714 -0.8041
vn -0.2403 0.3714 -0.8968
vn 0 0.3714 -0.9285
vn 0.2403 0.3714 -0.8968
vn 0.4642 0.3714 -0.8041
vn 0.6565 0.3714 -0.6565
vn 0.8041 0.3714 -0.4642
vn 0.8968 0.3714 -0.2403
vn -1 0 0
vn 1 0 0
vn 0 0.2588 0.9659
vn 0 0.7071 0.7071
vn 0 0.9659 0.2588
vn 0 0.9659 -0.2588
vn 0 0.7071 -0.7071
vn 0 0.2588 -0.9659
vn 0 -0.2588 -0.9659
vn 0 -0.7071 -0.7071
vn 0 -0.9659 -0.2588
vn 0 -0.9659 0.2588
vn 0 -0.7071 0.7071
vn 0 -0.2588 0.9659
vn 0.9912 -0.1322 0
vn 0.9575 -0.1322 0.2565
vn 0.8584 -0.1322 0.4956
vn 0.7009 -0.1322 0.7009
vn 0.4956 -0.1322 0.8584
vn 0.2565 -0.1322 0.9575
vn 0 -0.1322 0.9912
vn -0.2565 -0.1322 0.9575
vn -0.4956 -0.1322 0.8584
vn -0.7009 -0.1322 0.7009
vn -0.8584 -0.1322 0.4956
vn -0.9575 -0.1322 0.2565
vn -0.9912 -0.1322 0
vn -0.9575 -0.1322 -0.2565
vn -0.8584 -0.1322 -0.4956
vn -0.7009 -0.1322 -0.7009
vn -0.4956 -0.1322 -0.8584
vn -0.2565 -0.1322 -0.9575
vn 0 -0.1322 -0.9912
vn 0.2565 -0.1322 -0.9575
vn 0.4956 -0.1322 -0.8584
vn 0.7009 -0.1322 -0.7009
vn 0.8584 -0.1322 -0.4956
vn 0.9575 -0.1322 -0.2565
vn 0.9994 0.0333 0
vn 0.9654 0.0333 0.2587
vn 0.8655 0.0333 0.4997
vn 0.7067 0.0333 0.7067
vn 0.4997 0.0333 0.8655
vn 0.2587 0.0333 0.9654
vn 0 0.0333 0.9994
vn -0.2587 0.0333 0.9654
vn -0.4997 0.0333 0.8655
vn -0.7067 0.0333 0.7067
vn -0.8655 0.0333 0.4997
vn -0.9654 0.0333 0.2587
vn -0.9994 0.0333 0
vn -0.9654 0.0333 -0.2587
vn -0.8655 0.0333 -0.4997
vn -0.7067 0.0333 -0.7067
vn -0.4997 0.0333 -0.8655
vn -0.2587 0.0333 -0.9654
vn 0 0.0333 -0.9994
vn 0.2587 0.0333 -0.9654
vn 0.4997 0.0333 -0.8655
vn 0.7067 0.0333 -0.7067
vn 0.8655 0.0333 -0.4997
vn 0.9654 0.0333 -0.2587
vn 0.9994 0.0333 0
vn 0.9654 0.0333 0.2587
vn 0.8655 0.0333 0.4997
vn 0.7067 0.0333 0.7067
vn 0.4997 0.0333 0.8655
vn 0.2587 0.0333 0.9654
vn 0 0.0333 0.9994
vn -0.2587 0.0333 0.9654
vn -0.4997 0.0333 0.8655
vn -0.7067 0.0333 0.7067
vn -0.8655 0.0333 0.4997
vn -0.9654 0.0333 0.2587
vn -0.9994 0.0333 0
vn -0.9654 0.0333 -0.2587
vn -0.8655 0.0333 -0.4997
vn -0.7067 0.0333 -0.7067
vn -0.4997 0.0333 -0.8655
vn -0.2587 0.0333 -0.9654
vn 0 0.0333 -0.9994
vn 0.2587 0.0333 -0.9654
vn 0.4997 0.0333 -0.8655
vn 0.7067 0.0333 -0.7067
vn 0.8655 0.0333 -0.4997
vn 0.9654 0.0333 -0.2587
vn 0.9994 0.0333 0
vn 0.9654 0.0333 0.2587
vn 0.8655 0.0333 0.4997
vn 0.7067 0.0333 0.7067
vn 0.4997 0.0333 0.8655
vn 0.2587 0.0333 0.9654
vn 0 0.0333 0.9994
vn -0.2587 0.0333 0.9654
vn -0.4997 0.0333 0.8655
vn -0.7067 0.0333 0.7067
vn -0.8655 0.0333 0.4997
vn -0.9654 0.0333 0.2587
vn -0.9994 0.0333 0
vn -0.9654 0.0333 -0.2587
vn -0.8655 0.0333 -0.4997
vn -0.7067 0.0333 -0.7067
vn -0.4997 0.0333 -0.8655
vn -0.2587 0.0333 -0.9654
vn 0 0.0333 -0.9994
vn 0.2587 0.0333 -0.9654
vn 0.4997 0.0333 -0.8655
vn 0.7067 0.0333 -0.7067
vn 0.8655 0.0333 -0.4997
vn 0.9654 0.0333 -0.2587
vn 0.9994 0.0333 0
vn 0.9654 0.0333 0.2587
vn 0.8655 0.0333 0.4997
vn 0.7067 0.0333 0.7067
vn 0.4997 0.0333 0.8655
vn 0.2587 0.0333 0.9654
vn 0 0.0333 0.9994
vn -0.2587 0.0333 0.9654
vn -0.4997 0.0333 0.8655
vn -0.7067 0.0333 0.7067
vn -0.8655 0.0333 0.4997
vn -0.9654 0.0333 0.2587
vn -0.9994 0.0333 0
vn -0.9654 0.0333 -0.2587
vn -0.8655 0.0333 -0.4997
vn -0.7067 0.0333 -0.7067
vn -0.4997 0.0333 -0.8655
vn -0.2587 0.0333 -0.9654
vn 0 0.0333 -0.9994
vn 0.2587 0.0333 -0.9654
vn 0.4997 0.0333 -0.8655
vn 0.7067 0.0333 -0.7067
vn 0.8655 0.0333 -0.4997
vn 0.9654 0.0333 -0.2587
vn 0.9994 0.0333 0
vn 0.9654 0.0333 0.2587
vn 0.8655 0.0333 0.4997
vn 0.7067 0.0333 0.7067
vn 0.4997 0.0333 0.8655
vn 0.2587 0.0333 0.9654
vn 0 0.0333 0.9994
vn -0.2587 0.0333 0.9654
vn -0.4997 0.0333 0.8655
vn -0.7067 0.0333 0.7067
vn -0.8655 0.0333 0.4997
vn -0.9654 0.0333 0.2587
vn -0.9994 0.0333 0
vn -0.9654 0.0333 -0.2587
vn -0.8655 0.0333 -0.4997
vn -0.7067 0.0333 -0.7067
vn -0.4997 0.0333 -0.8655
vn -0.2587 0.0333 -0.9654
vn 0 0.0333 -0.9994
vn 0.2587 0.0333 -0.9654
vn 0.4997 0.0333 -0.8655
vn 0.7067 0.0333 -0.7067
vn 0.8655 0.0333 -0.4997
vn 0.9654 0.0333 -0.2587
vn 0.9984 0.057 0
vn 0.9644 0.057 0.2584
vn 0.8646 0.057 0.4992
vn 0.706 0.057 0.706
vn 0.4992 0.057 0.8646
vn 0.2584 0.057 0.9644
vn 0 0.057 0.9984
vn -0.2584 0.057 0.9644
vn -0.4992 0.057 0.8646
vn -0.706 0.057 0.706
vn -0.8646 0.057 0.4992
vn -0.9644 0.057 0.2584
vn -0.9984 0.057 0
vn -0.9644 0.057 -0.2584
vn -0.8646 0.057 -0.4992
vn -0.706 0.057 -0.706
vn -0.4992 0.057 -0.8646
vn -0.2584 0.057 -0.9644
vn 0 0.057 -0.9984
vn 0.2584 0.057 -0.9644
vn 0.4992 0.057 -0.8646
vn 0.706 0.057 -0.706
vn 0.8646 0.057 -0.4992
vn 0.9644 0.057 -0.2584
vn 0.9988 -0.0499 0
vn 0.9647 -0.0499 0.2585
vn 0.8649 -0.0499 0.4994
vn 0.7062 -0.0499 0.7062
vn 0.4994 -0.0499 0.8649
vn 0.2585 -0.0499 0.9647
vn 0 -0.0499 0.9988
vn -0.2585 -0.0499 0.9647
vn -0.4994 -0.0499 0.8649
vn -0.7062 -0.0499 0.7062
vn -0.8649 -0.0499 0.4994
vn -0.9647 -0.0499 0.2585
vn -0.9988 -0.0499 0
vn -0.9647 -0.0499 -0.2585
vn -0.8649 -0.0499 -0.4994
vn -0.7062 -0.0499 -0.7062
vn -0.4994 -0.0499 -0.8649
vn -0.2585 -0.0499 -0.9647
vn 0 -0.0499 -0.9988
vn 0.2585 -0.0499 -0.9647
vn 0.4994 -0.0499 -0.8649
vn 0.7062 -0.0499 -0.7062
vn 0.8649 -0.0499 -0.4994
vn 0.9647 -0.0499 -0.2585
vn 0.9999 0.0111 0
vn 0.9659 0.0111 0.2588
vn 0.866 0.0111 0.5
vn 0.7071 0.0111 0.7071
vn 0.5 0.0111 0.866
vn 0.2588 0.0111 0.9659
vn 0 0.0111 0.9999
vn -0.2588 0.0111 0.9659
vn -0.5 0.0111 0.866
vn -0.7071 0.0111 0.7071
vn -0.866 0.0111 0.5
vn -0.9659 0.0111 0.2588
vn -0.9999 0.0111 0
vn -0.9659 0.0111 -0.2588
vn -0.866 0.0111 -0.5
vn -0.7071 0.0111 -0.7071
vn -0.5 0.0111 -0.866
vn -0.2588 0.0111 -0.9659
vn 0 0.0111 -0.9999
vn 0.2588 0.0111 -0.9659
vn 0.5 0.0111 -0.866
vn 0.7071 0.0111 -0.7071
vn 0.866 0.0111 -0.5
vn 0.9659 0.0111 -0.2588
vn 1 0.0083 0
vn 0.9659 0.0083 0.2588
vn 0.866 0.0083 0.5
vn 0.7071 0.0083 0.7071
vn 0.5 0.0083 0.866
vn 0.2588 0.0083 0.9659
vn 0 0.0083 1
vn -0.2588 0.0083 0.9659
vn -0.5 0.0083 0.866
vn -0.7071 0.0083 0.7071
vn -0.866 0.0083 0.5
vn -0.9659 0.0083 0.2588
vn -1 0.0083 0
vn -0.9659 0.0083 -0.2588
vn -0.866 0.0083 -0.5
vn -0.7071 0.0083 -0.7071
vn -0.5 0.0083 -0.866
vn -0.2588 0.0083 -0.9659
vn 0 0.0083 -1
vn 0.2588 0.0083 -0.9659
vn 0.5 0.0083 -0.866
vn 0.7071 0.0083 -0.7071
vn 0.866 0.0083 -0.5
vn 0.9659 0.0083 -0.2588
vn 1 0.0057 0
vn 0.9659 0.0057 0.2588
vn 0.866 0.0057 0.5
vn 0.7071 0.0057 0.7071
vn 0.5 0.0057 0.866
vn 0.2588 0.0057 0.9659
vn 0 0.0057 1
vn -0.2588 0.0057 0.9659
vn -0.5 0.0057 0.866
vn -0.7071 0.0057 0.7071
vn -0.866 0.0057 0.5
vn -0.9659 0.0057 0.2588
vn -1 0.0057 0
vn -0.9659 0.0057 -0.2588
vn -0.866 0.0057 -0.5
vn -0.7071 0.0057 -0.7071
vn -0.5 0.0057 -0.866
vn -0.2588 0.0057 -0.9659
vn 0 0.0057 -1
vn 0.2588 0.0057 -0.9659
vn 0.5 0.0057 -0.866
vn 0.7071 0.0057 -0.7071
vn 0.866 0.0057 -0.5
vn 0.9659 0.0057 -0.2588
vn 1 0.0044 0
vn 0.9659 0.0044 0.2588
vn 0.866 0.0044 0.5
vn 0.7071 0.0044 0.7071
vn 0.5 0.0044 0.866
vn 0.2588 0.0044 0.9659
vn 0 0.0044 1
vn -0.2588 0.0044 0.9659
vn -0.5 0.0044 0.866
vn -0.7071 0.0044 0.7071
vn -0.866 0.0044 0.5
vn -0.9659 0.0044 0.2588
vn -1 0.0044 0
vn -0.9659 0.0044 -0.2588
vn -0.866 0.0044 -0.5
vn -0.7071 0.0044 -0.7071
vn -0.5 0.0044 -0.866
vn -0.2588 0.0044 -0.9659
vn 0 0.0044 -1
vn 0.2588 0.0044 -0.9659
vn 0.5 0.0044 -0.866
vn 0.7071 0.0044 -0.7071
vn 0.866 0.0044 -0.5
vn 0.9659 0.0044 -0.2588
vn 1 0.004 0
vn 0.9659 0.004 0.2588
vn 0.866 0.004 0.5
vn 0.7071 0.004 0.7071
vn 0.5 0.004 0.866
vn 0.2588 0.004 0.9659
vn 0 0.004 1
vn -0.2588 0.004 0.9659
vn -0.5 0.004 0.866
vn -0.7071 0.004 0.7071
vn -0.866 0.004 0.5
vn -0.9659 0.004 0.2588
vn -1 0.004 0
vn -0.9659 0.004 -0.2588
vn -0.866 0.004 -0.5
vn -0.7071 0.004 -0.7071
vn -0.5 0.004 -0.866
vn -0.2588 0.004 -0.9659
vn 0 0.004 -1
vn 0.2588 0.004 -0.9659
vn 0.5 0.004 -0.866
vn 0.7071 0.004 -0.7071
vn 0.866 0.004 -0.5
vn 0.9659 0.004 -0.2588
vn 1 0.005 0
vn 0.9659 0.005 0.2588
vn 0.866 0.005 0.5
vn 0.7071 0.005 0.7071
vn 0.5 0.005 0.866
vn 0.2588 0.005 0.9659
vn 0 0.005 1
vn -0.2588 0.005 0.9659
vn -0.5 0.005 0.866
vn -0.7071 0.005 0.7071
vn -0.866 0.005 0.5
vn -0.9659 0.005 0.2588
vn -1 0.005 0
vn -0.9659 0.005 -0.2588
vn -0.866 0.005 -0.5
vn -0.7071 0.005 -0.7071
vn -0.5 0.005 -0.866
vn -0.2588 0.005 -0.9659
vn 0 0.005 -1
vn 0.2588 0.005 -0.9659
vn 0.5 0.005 -0.866
vn 0.7071 0.005 -0.7071
vn 0.866 0.005 -0.5
vn 0.9659 0.005 -0.2588
vn 0.9999 0.0158 0
vn 0.9658 0.0158 0.2588
vn 0.8659 0.0158 0.4999
vn 0.707 0.0158 0.707
vn 0.4999 0.0158 0.8659
vn 0.2588 0.0158 0.9658
vn 0 0.0158 0.9999
vn -0.2588 0.0158 0.9658
vn -0.4999 0.0158 0.8659
vn -0.707 0.0158 0.707
vn -0.8659 0.0158 0.4999
vn -0.9658 0.0158 0.2588
vn -0.9999 0.0158 0
vn -0.9658 0.0158 -0.2588
vn -0.8659 0.0158 -0.4999
vn -0.707 0.0158 -0.707
vn -0.4999 0.0158 -0.8659
vn -0.2588 0.0158 -0.9658
vn 0 0.0158 -0.9999
vn 0.2588 0.0158 -0.9658
vn 0.4999 0.0158 -0.8659
vn 0.707 0.0158 -0.707
vn 0.8659 0.0158 -0.4999
vn 0.9658 0.0158 -0.2588
vn 0.9965 0.083 0
vn 0.9626 0.083 0.2579
vn 0.863 0.083 0.4983
vn 0.7047 0.083 0.7047
vn 0.4983 0.083 0.863
vn 0.2579 0.083 0.9626
vn 0 0.083 0.9965
vn -0.2579 0.083 0.9626
vn -0.4983 0.083 0.863
vn -0.7047 0.083 0.7047
vn -0.863 0.083 0.4983
vn -0.9626 0.083 0.2579
vn -0.9965 0.083 0
vn -0.9626 0.083 -0.2579
vn -0.863 0.083 -0.4983
vn -0.7047 0.083 -0.7047
vn -0.4983 0.083 -0.863
vn -0.2579 0.083 -0.9626
vn 0 0.083 -0.9965
vn 0.2579 0.083 -0.9626
vn 0.4983 0.083 -0.863
vn 0.7047 0.083 -0.7047
vn 0.863 0.083 -0.4983
vn 0.9626 0.083 -0.2579
vn 0.9749 0.2228 0
vn 0.9416 0.2228 0.2523
vn 0.8443 0.2228 0.4874
vn 0.6893 0.2228 0.6893
vn 0.4874 0.2228 0.8443
vn 0.2523 0.2228 0.9416
vn 0 0.2228 0.9749
vn -0.2523 0.2228 0.9416
vn -0.4874 0.2228 0.8443
vn -0.6893 0.2228 0.6893
vn -0.8443 0.2228 0.4874
vn -0.9416 0.2228 0.2523
vn -0.9749 0.2228 0
vn -0.9416 0.2228 -0.2523
vn -0.8443 0.2228 -0.4874
vn -0.6893 0.2228 -0.6893
vn -0.4874 0.2228 -0.8443
vn -0.2523 0.2228 -0.9416
vn 0 0.2228 -0.9749
vn 0.2523 0.2228 -0.9416
vn 0.4874 0.2228 -0.8443
vn 0.6893 0.2228 -0.6893
vn 0.8443 0.2228 -0.4874
vn 0.9416 0.2228 -0.2523
vn 0.907 0.4211 0
vn 0.8761 0.4211 0.2348
vn 0.7855 0.4211 0.4535
vn 0.6414 0.4211 0.6414
vn 0.4535 0.4211 0.7855
vn 0.2348 0.4211 0.8761
vn 0 0.4211 0.907
vn -0.2348 0.4211 0.8761
vn -0.4535 0.4211 0.7855
vn -0.6414 0.4211 0.6414
vn -0.7855 0.4211 0.4535
vn -0.8761 0.4211 0.2348
vn -0.907 0.4211 0
vn -0.8761 0.4211 -0.2348
vn -0.7855 0.4211 -0.4535
vn -0.6414 0.4211 -0.6414
vn -0.4535 0.4211 -0.7855
vn -0.2348 0.4211 -0.8761
vn 0 0.4211 -0.907
vn 0.2348 0.4211 -0.8761
vn 0.4535 0.4211 -0.7855
vn 0.6414 0.4211 -0.6414
vn 0.7855 0.4211 -0.4535
vn 0.8761 0.4211 -0.2348
vn 0.7593 0.6508 0
vn 0.7334 0.6508 0.1965
vn 0.6575 0.6508 0.3796
vn 0.5369 0.6508 0.5369
vn 0.3796 0.6508 0.6575
vn 0.1965 0.6508 0.7334
vn 0 0.6508 0.7593
vn -0.1965 0.6508 0.7334
vn -0.3796 0.6508 0.6575
vn -0.5369 0.6508 0.5369
vn -0.6575 0.6508 0.3796
vn -0.7334 0.6508 0.1965
vn -0.7593 0.6508 0
vn -0.7334 0.6508 -0.1965
vn -0.6575 0.6508 -0.3796
vn -0.5369 0.6508 -0.5369
vn -0.3796 0.6508 -0.6575
vn -0.1965 0.6508 -0.7334
vn 0 0.6508 -0.7593
vn 0.1965 0.6508 -0.7334
vn 0.3796 0.6508 -0.6575
vn 0.5369 0.6508 -0.5369
vn 0.6575 0.6508 -0.3796
vn 0.7334 0.6508 -0.1965
vn 0.4961 0.8682 0
vn 0.4792 0.8682 0.1284
vn 0.4297 0.8682 0.2481
vn 0.3508 0.8682 0.3508
vn 0.2481 0.8682 0.4297
vn 0.1284 0.8682 0.4792
vn 0 0.8682 0.4961
vn -0.1284 0.8682 0.4792
vn -0.2481 0.8682 0.4297
vn -0.3508 0.8682 0.3508
vn -0.4297 0.8682 0.2481
vn -0.4792 0.8682 0.1284
vn -0.4961 0.8682 0
vn -0.4792 0.8682 -0.1284
vn -0.4297 0.8682 -0.2481
vn -0.3508 0.8682 -0.3508
vn -0.2481 0.8682 -0.4297
vn -0.1284 0.8682 -0.4792
vn 0 0.8682 -0.4961
vn 0.1284 0.8682 -0.4792
vn 0.2481 0.8682 -0.4297
vn 0.3508 0.8682 -0.3508
vn 0.4297 0.8682 -0.2481
vn 0.4792 0.8682 -0.1284
vn 0.3417 0.9398 0
vn 0.3301 0.9398 0.0884
vn 0.296 0.9398 0.1709
vn 0.2416 0.9398 0.2416
vn 0.1709 0.9398 0.296
vn 0.0884 0.9398 0.3301
vn 0 0.9398 0.3417
vn -0.0884 0.9398 0.3301
vn -0.1709 0.9398 0.296
vn -0.2416 0.9398 0.2416
vn -0.296 0.9398 0.1709
vn -0.3301 0.9398 0.0884
vn -0.3417 0.9398 0
vn -0.3301 0.9398 -0.0884
vn -0.296 0.9398 -0.1709
vn -0.2416 0.9398 -0.2416
vn -0.1709 0.9398 -0.296
vn -0.0884 0.9398 -0.3301
vn 0 0.9398 -0.3417
vn 0.0884 0.9398 -0.3301
vn 0.1709 0.9398 -0.296
vn 0.2416 0.9398 -0.2416
vn 0.296 0.9398 -0.1709
vn 0.3301 0.9398 -0.0884
vn 0 1 0
s 1
f 1//1 3//1 2//1
f 1//1 4//1 3//1
f 1//1 5//1 4//1
f 1//1 6//1 5//1
f 1//1 7//1 6//1
f 1//1 8//1 7//1
f 1//1 9//1 8//1
f 1//1 10//1 9//1
f 1//1 11//1 10//1
f 1//1 12//1 11//1
f 1//1 13//1 12//1
f 1//1 14//1 13//1
f 1//1 15//1 14//1
f 1//1 16//1 15//1
f 1//1 17//1 16//1
f 1//1 18//1 17//1
f 1//1 19//1 18//1
f 1//1 20//1 19//1
f 1//1 21//1 20//1
f 1//1 22//1 21//1
f 1//1 23//1 22//1
f 1//1 24//1 23//1
f 1//1 25//1 24//1
f 1//1 2//1 25//1
f 26//2 27//3 51//27
f 26//2 51//27 50//26
f 27//3 28//4 52//28
f 27//3 52//28 51//27
f 28//4 29//5 53//29
f 28//4 53//29 52//28
f 29//5 30//6 54//30
f 29//5 54//30 53//29
f 30//6 31//7 55//31
f 30//6 55//31 54//30
f 31//7 32//8 56//32
f 31//7 56//32 55//31
f 32//8 33//9 57//33
f 32//8 57//33 56//32
f 33//9 34//10 58//34
f 33//9 58//34 57//33
f 34//10 35//11 59//35
f 34//10 59//35 58//34
f 35//11 36//12 60//36
f 35//11 60//36 59//35
f 36//12 37//13 61//37
f 36//12 61//37 60//36
f 37//13 38//14 62//38
f 37//13 62//38 61//37
f 38//14 39//15 63//39
f 38//14 63//39 62//38
f 39//15 40//16 64//40
f 39//15 64//40 63//39
f 40//16 41//17 65//41
f 40//16 65//41 64//40
f 41//17 42//18 66//42
f 41//17 66//42 65//41
f 42//18 43//19 67//43
f 42//18 67//43 66//42
f 43//19 44//20 68//44
f 43//19 68//44 67//43
f 44//20 45//21 69//45
f 44//20 69//45 68//44
f 45//21 46//22 70//46
f 45//21 70//46 69//45
f 46//22 47//23 71//47
f 46//22 71//47 70//46
f 47//23 48//24 72//48
f 47//23 72//48 71//47
f 48//24 49//25 73//49
f 48//24 73//49 72//48
f 49//25 26//2 50//26
f 49//25 50//26 73//49
f 50//26 51//27 75//51
f 50//26 75//51 74//50
f 51//27 52//28 76//52
f 51//27 76//52 75//51
f 52//28 53//29 77//53
f 52//28 77//53 76//52
f 53//29 54//30 78//54
f 53//29 78//54 77//53
f 54//30 55//31 79//55
f 54//30 79//55 78//54
f 55//31 56//32 80//56
f 55//31 80//56 79//55
f 56//32 57//33 81//57
f 56//32 81//57 80//56
f 57//33 58//34 82//58
f 57//33 82//58 81//57
f 58//34 59//35 83//59
f 58//34 83//59 82//58
f 59//35 60//36 84//60
f 59//35 84//60 83//59
f 60//36 61//37 85//61
f 60//36 85//61 84//60
f 61//37 62//38 86//62
f 61//37 86//62 85//61
f 62//38 63//39 87//63
f 62//38 87//63 86//62
f 63//39 64//40 88//64
f 63//39 88//64 87//63
f 64//40 65//41 89//65
f 64//40 89//65 88//64
f 65//41 66//42 90//66
f 65//41 90//66 89//65
f 66//42 67//43 91//67
f 66//42 91//67 90//66
f 67//43 68//44 92//68
f 67//43 92//68 91//67
f 68//44 69//45 93//69
f 68//44 93//69 92//68
f 69//45 70//46 94//70
f 69//45 94//70 93//69
f 70//46 71//47 95//71
f 70//46 95//71 94//70
f 71//47 72//48 96//72
f 71//47 96//72 95//71
f 72//48 73//49 97//73
f 72//48 97//73 96//72
f 73//49 50//26 74//50
f 73//49 74//50 97//73
f 74//50 75//51 99//75
f 74//50 99//75 98//74
f 75//51 76//52 100//76
f 75//51 100//76 99//75
f 76//52 77//53 101//77
f 76//52 101//77 100//76
f 77//53 78//54 102//78
f 77//53 102//78 101//77
f 78//54 79//55 103//79
f 78//54 103//79 102//78
f 79//55 80//56 104//80
f 79//55 104//80 103//79
f 80//56 81//57 105//81
f 80//56 105//81 104//80
f 81//57 82//58 106//82
f 81//57 106//82 105//81
f 82//58 83//59 107//83
f 82//58 107//83 106//82
f 83//59 84//60 108//84
f 83//59 108//84 107//83
f 84//60 85//61 109//85
f 84//60 109//85 108//84
f 85//61 86//62 110//86
f 85//61 110//86 109//85
f 86//62 87//63 111//87
f 86//62 111//87 110//86
f 87//63 88//64 112//88
f 87//63 112//88 111//87
f 88//64 89//65 113//89
f 88//64 113//89 112//88
f 89//65 90//66 114//90
f 89//65 114//90 113//89
f 90//66 91//67 115//91
f 90//66 115//91 114//90
f 91//67 92//68 116//92
f 91//67 116//92 115//91
f 92//68 93//69 117//93
f 92//68 117//93 116//92
f 93//69 94//70 118//94
f 93//69 118//94 117//93
f 94//70 95//71 119//95
f 94//70 119//95 118//94
f 95//71 96//72 120//96
f 95//71 120//96 119//95
f 96//72 97//73 121//97
f 96//72 121//97 120//96
f 97//73 74//50 98//74
f 97//73 98//74 121//97
f 98//74 99//75 123//99
f 98//74 123//99 122//98
f 99//75 100//76 124//100
f 99//75 124//100 123//99
f 100//76 101//77 125//101
f 100//76 125//101 124//100
f 101//77 102//78 126//102
f 101//77 126//102 125//101
f 102//78 103//79 127//103
f 102//78 127//103 126//102
f 103//79 104//80 128//104
f 103//79 128//104 127//103
f 104//80 105//81 129//105
f 104//80 129//105 128//104
f 105//81 106//82 130//106
f 105//81 130//106 129//105
f 106//82 107//83 131//107
f 106//82 131//107 130//106
f 107//83 108//84 132//108
f 107//83 132//108 131//107
f 108//84 109//85 133//109
f 108//84 133//109 132//108
f 109//85 110//86 134//110
f 109//85 134//110 133//109
f 110//86 111//87 135//111
f 110//86 135//111 134//110
f 111//87 112//88 136//112
f 111//87 136//112 135//111
f 112//88 113//89 137//113
f 112//88 137//113 136//112
f 113//89 114//90 138//114
f 113//89 138//114 137//113
f 114//90 115//91 139//115
f 114//90 139//115 138//114
f 115//91 116//92 140//116
f 115//91 140//116 139//115
f 116//92 117//93 141//117
f 116//92 141//117 140//116
f 117//93 118//94 142//118
f 117//93 142//118 141//117
f 118//94 119//95 143//119
f 118//94 143//119 142//118
f 119//95 120//96 144//120
f 119//95 144//120 143//119
f 120//96 121//97 145//121
f 120//96 145//121 144//120
f 121//97 98//74 122//98
f 121//97 122//98 145//121
f 122//98 123//99 147//123
f 122//98 147//123 146//122
f 123//99 124//100 148//124
f 123//99 148//124 147//123
f 124//100 125//101 149//125
f 124//100 149//125 148//124
f 125//101 126//102 150//126
f 125//101 150//126 149//125
f 126//102 127//103 151//127
f 126//102 151//127 150//126
f 127//103 128//104 152//128
f 127//103 152//128 151//127
f 128//104 129//105 153//129
f 128//104 153//129 152//128
f 129//105 130//106 154//130
f 129//105 154//130 153//129
f 130//106 131//107 155//131
f 130//106 155//131 154//130
f 131//107 132//108 156//132
f 131//107 156//132 155//131
f 132//108 133//109 157//133
f 132//108 157//133 156//132
f 133//109 134//110 158//134
f 133//109 158//134 157//133
f 134//110 135//111 159//135
f 134//110 159//135 158//134
f 135//111 136//112 160//136
f 135//111 160//136 159//135
f 136//112 137//113 161//137
f 136//112 161//137 160//136
f 137//113 138//114 162//138
f 137//113 162//138 161//137
f 138//114 139//115 163//139
f 138//114 163//139 162//138
f 139//115 140//116 164//140
f 139//115 164//140 163//139
f 140//116 141//117 165//141
f 140//116 165//141 164//140
f 141//117 142//118 166//142
f 141//117 166//142 165//141
f 142//118 143//119 167//143
f 142//118 167//143 166//142
f 143//119 144//120 168//144
f 143//119 168//144 167//143
f 144//120 145//121 169//145
f 144//120 169//145 168//144
f 145//121 122//98 146//122
f 145//121 146//122 169//145
f 146//122 147//123 171//147
f 146//122 171//147 170//146
f 147//123 148//124 172//148
f 147//123 172//148 171//147
f 148//124 149//125 173//149
f 148//124 173//149 172//148
f 149//125 150//126 174//150
f 149//125 174//150 173//149
f 150//126 151//127 175//151
f 150//126 175//151 174//150
f 151//127 152//128 176//152
f 151//127 176//152 175//151
f 152//128 153//129 177//153
f 152//128 177//153 176//152
f 153//129 154//130 178//154
f 153//129 178//154 177//153
f 154//130 155//131 179//155
f 154//130 179//155 178//154
f 155//131 156//132 180//156
f 155//131 180//156 179//155
f 156//132 157//133 181//157
f 156//132 181//157 180//156
f 157//133 158//134 182//158
f 157//133 182//158 181//157
f 158//134 159//135 183//159
f 158//134 183//159 182//158
f 159//135 160//136 184//160
f 159//135 184//160 183//159
f 160//136 161//137 185//161
f 160//136 185//161 184//160
f 161//137 162//138 186//162
f 161//137 186//162 185//161
f 162//138 163//139 187//163
f 162//138 187//163 186//162
f 163//139 164//140 188//164
f 163//139 188//164 187//163
f 164//140 165//141 189//165
f 164//140 189//165 188//164
f 165//141 166//142 190//166
f 165//141 190//166 189//165
f 166//142 167//143 191//167
f 166//142 191//167 190//166
f 167//143 168//144 192//168
f 167//143 192//168 191//167
f 168//144 169//145 193//169
f 168//144 193//169 192//168
f 169//145 146//122 170//146
f 169//145 170//146 193//169
f 170//146 171//147 195//171
f 170//146 195//171 194//170
f 171//147 172//148 196//172
f 171//147 196//172 195//171
f 172//148 173//149 197//173
f 172//148 197//173 196//172
f 173//149 174//150 198//174
f 173//149 198//174 197//173
f 174//150 175//151 199//175
f 174//150 199//175 198//174
f 175//151 176//152 200//176
f 175//151 200//176 199//175
f 176//152 177//153 201//177
f 176//152 201//177 200//176
f 177//153 178//154 202//178
f 177//153 202//178 201//177
f 178//154 179//155 203//179
f 178//154 203//179 202//178
f 179//155 180//156 204//180
f 179//155 204//180 203//179
f 180//156 181//157 205//181
f 180//156 205//181 204//180
f 181//157 182//158 206//182
f 181//157 206//182 205//181
f 182//158 183//159 207//183
f 182//158 207//183 206//182
f 183//159 184//160 208//184
f 183//159 208//184 207//183
f 184//160 185//161 209//185
f 184//160 209//185 208//184
f 185//161 186//162 210//186
f 185//161 210//186 209//185
f 186//162 187//163 211//187
f 186//162 211//187 210//186
f 187//163 188//164 212//188
f 187//163 212//188 211//187
f 188//164 189//165 213//189
f 188//164 213//189 212//188
f 189//165 190//166 214//190
f 189//165 214//190 213//189
f 190//166 191//167 215//191
f 190//166 215//191 214//190
f 191//167 192//168 216//192
f 191//167 216//192 215//191
f 192//168 193//169 217//193
f 192//168 217//193 216//192
f 193//169 170//146 194//170
f 193//169 194//170 217//193
f 194//170 195//171 219//195
f 194//170 219//195 218//194
f 195//171 196//172 220//196
f 195//171 220//196 219//195
f 196//172 197//173 221//197
f 196//172 221//197 220//196
f 197//173 198//174 222//198
f 197//173 222//198 221//197
f 198//174 199//175 223//199
f 198//174 223//199 222//198
f 199//175 200//176 224//200
f 199//175 224//200 223//199
f 200//176 201//177 225//201
f 200//176 225//201 224//200
f 201//177 202//178 226//202
f 201//177 226//202 225//201
f 202//178 203//179 227//203
f 202//178 227//203 226//202
f 203//179 204//180 228//204
f 203//179 228//204 227//203
f 204//180 205//181 229//205
f 204//180 229//205 228//204
f 205//181 206//182 230//206
f 205//181 230//206 229//205
f 206//182 207//183 231//207
f 206//182 231//207 230//206
f 207//183 208//184 232//208
f 207//183 232//208 231//207
f 208//184 209//185 233//209
f 208//184 233//209 232//208
f 209//185 210//186 234//210
f 209//185 234//210 233//209
f 210//186 211//187 235//211
f 210//186 235//211 234//210
f 211//187 212//188 236//212
f 211//187 236//212 235//211
f 212//188 213//189 237//213
f 212//188 237//213 236//212
f 213//189 214//190 238//214
f 213//189 238//214 237//213
f 214//190 215//191 239//215
f 214//190 239//215 238//214
f 215//191 216//192 240//216
f 215//191 240//216 239//215
f 216//192 217//193 241//217
f 216//192 241//217 240//216
f 217//193 194//170 218//194
f 217//193 218//194 241//217
f 218//194 219//195 243//219
f 218//194 243//219 242//218
f 219//195 220//196 244//220
f 219//195 244//220 243//219
f 220//196 221//197 245//221
f 220//196 245//221 244//220
f 221//197 222//198 246//222
f 221//197 246//222 245//221
f 222//198 223//199 247//223
f 222//198 247//223 246//222
f 223//199 224//200 248//224
f 223//199 248//224 247//223
f 224//200 225//201 249//225
f 224//200 249//225 248//224
f 225//201 226//202 250//226
f 225//201 250//226 249//225
f 226//202 227//203 251//227
f 226//202 251//227 250//226
f 227//203 228//204 252//228
f 227//203 252//228 251//227
f 228//204 229//205 253//229
f 228//204 253//229 252//228
f 229//205 230//206 254//230
f 229//205 254//230 253//229
f 230//206 231//207 255//231
f 230//206 255//231 254//230
f 231//207 232//208 256//232
f 231//207 256//232 255//231
f 232//208 233//209 257//233
f 232//208 257//233 256//232
f 233//209 234//210 258//234
f 233//209 258//234 257//233
f 234//210 235//211 259//235
f 234//210 259//235 258//234
f 235//211 236//212 260//236
f 235//211 260//236 259//235
f 236//212 237//213 261//237
f 236//212 261//237 260//236
f 237//213 238//214 262//238
f 237//213 262//238 261//237
f 238//214 239//215 263//239
f 238//214 263//239 262//238
f 239//215 240//216 264//240
f 239//215 264//240 263//239
f 240//216 241//217 265//241
f 240//216 265//241 264//240
f 241//217 218//194 242//218
f 241//217 242//218 265//241
f 242//218 243//219 267//243
f 242//218 267//243 266//242
f 243//219 244//220 268//244
f 243//219 268//244 267//243
f 244//220 245//221 269//245
f 244//220 269//245 268//244
f 245//221 246//222 270//246
f 245//221 270//246 269//245
f 246//222 247//223 271//247
f 246//222 271//247 270//246
f 247//223 248//224 272//248
f 247//223 272//248 271//247
f 248//224 249//225 273//249
f 248//224 273//249 272//248
f 249//225 250//226 274//250
f 249//225 274//250 273//249
f 250//226 251//227 275//251
f 250//226 275//251 274//250
f 251//227 252//228 276//252
f 251//227 276//252 275//251
f 252//228 253//229 277//253
f 252//228 277//253 276//252
f 253//229 254//230 278//254
f 253//229 278//254 277//253
f 254//230 255//231 279//255
f 254//230 279//255 278//254
f 255//231 256//232 280//256
f 255//231 280//256 279//255
f 256//232 257//233 281//257
f 256//232 281//257 280//256
f 257//233 258//234 282//258
f 257//233 282//258 281//257
f 258//234 259//235 283//259
f 258//234 283//259 282//258
f 259//235 260//236 284//260
f 259//235 284//260 283//259
f 260//236 261//237 285//261
f 260//236 285//261 284//260
f 261//237 262//238 286//262
f 261//237 286//262 285//261
f 262//238 263//239 287//263
f 262//238 287//263 286//262
f 263//239 264//240 288//264
f 263//239 288//264 287//263
f 264//240 265//241 289//265
f 264//240 289//265 288//264
f 265//241 242//218 266//242
f 265//241 266//242 289//265
f 266//242 267//243 291//267
f 266//242 291//267 290//266
f 267//243 268//244 292//268
f 267//243 292//268 291//267
f 268//244 269//245 293//269
f 268//244 293//269 292//268
f 269//245 270//246 294//270
f 269//245 294//270 293//269
f 270//246 271//247 295//271
f 270//246 295//271 294//270
f 271//247 272//248 296//272
f 271//247 296//272 295//271
f 272//248 273//249 297//273
f 272//248 297//273 296//272
f 273//249 274//250 298//274
f 273//249 298//274 297//273
f 274//250 275//251 299//275
f 274//250 299//275 298//274
f 275//251 276//252 300//276
f 275//251 300//276 299//275
f 276//252 277//253 301//277
f 276//252 301//277 300//276
f 277//253 278//254 302//278
f 277//253 302//278 301//277
f 278//254 279//255 303//279
f 278//254 303//279 302//278
f 279//255 280//256 304//280
f 279//255 304//280 303//279
f 280//256 281//257 305//281
f 280//256 305//281 304//280
f 281//257 282//258 306//282
f 281//257 306//282 305//281
f 282//258 283//259 307//283
f 282//258 307//283 306//282
f 283//259 284//260 308//284
f 283//259 308//284 307//283
f 284//260 285//261 309//285
f 284//260 309//285 308//284
f 285//261 286//262 310//286
f 285//261 310//286 309//285
f 286//262 287//263 311//287
f 286//262 311//287 310//286
f 287//263 288//264 312//288
f 287//263 312//288 311//287
f 288//264 289//265 313//289
f 288//264 313//289 312//288
f 289//265 266//242 290//266
f 289//265 290//266 313//289
f 314//290 315//291 339//315
f 314//290 339//315 338//314
f 315//291 316//292 340//316
f 315//291 340//316 339//315
f 316//292 317//293 341//317
f 316//292 341//317 340//316
f 317//293 318//294 342//318
f 317//293 342//318 341//317
f 318//294 319//295 343//319
f 318//294 343//319 342//318
f 319//295 320//296 344//320
f 319//295 344//320 343//319
f 320//296 321//297 345//321
f 320//296 345//321 344//320
f 321//297 322//298 346//322
f 321//297 346//322 345//321
f 322//298 323//299 347//323
f 322//298 347//323 346//322
f 323//299 324//300 348//324
f 323//299 348//324 347//323
f 324//300 325//301 349//325
f 324//300 349//325 348//324
f 325//301 326//302 350//326
f 325//301 350//326 349//325
f 326//302 327//303 351//327
f 326//302 351//327 350//326
f 327//303 328//304 352//328
f 327//303 352//328 351//327
f 328//304 329//305 353//329
f 328//304 353//329 352//328
f 329//305 330//306 354//330
f 329//305 354//330 353//329
f 330//306 331//307 355//331
f 330//306 355//331 354//330
f 331//307 332//308 356//332
f 331//307 356//332 355//331
f 332//308 333//309 357//333
f 332//308 357//333 356//332
f 333//309 334//310 358//334
f 333//309 358//334 357//333
f 334//310 335//311 359//335
f 334//310 359//335 358//334
f 335//311 336//312 360//336
f 335//311 360//336 359//335
f 336//312 337//313 361//337
f 336//312 361//337 360//336
f 337//313 314//290 338//314
f 337//313 338//314 361//337
f 338//314 339//315 363//339
f 338//314 363//339 362//338
f 339//315 340//316 364//340
f 339//315 364//340 363//339
f 340//316 341//317 365//341
f 340//316 365//341 364//340
f 341//317 342//318 366//342
f 341//317 366//342 365//341
f 342//318 343//319 367//343
f 342//318 367//343 366//342
f 343//319 344//320 368//344
f 343//319 368//344 367//343
f 344//320 345//321 369//345
f 344//320 369//345 368//344
f 345//321 346//322 370//346
f 345//321 370//346 369//345
f 346//322 347//323 371//347
f 346//322 371//347 370//346
f 347//323 348//324 372//348
f 347//323 372//348 371//347
f 348//324 349//325 373//349
f 348//324 373//349 372//348
f 349//325 350//326 374//350
f 349//325 374//350 373//349
f 350//326 351//327 375//351
f 350//326 375//351 374//350
f 351//327 352//328 376//352
f 351//327 376//352 375//351
f 352//328 353//329 377//353
f 352//328 377//353 376//352
f 353//329 354//330 378//354
f 353//329 378//354 377//353
f 354//330 355//331 379//355
f 354//330 379//355 378//354
f 355//331 356//332 380//356
f 355//331 380//356 379//355
f 356//332 357//333 381//357
f 356//332 381//357 380//356
f 357//333 358//334 382//358
f 357//333 382//358 381//357
f 358//334 359//335 383//359
f 358//334 383//359 382//358
f 359//335 360//336 384//360
f 359//335 384//360 383//359
f 360//336 361//337 385//361
f 360//336 385//361 384//360
f 361//337 338//314 362//338
f 361//337 362//338 385//361
f 362//338 363//339 387//363
f 362//338 387//363 386//362
f 363//339 364//340 388//364
f 363//339 388//364 387//363
f 364//340 365//341 389//365
f 364//340 389//365 388//364
f 365//341 366//342 390//366
f 365//341 390//366 389//365
f 366//342 367//343 391//367
f 366//342 391//367 390//366
f 367//343 368//344 392//368
f 367//343 392//368 391//367
f 368//344 369//345 393//369
f 368//344 393//369 392//368
f 369//345 370//346 394//370
f 369//345 394//370 393//369
f 370//346 371//347 395//371
f 370//346 395//371 394//370
f 371//347 372//348 396//372
f 371//347 396//372 395//371
f 372//348 373//349 397//373
f 372//348 397//373 396//372
f 373//349 374//350 398//374
f 373//349 398//374 397//373
f 374//350 375//351 399//375
f 374//350 399//375 398//374
f 375//351 376//352 400//376
f 375//351 400//376 399//375
f 376//352 377//353 401//377
f 376//352 401//377 400//376
f 377//353 378//354 402//378
f 377//353 402//378 401//377
f 378//354 379//355 403//379
f 378//354 403//379 402//378
f 379//355 380//356 404//380
f 379//355 404//380 403//379
f 380//356 381//357 405//381
f 380//356 405//381 404//380
f 381//357 382//358 406//382
f 381//357 406//382 405//381
f 382//358 383//359 407//383
f 382//358 407//383 406//382
f 383//359 384//360 408//384
f 383//359 408//384 407//383
f 384//360 385//361 409//385
f 384//360 409//385 408//384
f 385//361 362//338 386//362
f 385//361 386//362 409//385
f 386//362 387//363 411//387
f 386//362 411//387 410//386
f 387//363 388//364 412//388
f 387//363 412//388 411//387
f 388//364 389//365 413//389
f 388//364 413//389 412//388
f 389//365 390//366 414//390
f 389//365 414//390 413//389
f 390//366 391//367 415//391
f 390//366 415//391 414//390
f 391//367 392//368 416//392
f 391//367 416//392 415//391
f 392//368 393//369 417//393
f 392//368 417//393 416//392
f 393//369 394//370 418//394
f 393//369 418//394 417//393
f 394//370 395//371 419//395
f 394//370 419//395 418//394
f 395//371 396//372 420//396
f 395//371 420//396 419//395
f 396//372 397//373 421//397
f 396//372 421//397 420//396
f 397//373 398//374 422//398
f 397//373 422//398 421//397
f 398//374 399//375 423//399
f 398//374 423//399 422//398
f 399//375 400//376 424//400
f 399//375 424//400 423//399
f 400//376 401//377 425//401
f 400//376 425//401 424//400
f 401//377 402//378 426//402
f 401//377 426//402 425//401
f 402//378 403//379 427//403
f 402//378 427//403 426//402
f 403//379 404//380 428//404
f 403//379 428//404 427//403
f 404//380 405//381 429//405
f 404//380 429//405 428//404
f 405//381 406//382 430//406
f 405//381 430//406 429//405
f 406//382 407//383 431//407
f 406//382 431//407 430//406
f 407//383 408//384 432//408
f 407//383 432//408 431//407
f 408//384 409//385 433//409
f 408//384 433//409 432//408
f 409//385 386//362 410//386
f 409//385 410//386 433//409
f 410//386 411//387 435//411
f 410//386 435//411 434//410
f 411//387 412//388 436//412
f 411//387 436//412 435//411
f 412//388 413//389 437//413
f 412//388 437//413 436//412
f 413//389 414//390 438//414
f 413//389 438//414 437//413
f 414//390 415//391 439//415
f 414//390 439//415 438//414
f 415//391 416//392 440//416
f 415//391 440//416 439//415
f 416//392 417//393 441//417
f 416//392 441//417 440//416
f 417//393 418//394 442//418
f 417//393 442//418 441//417
f 418//394 419//395 443//419
f 418//394 443//419 442//418
f 419//395 420//396 444//420
f 419//395 444//420 443//419
f 420//396 421//397 445//421
f 420//396 445//421 444//420
f 421//397 422//398 446//422
f 421//397 446//422 445//421
f 422//398 423//399 447//423
f 422//398 447//423 446//422
f 423//399 424//400 448//424
f 423//399 448//424 447//423
f 424//400 425//401 449//425
f 424//400 449//425 448//424
f 425//401 426//402 450//426
f 425//401 450//426 449//425
f 426//402 427//403 451//427
f 426//402 451//427 450//426
f 427//403 428//404 452//428
f 427//403 452//428 451//427
f 428//404 429//405 453//429
f 428//404 453//429 452//428
f 429//405 430//406 454//430
f 429//405 454//430 453//429
f 430//406 431//407 455//431
f 430//406 455//431 454//430
f 431//407 432//408 456//432
f 431//407 456//432 455//431
f 432//408 433//409 457//433
f 432//408 457//433 456//432
f 433//409 410//386 434//410
f 433//409 434//410 457//433
f 458//436 459//436 461//436
f 458//436 461//436 460//436
f 460//437 461//437 463//437
f 460//437 463//437 462//437
f 462//438 463//438 465//438
f 462//438 465//438 464//438
f 464//439 465//439 467//439
f 464//439 467//439 466//439
f 466//440 467//440 469//440
f 466//440 469//440 468//440
f 468//441 469//441 471//441
f 468//441 471//441 470//441
f 470//442 471//442 473//442
f 470//442 473//442 472//442
f 472//443 473//443 475//443
f 472//443 475//443 474//443
f 474//444 475//444 477//444
f 474//444 477//444 476//444
f 476//445 477//445 479//445
f 476//445 479//445 478//445
f 478//446 479//446 481//446
f 478//446 481//446 480//446
f 480//447 481//447 459//447
f 480//447 459//447 458//447
f 482//434 460//434 458//434
f 483//435 459//435 461//435
f 482//434 462//434 460//434
f 483//435 461//435 463//435
f 482//434 464//434 462//434
f 483//435 463//435 465//435
f 482//434 466//434 464//434
f 483//435 465//435 467//435
f 482//434 468//434 466//434
f 483//435 467//435 469//435
f 482//434 470//434 468//434
f 483//435 469//435 471//435
f 482//434 472//434 470//434
f 483//435 471//435 473//435
f 482//434 474//434 472//434
f 483//435 473//435 475//435
f 482//434 476//434 474//434
f 483//435 475//435 477//435
f 482//434 478//434 476//434
f 483//435 477//435 479//435
f 482//434 480//434 478//434
f 483//435 479//435 481//435
f 482//434 458//434 480//434
f 483//435 481//435 459//435
f 484//448 485//449 509//473
f 484//448 509//473 508//472
f 485//449 486//450 510//474
f 485//449 510//474 509//473
f 486//450 487//451 511//475
f 486//450 511//475 510//474
f 487//451 488//452 512//476
f 487//451 512//476 511//475
f 488//452 489//453 513//477
f 488//452 513//477 512//476
f 489//453 490//454 514//478
f 489//453 514//478 513//477
f 490//454 491//455 515//479
f 490//454 515//479 514//478
f 491//455 492//456 516//480
f 491//455 516//480 515//479
f 492//456 493//457 517//481
f 492//456 517//481 516//480
f 493//457 494//458 518//482
f 493//457 518//482 517//481
f 494//458 495//459 519//483
f 494//458 519//483 518//482
f 495//459 496//460 520//484
f 495//459 520//484 519//483
f 496//460 497//461 521//485
f 496//460 521//485 520//484
f 497//461 498//462 522//486
f 497//461 522//486 521//485
f 498//462 499//463 523//487
f 498//462 523//487 522//486
f 499//463 500//464 524//488
f 499//463 524//488 523//487
f 500//464 501//465 525//489
f 500//464 525//489 524//488
f 501//465 502//466 526//490
f 501//465 526//490 525//489
f 502//466 503//467 527//491
f 502//466 527//491 526//490
f 503//467 504//468 528//492
f 503//467 528//492 527//491
f 504//468 505//469 529//493
f 504//468 529//493 528//492
f 505//469 506//470 530//494
f 505//469 530//494 529//493
f 506//470 507//471 531//495
f 506//470 531//495 530//494
f 507//471 484//448 508//472
f 507//471 508//472 531//495
f 508//472 509//473 533//497
f 508//472 533//497 532//496
f 509//473 510//474 534//498
f 509//473 534//498 533//497
f 510//474 511//475 535//499
f 510//474 535//499 534//498
f 511//475 512//476 536//500
f 511//475 536//500 535//499
f 512//476 513//477 537//501
f 512//476 537//501 536//500
f 513//477 514//478 538//502
f 513//477 538//502 537//501
f 514//478 515//479 539//503
f 514//478 539//503 538//502
f 515//479 516//480 540//504
f 515//479 540//504 539//503
f 516//480 517//481 541//505
f 516//480 541//505 540//504
f 517//481 518//482 542//506
f 517//481 542//506 541//505
f 518//482 519//483 543//507
f 518//482 543//507 542//506
f 519//483 520//484 544//508
f 519//483 544//508 543//507
f 520//484 521//485 545//509
f 520//484 545//509 544//508
f 521//485 522//486 546//510
f 521//485 546//510 545//509
f 522//486 523//487 547//511
f 522//486 547//511 546//510
f 523//487 524//488 548//512
f 523//487 548//512 547//511
f 524//488 525//489 549//513
f 524//488 549//513 548//512
f 525//489 526//490 550//514
f 525//489 550//514 549//513
f 526//490 527//491 551//515
f 526//490 551//515 550//514
f 527//491 528//492 552//516
f 527//491 552//516 551//515
f 528//492 529//493 553//517
f 528//492 553//517 552//516
f 529//493 530//494 554//518
f 529//493 554//518 553//517
f 530//494 531//495 555//519
f 530//494 555//519 554//518
f 531//495 508//472 532//496
f 531//495 532//496 555//519
f 532//496 533//497 557//521
f 532//496 557//521 556//520
f 533//497 534//498 558//522
f 533//497 558//522 557//521
f 534//498 535//499 559//523
f 534//498 559//523 558//522
f 535//499 536//500 560//524
f 535//499 560//524 559//523
f 536//500 537//501 561//525
f 536//500 561//525 560//524
f 537//501 538//502 562//526
f 537//501 562//526 561//525
f 538//502 539//503 563//527
f 538//502 563//527 562//526
f 539//503 540//504 564//528
f 539//503 564//528 563//527
f 540//504 541//505 565//529
f 540//504 565//529 564//528
f 541//505 542//506 566//530
f 541//505 566//530 565//529
f 542//506 543//507 567//531
f 542//506 567//531 566//530
f 543//507 544//508 568//532
f 543//507 568//532 567//531
f 544//508 545//509 569//533
f 544//508 569//533 568//532
f 545//509 546//510 570//534
f 545//509 570//534 569//533
f 546//510 547//511 571//535
f 546//510 571//535 570//534
f 547//511 548//512 572//536
f 547//511 572//536 571//535
f 548//512 549//513 573//537
f 548//512 573//537 572//536
f 549//513 550//514 574//538
f 549//513 574//538 573//537
f 550//514 551//515 575//539
f 550//514 575//539 574//538
f 551//515 552//516 576//540
f 551//515 576//540 575//539
f 552//516 553//517 577//541
f 552//516 577//541 576//540
f 553//517 554//518 578//542
f 553//517 578//542 577//541
f 554//518 555//519 579//543
f 554//518 579//543 578//542
f 555//519 532//496 556//520
f 555//519 556//520 579//543
f 556//520 557//521 581//545
f 556//520 581//545 580//544
f 557//521 558//522 582//546
f 557//521 582//546 581//545
f 558//522 559//523 583//547
f 558//522 583//547 582//546
f 559//523 560//524 584//548
f 559//523 584//548 583//547
f 560//524 561//525 585//549
f 560//524 585//549 584//548
f 561//525 562//526 586//550
f 561//525 586//550 585//549
f 562//526 563//527 587//551
f 562//526 587//551 586//550
f 563//527 564//528 588//552
f 563//527 588//552 587//551
f 564//528 565//529 589//553
f 564//528 589//553 588//552
f 565//529 566//530 590//554
f 565//529 590//554 589//553
f 566//530 567//531 591//555
f 566//530 591//555 590//554
f 567//531 568//532 592//556
f 567//531 592//556 591//555
f 568//532 569//533 593//557
f 568//532 593//557 592//556
f 569//533 570//534 594//558
f 569//533 594//558 593//557
f 570//534 571//535 595//559
f 570//534 595//559 594//558
f 571//535 572//536 596//560
f 571//535 596//560 595//559
f 572//536 573//537 597//561
f 572//536 597//561 596//560
f 573//537 574//538 598//562
f 573//537 598//562 597//561
f 574//538 575//539 599//563
f 574//538 599//563 598//562
f 575//539 576//540 600//564
f 575//539 600//564 599//563
f 576//540 577//541 601//565
f 576//540 601//565 600//564
f 577//541 578//542 602//566
f 577//541 602//566 601//565
f 578//542 579//543 603//567
f 578//542 603//567 602//566
f 579//543 556//520 580//544
f 579//543 580//544 603//567
f 580//544 581//545 605//569
f 580//544 605//569 604//568
f 581//545 582//546 606//570
f 581//545 606//570 605//569
f 582//546 583//547 607//571
f 582//546 607//571 606//570
f 583//547 584//548 608//572
f 583//547 608//572 607//571
f 584//548 585//549 609//573
f 584//548 609//573 608//572
f 585//549 586//550 610//574
f 585//549 610//574 609//573
f 586//550 587//551 611//575
f 586//550 611//575 610//574
f 587//551 588//552 612//576
f 587//551 612//576 611//575
f 588//552 589//553 613//577
f 588//552 613//577 612//576
f 589//553 590//554 614//578
f 589//553 614//578 613//577
f 590//554 591//555 615//579
f 590//554 615//579 614//578
f 591//555 592//556 616//580
f 591//555 616//580 615//579
f 592//556 593//557 617//581
f 592//556 617//581 616//580
f 593//557 594//558 618//582
f 593//557 618//582 617//581
f 594//558 595//559 619//583
f 594//558 619//583 618//582
f 595//559 596//560 620//584
f 595//559 620//584 619//583
f 596//560 597//561 621//585
f 596//560 621//585 620//584
f 597//561 598//562 622//586
f 597//561 622//586 621//585
f 598//562 599//563 623//587
f 598//562 623//587 622//586
f 599//563 600//564 624//588
f 599//563 624//588 623//587
f 600//564 601//565 625//589
f 600//564 625//589 624//588
f 601//565 602//566 626//590
f 601//565 626//590 625//589
f 602//566 603//567 627//591
f 602//566 627//591 626//590
f 603//567 580//544 604//568
f 603//567 604//568 627//591
f 604//568 605//569 629//593
f 604//568 629//593 628//592
f 605//569 606//570 630//594
f 605//569 630//594 629//593
f 606//570 607//571 631//595
f 606//570 631//595 630//594
f 607//571 608//572 632//596
f 607//571 632//596 631//595
f 608//572 609//573 633//597
f 608//572 633//597 632//596
f 609//573 610//574 634//598
f 609//573 634//598 633//597
f 610//574 611//575 635//599
f 610//574 635//599 634//598
f 611//575 612//576 636//600
f 611//575 636//600 635//599
f 612//576 613//577 637//601
f 612//576 637//601 636//600
f 613//577 614//578 638//602
f 613//577 638//602 637//601
f 614//578 615//579 639//603
f 614//578 639//603 638//602
f 615//579 616//580 640//604
f 615//579 640//604 639//603
f 616//580 617//581 641//605
f 616//580 641//605 640//604
f 617//581 618//582 642//606
f 617//581 642//606 641//605
f 618//582 619//583 643//607
f 618//582 643//607 642//606
f 619//583 620//584 644//608
f 619//583 644//608 643//607
f 620//584 621//585 645//609
f 620//584 645//609 644//608
f 621//585 622//586 646//610
f 621//585 646//610 645//609
f 622//586 623//587 647//611
f 622//586 647//611 646//610
f 623//587 624//588 648//612
f 623//587 648//612 647//611
f 624//588 625//589 649//613
f 624//588 649//613 648//612
f 625//589 626//590 650//614
f 625//589 650//614 649//613
f 626//590 627//591 651//615
f 626//590 651//615 650//614
f 627//591 604//568 628//592
f 627//591 628//592 651//615
f 628//592 629//593 653//617
f 628//592 653//617 652//616
f 629//593 630//594 654//618
f 629//593 654//618 653//617
f 630//594 631//595 655//619
f 630//594 655//619 654//618
f 631//595 632//596 656//620
f 631//595 656//620 655//619
f 632//596 633//597 657//621
f 632//596 657//621 656//620
f 633//597 634//598 658//622
f 633//597 658//622 657//621
f 634//598 635//599 659//623
f 634//598 659//623 658//622
f 635//599 636//600 660//624
f 635//599 660//624 659//623
f 636//600 637//601 661//625
f 636//600 661//625 660//624
f 637//601 638//602 662//626
f 637//601 662//626 661//625
f 638//602 639//603 663//627
f 638//602 663//627 662//626
f 639//603 640//604 664//628
f 639//603 664//628 663//627
f 640//604 641//605 665//629
f 640//604 665//629 664//628
f 641//605 642//606 666//630
f 641//605 666//630 665//629
f 642//606 643//607 667//631
f 642//606 667//631 666//630
f 643//607 644//608 668//632
f 643//607 668//632 667//631
f 644//608 645//609 669//633
f 644//608 669//633 668//632
f 645//609 646//610 670//634
f 645//609 670//634 669//633
f 646//610 647//611 671//635
f 646//610 671//635 670//634
f 647//611 648//612 672//636
f 647//611 672//636 671//635
f 648//612 649//613 673//637
f 648//612 673//637 672//636
f 649//613 650//614 674//638
f 649//613 674//638 673//637
f 650//614 651//615 675//639
f 650//614 675//639 674//638
f 651//615 628//592 652//616
f 651//615 652//616 675//639
f 676//640 677//641 701//665
f 676//640 701//665 700//664
f 677//641 678//642 702//666
f 677//641 702//666 701//665
f 678//642 679//643 703//667
f 678//642 703//667 702//666
f 679//643 680//644 704//668
f 679//643 704//668 703//667
f 680//644 681//645 705//669
f 680//644 705//669 704//668
f 681//645 682//646 706//670
f 681//645 706//670 705//669
f 682//646 683//647 707//671
f 682//646 707//671 706//670
f 683//647 684//648 708//672
f 683//647 708//672 707//671
f 684//648 685//649 709//673
f 684//648 709//673 708//672
f 685//649 686//650 710//674
f 685//649 710//674 709//673
f 686//650 687//651 711//675
f 686//650 711//675 710//674
f 687//651 688//652 712//676
f 687//651 712//676 711//675
f 688//652 689//653 713//677
f 688//652 713//677 712//676
f 689//653 690//654 714//678
f 689//653 714//678 713//677
f 690//654 691//655 715//679
f 690//654 715//679 714//678
f 691//655 692//656 716//680
f 691//655 716//680 715//679
f 692//656 693//657 717//681
f 692//656 717//681 716//680
f 693//657 694//658 718//682
f 693//657 718//682 717//681
f 694//658 695//659 719//683
f 694//658 719//683 718//682
f 695//659 696//660 720//684
f 695//659 720//684 719//683
f 696//660 697//661 721//685
f 696//660 721//685 720//684
f 697//661 698//662 722//686
f 697//661 722//686 721//685
f 698//662 699//663 723//687
f 698//662 723//687 722//686
f 699//663 676//640 700//664
f 699//663 700//664 723//687
f 700//664 701//665 725//689
f 700//664 725//689 724//688
f 701//665 702//666 726//690
f 701//665 726//690 725//689
f 702//666 703//667 727//691
f 702//666 727//691 726//690
f 703//667 704//668 728//692
f 703//667 728//692 727//691
f 704//668 705//669 729//693
f 704//668 729//693 728//692
f 705//669 706//670 730//694
f 705//669 730//694 729//693
f 706//670 707//671 731//695
f 706//670 731//695 730//694
f 707//671 708//672 732//696
f 707//671 732//696 731//695
f 708//672 709//673 733//697
f 708//672 733//697 732//696
f 709//673 710//674 734//698
f 709//673 734//698 733//697
f 710//674 711//675 735//699
f 710//674 735//699 734//698
f 711//675 712//676 736//700
f 711//675 736//700 735//699
f 712//676 713//677 737//701
f 712//676 737//701 736//700
f 713//677 714//678 738//702
f 713//677 738//702 737//701
f 714//678 715//679 739//703
f 714//678 739//703 738//702
f 715//679 716//680 740//704
f 715//679 740//704 739//703
f 716//680 717//681 741//705
f 716//680 741//705 740//704
f 717//681 718//682 742//706
f 717//681 742//706 741//705
f 718//682 719//683 743//707
f 718//682 743//707 742//706
f 719//683 720//684 744//708
f 719//683 744//708 743//707
f 720//684 721//685 745//709
f 720//684 745//709 744//708
f 721//685 722//686 746//710
f 721//685 746//710 745//709
f 722//686 723//687 747//711
f 722//686 747//711 746//710
f 723//687 700//664 724//688
f 723//687 724//688 747//711
f 724//688 725//689 749//713
f 724//688 749//713 748//712
f 725//689 726//690 750//714
f 725//689 750//714 749//713
f 726//690 727//691 751//715
f 726//690 751//715 750//714
f 727//691 728//692 752//716
f 727//691 752//716 751//715
f 728//692 729//693 753//717
f 728//692 753//717 752//716
f 729//693 730//694 754//718
f 729//693 754//718 753//717
f 730//694 731//695 755//719
f 730//694 755//719 754//718
f 731//695 732//696 756//720
f 731//695 756//720 755//719
f 732//696 733//697 757//721
f 732//696 757//721 756//720
f 733//697 734//698 758//722
f 733//697 758//722 757//721
f 734//698 735//699 759//723
f 734//698 759//723 758//722
f 735//699 736//700 760//724
f 735//699 760//724 759//723
f 736//700 737//701 761//725
f 736//700 761//725 760//724
f 737//701 738//702 762//726
f 737//701 762//726 761//725
f 738//702 739//703 763//727
f 738//702 763//727 762//726
f 739//703 740//704 764//728
f 739//703 764//728 763//727
f 740//704 741//705 765//729
f 740//704 765//729 764//728
f 741//705 742//706 766//730
f 741//705 766//730 765//729
f 742//706 743//707 767//731
f 742//706 767//731 766//730
f 743//707 744//708 768//732
f 743//707 768//732 767//731
f 744//708 745//709 769//733
f 744//708 769//733 768//732
f 745//709 746//710 770//734
f 745//709 770//734 769//733
f 746//710 747//711 771//735
f 746//710 771//735 770//734
f 747//711 724//688 748//712
f 747//711 748//712 771//735
f 748//712 749//713 773//737
f 748//712 773//737 772//736
f 749//713 750//714 774//738
f 749//713 774//738 773//737
f 750//714 751//715 775//739
f 750//714 775//739 774//738
f 751//715 752//716 776//740
f 751//715 776//740 775//739
f 752//716 753//717 777//741
f 752//716 777//741 776//740
f 753//717 754//718 778//742
f 753//717 778//742 777//741
f 754//718 755//719 779//743
f 754//718 779//743 778//742
f 755//719 756//720 780//744
f 755//719 780//744 779//743
f 756//720 757//721 781//745
f 756//720 781//745 780//744
f 757//721 758//722 782//746
f 757//721 782//746 781//745
f 758//722 759//723 783//747
f 758//722 783//747 782//746
f 759//723 760//724 784//748
f 759//723 784//748 783//747
f 760//724 761//725 785//749
f 760//724 785//749 784//748
f 761//725 762//726 786//750
f 761//725 786//750 785//749
f 762//726 763//727 787//751
f 762//726 787//751 786//750
f 763//727 764//728 788//752
f 763//727 788//752 787//751
f 764//728 765//729 789//753
f 764//728 789//753 788//752
f 765//729 766//730 790//754
f 765//729 790//754 789//753
f 766//730 767//731 791//755
f 766//730 791//755 790//754
f 767//731 768//732 792//756
f 767//731 792//756 791//755
f 768//732 769//733 793//757
f 768//732 793//757 792//756
f 769//733 770//734 794//758
f 769//733 794//758 793//757
f 770//734 771//735 795//759
f 770//734 795//759 794//758
f 771//735 748//712 772//736
f 771//735 772//736 795//759
f 772//736 773//737 797//761
f 772//736 797//761 796//760
f 773//737 774//738 798//762
f 773//737 798//762 797//761
f 774//738 775//739 799//763
f 774//738 799//763 798//762
f 775//739 776//740 800//764
f 775//739 800//764 799//763
f 776//740 777//741 801//765
f 776//740 801//765 800//764
f 777//741 778//742 802//766
f 777//741 802//766 801//765
f 778//742 779//743 803//767
f 778//742 803//767 802//766
f 779//743 780//744 804//768
f 779//743 804//768 803//767
f 780//744 781//745 805//769
f 780//744 805//769 804//768
f 781//745 782//746 806//770
f 781//745 806//770 805//769
f 782//746 783//747 807//771
f 782//746 807//771 806//770
f 783//747 784//748 808//772
f 783//747 808//772 807//771
f 784//748 785//749 809//773
f 784//748 809//773 808//772
f 785//749 786//750 810//774
f 785//749 810//774 809//773
f 786//750 787//751 811//775
f 786//750 811//775 810//774
f 787//751 788//752 812//776
f 787//751 812//776 811//775
f 788//752 789//753 813//777
f 788//752 813//777 812//776
f 789//753 790//754 814//778
f 789//753 814//778 813//777
f 790//754 791//755 815//779
f 790//754 815//779 814//778
f 791//755 792//756 816//780
f 791//755 816//780 815//779
f 792//756 793//757 817//781
f 792//756 817//781 816//780
f 793//757 794//758 818//782
f 793//757 818//782 817//781
f 794//758 795//759 819//783
f 794//758 819//783 818//782
f 795//759 772//736 796//760
f 795//759 796//760 819//783
f 796//760 797//761 821//785
f 796//760 821//785 820//784
f 797//761 798//762 822//786
f 797//761 822//786 821//785
f 798//762 799//763 823//787
f 798//762 823//787 822//786
f 799//763 800//764 824//788
f 799//763 824//788 823//787
f 800//764 801//765 825//789
f 800//764 825//789 824//788
f 801//765 802//766 826//790
f 801//765 826//790 825//789
f 802//766 803//767 827//791
f 802//766 827//791 826//790
f 803//767 804//768 828//792
f 803//767 828//792 827//791
f 804//768 805//769 829//793
f 804//768 829//793 828//792
f 805//769 806//770 830//794
f 805//769 830//794 829//793
f 806//770 807//771 831//795
f 806//770 831//795 830//794
f 807//771 808//772 832//796
f 807//771 832//796 831//795
f 808//772 809//773 833//797
f 808//772 833//797 832//796
f 809//773 810//774 834//798
f 809//773 834//798 833//797
f 810//774 811//775 835//799
f 810//774 835//799 834//798
f 811//775 812//776 836//800
f 811//775 836//800 835//799
f 812//776 813//777 837//801
f 812//776 837//801 836//800
f 813//777 814//778 838//802
f 813//777 838//802 837//801
f 814//778 815//779 839//803
f 814//778 839//803 838//802
f 815//779 816//780 840//804
f 815//779 840//804 839//803
f 816//780 817//781 841//805
f 816//780 841//805 840//804
f 817//781 818//782 842//806
f 817//781 842//806 841//805
f 818//782 819//783 843//807
f 818//782 843//807 842//806
f 819//783 796//760 820//784
f 819//783 820//784 843//807
f 820//784 821//785 845//809
f 820//784 845//809 844//808
f 821//785 822//786 846//810
f 821//785 846//810 845//809
f 822//786 823//787 847//811
f 822//786 847//811 846//810
f 823//787 824//788 848//812
f 823//787 848//812 847//811
f 824//788 825//789 849//813
f 824//788 849//813 848//812
f 825//789 826//790 850//814
f 825//789 850//814 849//813
f 826//790 827//791 851//815
f 826//790 851//815 850//814
f 827//791 828//792 852//816
f 827//791 852//816 851//815
f 828//792 829//793 853//817
f 828//792 853//817 852//816
f 829//793 830//794 854//818
f 829//793 854//818 853//817
f 830//794 831//795 855//819
f 830//794 855//819 854//818
f 831//795 832//796 856//820
f 831//795 856//820 855//819
f 832//796 833//797 857//821
f 832//796 857//821 856//820
f 833//797 834//798 858//822
f 833//797 858//822 857//821
f 834//798 835//799 859//823
f 834//798 859//823 858//822
f 835//799 836//800 860//824
f 835//799 860//824 859//823
f 836//800 837//801 861//825
f 836//800 861//825 860//824
f 837//801 838//802 862//826
f 837//801 862//826 861//825
f 838//802 839//803 863//827
f 838//802 863//827 862//826
f 839//803 840//804 864//828
f 839//803 864//828 863//827
f 840//804 841//805 865//829
f 840//804 865//829 864//828
f 841//805 842//806 866//830
f 841//805 866//830 865//829
f 842//806 843//807 867//831
f 842//806 867//831 866//830
f 843//807 820//784 844//808
f 843//807 844//808 867//831
f 844//808 845//809 869//833
f 844//808 869//833 868//832
f 845//809 846//810 870//834
f 845//809 870//834 869//833
f 846//810 847//811 871//835
f 846//810 871//835 870//834
f 847//811 848//812 872//836
f 847//811 872//836 871//835
f 848//812 849//813 873//837
f 848//812 873//837 872//836
f 849//813 850//814 874//838
f 849//813 874//838 873//837
f 850//814 851//815 875//839
f 850//814 875//839 874//838
f 851//815 852//816 876//840
f 851//815 876//840 875//839
f 852//816 853//817 877//841
f 852//816 877//841 876//840
f 853//817 854//818 878//842
f 853//817 878//842 877//841
f 854//818 855//819 879//843
f 854//818 879//843 878//842
f 855//819 856//820 880//844
f 855//819 880//844 879//843
f 856//820 857//821 881//845
f 856//820 881//845 880//844
f 857//821 858//822 882//846
f 857//821 882//846 881//845
f 858//822 859//823 883//847
f 858//822 883//847 882//846
f 859//823 860//824 884//848
f 859//823 884//848 883//847
f 860//824 861//825 885//849
f 860//824 885//849 884//848
f 861//825 862//826 886//850
f 861//825 886//850 885//849
f 862//826 863//827 887//851
f 862//826 887//851 886//850
f 863//827 864//828 888//852
f 863//827 888//852 887//851
f 864//828 865//829 889//853
f 864//828 889//853 888//852
f 865//829 866//830 890//854
f 865//829 890//854 889//853
f 866//830 867//831 891//855
f 866//830 891//855 890//854
f 867//831 844//808 868//832
f 867//831 868//832 891//855
f 868//832 869//833 893//857
f 868//832 893//857 892//856
f 869//833 870//834 894//858
f 869//833 894//858 893//857
f 870//834 871//835 895//859
f 870//834 895//859 894//858
f 871//835 872//836 896//860
f 871//835 896//860 895//859
f 872//836 873//837 897//861
f 872//836 897//861 896//860
f 873//837 874//838 898//862
f 873//837 898//862 897//861
f 874//838 875//839 899//863
f 874//838 899//863 898//862
f 875//839 876//840 900//864
f 875//839 900//864 899//863
f 876//840 877//841 901//865
f 876//840 901//865 900//864
f 877//841 878//842 902//866
f 877//841 902//866 901//865
f 878//842 879//843 903//867
f 878//842 903//867 902//866
f 879//843 880//844 904//868
f 879//843 904//868 903//867
f 880//844 881//845 905//869
f 880//844 905//869 904//868
f 881//845 882//846 906//870
f 881//845 906//870 905//869
f 882//846 883//847 907//871
f 882//846 907//871 906//870
f 883//847 884//848 908//872
f 883//847 908//872 907//871
f 884//848 885//849 909//873
f 884//848 909//873 908//872
f 885//849 886//850 910//874
f 885//849 910//874 909//873
f 886//850 887//851 911//875
f 886//850 911//875 910//874
f 887//851 888//852 912//876
f 887//851 912//876 911//875
f 888//852 889//853 913//877
f 888//852 913//877 912//876
f 889//853 890//854 914//878
f 889//853 914//878 913//877
f 890//854 891//855 915//879
f 890//854 915//879 914//878
f 891//855 868//832 892//856
f 891//855 892//856 915//879
f 892//856 893//857 917//881
f 892//856 917//881 916//880
f 893//857 894//858 918//882
f 893//857 918//882 917//881
f 894//858 895//859 919//883
f 894//858 919//883 918//882
f 895//859 896//860 920//884
f 895//859 920//884 919//883
f 896//860 897//861 921//885
f 896//860 921//885 920//884
f 897//861 898//862 922//886
f 897//861 922//886 921//885
f 898//862 899//863 923//887
f 898//862 923//887 922//886
f 899//863 900//864 924//888
f 899//863 924//888 923//887
f 900//864 901//865 925//889
f 900//864 925//889 924//888
f 901//865 902//866 926//890
f 901//865 926//890 925//889
f 902//866 903//867 927//891
f 902//866 927//891 926//890
f 903//867 904//868 928//892
f 903//867 928//892 927//891
f 904//868 905//869 929//893
f 904//868 929//893 928//892
f 905//869 906//870 930//894
f 905//869 930//894 929//893
f 906//870 907//871 931//895
f 906//870 931//895 930//894
f 907//871 908//872 932//896
f 907//871 932//896 931//895
f 908//872 909//873 933//897
f 908//872 933//897 932//896
f 909//873 910//874 934//898
f 909//873 934//898 933//897
f 910//874 911//875 935//899
f 910//874 935//899 934//898
f 911//875 912//876 936//900
f 911//875 936//900 935//899
f 912//876 913//877 937//901
f 912//876 937//901 936//900
f 913//877 914//878 938//902
f 913//877 938//902 937//901
f 914//878 915//879 939//903
f 914//878 939//903 938//902
f 915//879 892//856 916//880
f 915//879 916//880 939//903
f 916//880 917//881 941//905
f 916//880 941//905 940//904
f 917//881 918//882 942//906
f 917//881 942//906 941//905
f 918//882 919//883 943//907
f 918//882 943//907 942//906
f 919//883 920//884 944//908
f 919//883 944//908 943//907
f 920//884 921//885 945//909
f 920//884 945//909 944//908
f 921//885 922//886 946//910
f 921//885 946//910 945//909
f 922//886 923//887 947//911
f 922//886 947//911 946//910
f 923//887 924//888 948//912
f 923//887 948//912 947//911
f 924//888 925//889 949//913
f 924//888 949//913 948//912
f 925//889 926//890 950//914
f 925//889 950//914 949//913
f 926//890 927//891 951//915
f 926//890 951//915 950//914
f 927//891 928//892 952//916
f 927//891 952//916 951//915
f 928//892 929//893 953//917
f 928//892 953//917 952//916
f 929//893 930//894 954//918
f 929//893 954//918 953//917
f 930//894 931//895 955//919
f 930//894 955//919 954//918
f 931//895 932//896 956//920
f 931//895 956//920 955//919
f 932//896 933//897 957//921
f 932//896 957//921 956//920
f 933//897 934//898 958//922
f 933//897 958//922 957//921
f 934//898 935//899 959//923
f 934//898 959//923 958//922
f 935//899 936//900 960//924
f 935//899 960//924 959//923
f 936//900 937//901 961//925
f 936//900 961//925 960//924
f 937//901 938//902 962//926
f 937//901 962//926 961//925
f 938//902 939//903 963//927
f 938//902 963//927 962//926
f 939//903 916//880 940//904
f 939//903 940//904 963//927
f 940//904 941//905 965//929
f 940//904 965//929 964//928
f 941//905 942//906 966//930
f 941//905 966//930 965//929
f 942//906 943//907 967//931
f 942//906 967//931 966//930
f 943//907 944//908 968//932
f 943//907 968//932 967//931
f 944//908 945//909 969//933
f 944//908 969//933 968//932
f 945//909 946//910 970//934
f 945//909 970//934 969//933
f 946//910 947//911 971//935
f 946//910 971//935 970//934
f 947//911 948//912 972//936
f 947//911 972//936 971//935
f 948//912 949//913 973//937
f 948//912 973//937 972//936
f 949//913 950//914 974//938
f 949//913 974//938 973//937
f 950//914 951//915 975//939
f 950//914 975//939 974//938
f 951//915 952//916 976//940
f 951//915 976//940 975//939
f 952//916 953//917 977//941
f 952//916 977//941 976//940
f 953//917 954//918 978//942
f 953//917 978//942 977//941
f 954//918 955//919 979//943
f 954//918 979//943 978//942
f 955//919 956//920 980//944
f 955//919 980//944 979//943
f 956//920 957//921 981//945
f 956//920 981//945 980//944
f 957//921 958//922 982//946
f 957//921 982//946 981//945
f 958//922 959//923 983//947
f 958//922 983//947 982//946
f 959//923 960//924 984//948
f 959//923 984//948 983//947
f 960//924 961//925 985//949
f 960//924 985//949 984//948
f 961//925 962//926 986//950
f 961//925 986//950 985//949
f 962//926 963//927 987//951
f 962//926 987//951 986//950
f 963//927 940//904 964//928
f 963//927 964//928 987//951
f 988//952 989//952 990//952
f 988//952 990//952 991//952
f 988//952 991//952 992//952
f 988//952 992//952 993//952
f 988//952 993//952 994//952
f 988//952 994//952 995//952
f 988//952 995//952 996//952
f 988//952 996//952 997//952
f 988//952 997//952 998//952
f 988//952 998//952 999//952
f 988//952 999//952 1000//952
f 988//952 1000//952 1001//952
f 988//952 1001//952 1002//952
f 988//952 1002//952 1003//952
f 988//952 1003//952 1004//952
f 988//952 1004//952 1005//952
f 988//952 1005//952 1006//952
f 988//952 1006//952 1007//952
f 988//952 1007//952 1008//952
f 988//952 1008//952 1009//952
f 988//952 1009//952 1010//952
f 988//952 1010//952 1011//952
f 988//952 1011//952 1012//952
f 988//952 1012//952 989//952