# Jetson Orin NX carrier proxy, 114 x 64 x 47 mm
o Carrier
v -57 0 -32
v 57 0 -32
v 57 0 32
v -57 0 32
v -57 3 -32
v 57 3 -32
v 57 3 32
v -57 3 32
f 1 2 3 4
f 5 8 7 6
f 1 5 6 2
f 2 6 7 3
f 3 7 8 4
f 4 8 5 1
o Heatsink
v -35 3 -25
v 35 3 -25
v 35 3 25
v -35 3 25
v -35 47 -25
v 35 47 -25
v 35 47 25
v -35 47 25
f 9 10 11 12
f 13 16 15 14
f 9 13 14 10
f 10 14 15 11
f 11 15 16 12
f 12 16 13 9
o Connector
v 38 3 -28
v 55 3 -28
v 55 18 -28
v 38 18 -28
v 38 3 -15
v 55 3 -15
v 55 18 -15
v 38 18 -15
f 17 18 19 20
f 21 24 23 22
f 17 21 22 18
f 18 22 23 19
f 19 23 24 20
f 20 24 21 17
