# 20x10 inch, 2 blade UAV propeller; units millimeters
o Hub
v 29.000000 0.000000 -12.000000
v 28.889646 2.527517 -12.000000
v 28.559425 5.035797 -12.000000
v 28.011849 7.505752 -12.000000
v 27.251086 9.918584 -12.000000
v 26.282926 12.255930 -12.000000
v 25.114737 14.500000 -12.000000
v 23.755409 16.633717 -12.000000
v 22.215289 18.640841 -12.000000
v 20.506097 20.506097 -12.000000
v 18.640841 22.215289 -12.000000
v 16.633717 23.755409 -12.000000
v 14.500000 25.114737 -12.000000
v 12.255930 26.282926 -12.000000
v 9.918584 27.251086 -12.000000
v 7.505752 28.011849 -12.000000
v 5.035797 28.559425 -12.000000
v 2.527517 28.889646 -12.000000
v 0.000000 29.000000 -12.000000
v -2.527517 28.889646 -12.000000
v -5.035797 28.559425 -12.000000
v -7.505752 28.011849 -12.000000
v -9.918584 27.251086 -12.000000
v -12.255930 26.282926 -12.000000
v -14.500000 25.114737 -12.000000
v -16.633717 23.755409 -12.000000
v -18.640841 22.215289 -12.000000
v -20.506097 20.506097 -12.000000
v -22.215289 18.640841 -12.000000
v -23.755409 16.633717 -12.000000
v -25.114737 14.500000 -12.000000
v -26.282926 12.255930 -12.000000
v -27.251086 9.918584 -12.000000
v -28.011849 7.505752 -12.000000
v -28.559425 5.035797 -12.000000
v -28.889646 2.527517 -12.000000
v -29.000000 0.000000 -12.000000
v -28.889646 -2.527517 -12.000000
v -28.559425 -5.035797 -12.000000
v -28.011849 -7.505752 -12.000000
v -27.251086 -9.918584 -12.000000
v -26.282926 -12.255930 -12.000000
v -25.114737 -14.500000 -12.000000
v -23.755409 -16.633717 -12.000000
v -22.215289 -18.640841 -12.000000
v -20.506097 -20.506097 -12.000000
v -18.640841 -22.215289 -12.000000
v -16.633717 -23.755409 -12.000000
v -14.500000 -25.114737 -12.000000
v -12.255930 -26.282926 -12.000000
v -9.918584 -27.251086 -12.000000
v -7.505752 -28.011849 -12.000000
v -5.035797 -28.559425 -12.000000
v -2.527517 -28.889646 -12.000000
v -0.000000 -29.000000 -12.000000
v 2.527517 -28.889646 -12.000000
v 5.035797 -28.559425 -12.000000
v 7.505752 -28.011849 -12.000000
v 9.918584 -27.251086 -12.000000
v 12.255930 -26.282926 -12.000000
v 14.500000 -25.114737 -12.000000
v 16.633717 -23.755409 -12.000000
v 18.640841 -22.215289 -12.000000
v 20.506097 -20.506097 -12.000000
v 22.215289 -18.640841 -12.000000
v 23.755409 -16.633717 -12.000000
v 25.114737 -14.500000 -12.000000
v 26.282926 -12.255930 -12.000000
v 27.251086 -9.918584 -12.000000
v 28.011849 -7.505752 -12.000000
v 28.559425 -5.035797 -12.000000
v 28.889646 -2.527517 -12.000000
v 6.000000 0.000000 -12.000000
v 5.977168 0.522934 -12.000000
v 5.908847 1.041889 -12.000000
v 5.795555 1.552914 -12.000000
v 5.638156 2.052121 -12.000000
v 5.437847 2.535710 -12.000000
v 5.196152 3.000000 -12.000000
v 4.914912 3.441459 -12.000000
v 4.596267 3.856726 -12.000000
v 4.242641 4.242641 -12.000000
v 3.856726 4.596267 -12.000000
v 3.441459 4.914912 -12.000000
v 3.000000 5.196152 -12.000000
v 2.535710 5.437847 -12.000000
v 2.052121 5.638156 -12.000000
v 1.552914 5.795555 -12.000000
v 1.041889 5.908847 -12.000000
v 0.522934 5.977168 -12.000000
v 0.000000 6.000000 -12.000000
v -0.522934 5.977168 -12.000000
v -1.041889 5.908847 -12.000000
v -1.552914 5.795555 -12.000000
v -2.052121 5.638156 -12.000000
v -2.535710 5.437847 -12.000000
v -3.000000 5.196152 -12.000000
v -3.441459 4.914912 -12.000000
v -3.856726 4.596267 -12.000000
v -4.242641 4.242641 -12.000000
v -4.596267 3.856726 -12.000000
v -4.914912 3.441459 -12.000000
v -5.196152 3.000000 -12.000000
v -5.437847 2.535710 -12.000000
v -5.638156 2.052121 -12.000000
v -5.795555 1.552914 -12.000000
v -5.908847 1.041889 -12.000000
v -5.977168 0.522934 -12.000000
v -6.000000 0.000000 -12.000000
v -5.977168 -0.522934 -12.000000
v -5.908847 -1.041889 -12.000000
v -5.795555 -1.552914 -12.000000
v -5.638156 -2.052121 -12.000000
v -5.437847 -2.535710 -12.000000
v -5.196152 -3.000000 -12.000000
v -4.914912 -3.441459 -12.000000
v -4.596267 -3.856726 -12.000000
v -4.242641 -4.242641 -12.000000
v -3.856726 -4.596267 -12.000000
v -3.441459 -4.914912 -12.000000
v -3.000000 -5.196152 -12.000000
v -2.535710 -5.437847 -12.000000
v -2.052121 -5.638156 -12.000000
v -1.552914 -5.795555 -12.000000
v -1.041889 -5.908847 -12.000000
v -0.522934 -5.977168 -12.000000
v -0.000000 -6.000000 -12.000000
v 0.522934 -5.977168 -12.000000
v 1.041889 -5.908847 -12.000000
v 1.552914 -5.795555 -12.000000
v 2.052121 -5.638156 -12.000000
v 2.535710 -5.437847 -12.000000
v 3.000000 -5.196152 -12.000000
v 3.441459 -4.914912 -12.000000
v 3.856726 -4.596267 -12.000000
v 4.242641 -4.242641 -12.000000
v 4.596267 -3.856726 -12.000000
v 4.914912 -3.441459 -12.000000
v 5.196152 -3.000000 -12.000000
v 5.437847 -2.535710 -12.000000
v 5.638156 -2.052121 -12.000000
v 5.795555 -1.552914 -12.000000
v 5.908847 -1.041889 -12.000000
v 5.977168 -0.522934 -12.000000
v 29.000000 0.000000 12.000000
v 28.889646 2.527517 12.000000
v 28.559425 5.035797 12.000000
v 28.011849 7.505752 12.000000
v 27.251086 9.918584 12.000000
v 26.282926 12.255930 12.000000
v 25.114737 14.500000 12.000000
v 23.755409 16.633717 12.000000
v 22.215289 18.640841 12.000000
v 20.506097 20.506097 12.000000
v 18.640841 22.215289 12.000000
v 16.633717 23.755409 12.000000
v 14.500000 25.114737 12.000000
v 12.255930 26.282926 12.000000
v 9.918584 27.251086 12.000000
v 7.505752 28.011849 12.000000
v 5.035797 28.559425 12.000000
v 2.527517 28.889646 12.000000
v 0.000000 29.000000 12.000000
v -2.527517 28.889646 12.000000
v -5.035797 28.559425 12.000000
v -7.505752 28.011849 12.000000
v -9.918584 27.251086 12.000000
v -12.255930 26.282926 12.000000
v -14.500000 25.114737 12.000000
v -16.633717 23.755409 12.000000
v -18.640841 22.215289 12.000000
v -20.506097 20.506097 12.000000
v -22.215289 18.640841 12.000000
v -23.755409 16.633717 12.000000
v -25.114737 14.500000 12.000000
v -26.282926 12.255930 12.000000
v -27.251086 9.918584 12.000000
v -28.011849 7.505752 12.000000
v -28.559425 5.035797 12.000000
v -28.889646 2.527517 12.000000
v -29.000000 0.000000 12.000000
v -28.889646 -2.527517 12.000000
v -28.559425 -5.035797 12.000000
v -28.011849 -7.505752 12.000000
v -27.251086 -9.918584 12.000000
v -26.282926 -12.255930 12.000000
v -25.114737 -14.500000 12.000000
v -23.755409 -16.633717 12.000000
v -22.215289 -18.640841 12.000000
v -20.506097 -20.506097 12.000000
v -18.640841 -22.215289 12.000000
v -16.633717 -23.755409 12.000000
v -14.500000 -25.114737 12.000000
v -12.255930 -26.282926 12.000000
v -9.918584 -27.251086 12.000000
v -7.505752 -28.011849 12.000000
v -5.035797 -28.559425 12.000000
v -2.527517 -28.889646 12.000000
v -0.000000 -29.000000 12.000000
v 2.527517 -28.889646 12.000000
v 5.035797 -28.559425 12.000000
v 7.505752 -28.011849 12.000000
v 9.918584 -27.251086 12.000000
v 12.255930 -26.282926 12.000000
v 14.500000 -25.114737 12.000000
v 16.633717 -23.755409 12.000000
v 18.640841 -22.215289 12.000000
v 20.506097 -20.506097 12.000000
v 22.215289 -18.640841 12.000000
v 23.755409 -16.633717 12.000000
v 25.114737 -14.500000 12.000000
v 26.282926 -12.255930 12.000000
v 27.251086 -9.918584 12.000000
v 28.011849 -7.505752 12.000000
v 28.559425 -5.035797 12.000000
v 28.889646 -2.527517 12.000000
v 6.000000 0.000000 12.000000
v 5.977168 0.522934 12.000000
v 5.908847 1.041889 12.000000
v 5.795555 1.552914 12.000000
v 5.638156 2.052121 12.000000
v 5.437847 2.535710 12.000000
v 5.196152 3.000000 12.000000
v 4.914912 3.441459 12.000000
v 4.596267 3.856726 12.000000
v 4.242641 4.242641 12.000000
v 3.856726 4.596267 12.000000
v 3.441459 4.914912 12.000000
v 3.000000 5.196152 12.000000
v 2.535710 5.437847 12.000000
v 2.052121 5.638156 12.000000
v 1.552914 5.795555 12.000000
v 1.041889 5.908847 12.000000
v 0.522934 5.977168 12.000000
v 0.000000 6.000000 12.000000
v -0.522934 5.977168 12.000000
v -1.041889 5.908847 12.000000
v -1.552914 5.795555 12.000000
v -2.052121 5.638156 12.000000
v -2.535710 5.437847 12.000000
v -3.000000 5.196152 12.000000
v -3.441459 4.914912 12.000000
v -3.856726 4.596267 12.000000
v -4.242641 4.242641 12.000000
v -4.596267 3.856726 12.000000
v -4.914912 3.441459 12.000000
v -5.196152 3.000000 12.000000
v -5.437847 2.535710 12.000000
v -5.638156 2.052121 12.000000
v -5.795555 1.552914 12.000000
v -5.908847 1.041889 12.000000
v -5.977168 0.522934 12.000000
v -6.000000 0.000000 12.000000
v -5.977168 -0.522934 12.000000
v -5.908847 -1.041889 12.000000
v -5.795555 -1.552914 12.000000
v -5.638156 -2.052121 12.000000
v -5.437847 -2.535710 12.000000
v -5.196152 -3.000000 12.000000
v -4.914912 -3.441459 12.000000
v -4.596267 -3.856726 12.000000
v -4.242641 -4.242641 12.000000
v -3.856726 -4.596267 12.000000
v -3.441459 -4.914912 12.000000
v -3.000000 -5.196152 12.000000
v -2.535710 -5.437847 12.000000
v -2.052121 -5.638156 12.000000
v -1.552914 -5.795555 12.000000
v -1.041889 -5.908847 12.000000
v -0.522934 -5.977168 12.000000
v -0.000000 -6.000000 12.000000
v 0.522934 -5.977168 12.000000
v 1.041889 -5.908847 12.000000
v 1.552914 -5.795555 12.000000
v 2.052121 -5.638156 12.000000
v 2.535710 -5.437847 12.000000
v 3.000000 -5.196152 12.000000
v 3.441459 -4.914912 12.000000
v 3.856726 -4.596267 12.000000
v 4.242641 -4.242641 12.000000
v 4.596267 -3.856726 12.000000
v 4.914912 -3.441459 12.000000
v 5.196152 -3.000000 12.000000
v 5.437847 -2.535710 12.000000
v 5.638156 -2.052121 12.000000
v 5.795555 -1.552914 12.000000
v 5.908847 -1.041889 12.000000
v 5.977168 -0.522934 12.000000
f 1 2 146
f 1 146 145
f 73 218 74
f 73 217 218
f 145 146 218
f 145 218 217
f 1 74 2
f 1 73 74
f 2 3 147
f 2 147 146
f 74 219 75
f 74 218 219
f 146 147 219
f 146 219 218
f 2 75 3
f 2 74 75
f 3 4 148
f 3 148 147
f 75 220 76
f 75 219 220
f 147 148 220
f 147 220 219
f 3 76 4
f 3 75 76
f 4 5 149
f 4 149 148
f 76 221 77
f 76 220 221
f 148 149 221
f 148 221 220
f 4 77 5
f 4 76 77
f 5 6 150
f 5 150 149
f 77 222 78
f 77 221 222
f 149 150 222
f 149 222 221
f 5 78 6
f 5 77 78
f 6 7 151
f 6 151 150
f 78 223 79
f 78 222 223
f 150 151 223
f 150 223 222
f 6 79 7
f 6 78 79
f 7 8 152
f 7 152 151
f 79 224 80
f 79 223 224
f 151 152 224
f 151 224 223
f 7 80 8
f 7 79 80
f 8 9 153
f 8 153 152
f 80 225 81
f 80 224 225
f 152 153 225
f 152 225 224
f 8 81 9
f 8 80 81
f 9 10 154
f 9 154 153
f 81 226 82
f 81 225 226
f 153 154 226
f 153 226 225
f 9 82 10
f 9 81 82
f 10 11 155
f 10 155 154
f 82 227 83
f 82 226 227
f 154 155 227
f 154 227 226
f 10 83 11
f 10 82 83
f 11 12 156
f 11 156 155
f 83 228 84
f 83 227 228
f 155 156 228
f 155 228 227
f 11 84 12
f 11 83 84
f 12 13 157
f 12 157 156
f 84 229 85
f 84 228 229
f 156 157 229
f 156 229 228
f 12 85 13
f 12 84 85
f 13 14 158
f 13 158 157
f 85 230 86
f 85 229 230
f 157 158 230
f 157 230 229
f 13 86 14
f 13 85 86
f 14 15 159
f 14 159 158
f 86 231 87
f 86 230 231
f 158 159 231
f 158 231 230
f 14 87 15
f 14 86 87
f 15 16 160
f 15 160 159
f 87 232 88
f 87 231 232
f 159 160 232
f 159 232 231
f 15 88 16
f 15 87 88
f 16 17 161
f 16 161 160
f 88 233 89
f 88 232 233
f 160 161 233
f 160 233 232
f 16 89 17
f 16 88 89
f 17 18 162
f 17 162 161
f 89 234 90
f 89 233 234
f 161 162 234
f 161 234 233
f 17 90 18
f 17 89 90
f 18 19 163
f 18 163 162
f 90 235 91
f 90 234 235
f 162 163 235
f 162 235 234
f 18 91 19
f 18 90 91
f 19 20 164
f 19 164 163
f 91 236 92
f 91 235 236
f 163 164 236
f 163 236 235
f 19 92 20
f 19 91 92
f 20 21 165
f 20 165 164
f 92 237 93
f 92 236 237
f 164 165 237
f 164 237 236
f 20 93 21
f 20 92 93
f 21 22 166
f 21 166 165
f 93 238 94
f 93 237 238
f 165 166 238
f 165 238 237
f 21 94 22
f 21 93 94
f 22 23 167
f 22 167 166
f 94 239 95
f 94 238 239
f 166 167 239
f 166 239 238
f 22 95 23
f 22 94 95
f 23 24 168
f 23 168 167
f 95 240 96
f 95 239 240
f 167 168 240
f 167 240 239
f 23 96 24
f 23 95 96
f 24 25 169
f 24 169 168
f 96 241 97
f 96 240 241
f 168 169 241
f 168 241 240
f 24 97 25
f 24 96 97
f 25 26 170
f 25 170 169
f 97 242 98
f 97 241 242
f 169 170 242
f 169 242 241
f 25 98 26
f 25 97 98
f 26 27 171
f 26 171 170
f 98 243 99
f 98 242 243
f 170 171 243
f 170 243 242
f 26 99 27
f 26 98 99
f 27 28 172
f 27 172 171
f 99 244 100
f 99 243 244
f 171 172 244
f 171 244 243
f 27 100 28
f 27 99 100
f 28 29 173
f 28 173 172
f 100 245 101
f 100 244 245
f 172 173 245
f 172 245 244
f 28 101 29
f 28 100 101
f 29 30 174
f 29 174 173
f 101 246 102
f 101 245 246
f 173 174 246
f 173 246 245
f 29 102 30
f 29 101 102
f 30 31 175
f 30 175 174
f 102 247 103
f 102 246 247
f 174 175 247
f 174 247 246
f 30 103 31
f 30 102 103
f 31 32 176
f 31 176 175
f 103 248 104
f 103 247 248
f 175 176 248
f 175 248 247
f 31 104 32
f 31 103 104
f 32 33 177
f 32 177 176
f 104 249 105
f 104 248 249
f 176 177 249
f 176 249 248
f 32 105 33
f 32 104 105
f 33 34 178
f 33 178 177
f 105 250 106
f 105 249 250
f 177 178 250
f 177 250 249
f 33 106 34
f 33 105 106
f 34 35 179
f 34 179 178
f 106 251 107
f 106 250 251
f 178 179 251
f 178 251 250
f 34 107 35
f 34 106 107
f 35 36 180
f 35 180 179
f 107 252 108
f 107 251 252
f 179 180 252
f 179 252 251
f 35 108 36
f 35 107 108
f 36 37 181
f 36 181 180
f 108 253 109
f 108 252 253
f 180 181 253
f 180 253 252
f 36 109 37
f 36 108 109
f 37 38 182
f 37 182 181
f 109 254 110
f 109 253 254
f 181 182 254
f 181 254 253
f 37 110 38
f 37 109 110
f 38 39 183
f 38 183 182
f 110 255 111
f 110 254 255
f 182 183 255
f 182 255 254
f 38 111 39
f 38 110 111
f 39 40 184
f 39 184 183
f 111 256 112
f 111 255 256
f 183 184 256
f 183 256 255
f 39 112 40
f 39 111 112
f 40 41 185
f 40 185 184
f 112 257 113
f 112 256 257
f 184 185 257
f 184 257 256
f 40 113 41
f 40 112 113
f 41 42 186
f 41 186 185
f 113 258 114
f 113 257 258
f 185 186 258
f 185 258 257
f 41 114 42
f 41 113 114
f 42 43 187
f 42 187 186
f 114 259 115
f 114 258 259
f 186 187 259
f 186 259 258
f 42 115 43
f 42 114 115
f 43 44 188
f 43 188 187
f 115 260 116
f 115 259 260
f 187 188 260
f 187 260 259
f 43 116 44
f 43 115 116
f 44 45 189
f 44 189 188
f 116 261 117
f 116 260 261
f 188 189 261
f 188 261 260
f 44 117 45
f 44 116 117
f 45 46 190
f 45 190 189
f 117 262 118
f 117 261 262
f 189 190 262
f 189 262 261
f 45 118 46
f 45 117 118
f 46 47 191
f 46 191 190
f 118 263 119
f 118 262 263
f 190 191 263
f 190 263 262
f 46 119 47
f 46 118 119
f 47 48 192
f 47 192 191
f 119 264 120
f 119 263 264
f 191 192 264
f 191 264 263
f 47 120 48
f 47 119 120
f 48 49 193
f 48 193 192
f 120 265 121
f 120 264 265
f 192 193 265
f 192 265 264
f 48 121 49
f 48 120 121
f 49 50 194
f 49 194 193
f 121 266 122
f 121 265 266
f 193 194 266
f 193 266 265
f 49 122 50
f 49 121 122
f 50 51 195
f 50 195 194
f 122 267 123
f 122 266 267
f 194 195 267
f 194 267 266
f 50 123 51
f 50 122 123
f 51 52 196
f 51 196 195
f 123 268 124
f 123 267 268
f 195 196 268
f 195 268 267
f 51 124 52
f 51 123 124
f 52 53 197
f 52 197 196
f 124 269 125
f 124 268 269
f 196 197 269
f 196 269 268
f 52 125 53
f 52 124 125
f 53 54 198
f 53 198 197
f 125 270 126
f 125 269 270
f 197 198 270
f 197 270 269
f 53 126 54
f 53 125 126
f 54 55 199
f 54 199 198
f 126 271 127
f 126 270 271
f 198 199 271
f 198 271 270
f 54 127 55
f 54 126 127
f 55 56 200
f 55 200 199
f 127 272 128
f 127 271 272
f 199 200 272
f 199 272 271
f 55 128 56
f 55 127 128
f 56 57 201
f 56 201 200
f 128 273 129
f 128 272 273
f 200 201 273
f 200 273 272
f 56 129 57
f 56 128 129
f 57 58 202
f 57 202 201
f 129 274 130
f 129 273 274
f 201 202 274
f 201 274 273
f 57 130 58
f 57 129 130
f 58 59 203
f 58 203 202
f 130 275 131
f 130 274 275
f 202 203 275
f 202 275 274
f 58 131 59
f 58 130 131
f 59 60 204
f 59 204 203
f 131 276 132
f 131 275 276
f 203 204 276
f 203 276 275
f 59 132 60
f 59 131 132
f 60 61 205
f 60 205 204
f 132 277 133
f 132 276 277
f 204 205 277
f 204 277 276
f 60 133 61
f 60 132 133
f 61 62 206
f 61 206 205
f 133 278 134
f 133 277 278
f 205 206 278
f 205 278 277
f 61 134 62
f 61 133 134
f 62 63 207
f 62 207 206
f 134 279 135
f 134 278 279
f 206 207 279
f 206 279 278
f 62 135 63
f 62 134 135
f 63 64 208
f 63 208 207
f 135 280 136
f 135 279 280
f 207 208 280
f 207 280 279
f 63 136 64
f 63 135 136
f 64 65 209
f 64 209 208
f 136 281 137
f 136 280 281
f 208 209 281
f 208 281 280
f 64 137 65
f 64 136 137
f 65 66 210
f 65 210 209
f 137 282 138
f 137 281 282
f 209 210 282
f 209 282 281
f 65 138 66
f 65 137 138
f 66 67 211
f 66 211 210
f 138 283 139
f 138 282 283
f 210 211 283
f 210 283 282
f 66 139 67
f 66 138 139
f 67 68 212
f 67 212 211
f 139 284 140
f 139 283 284
f 211 212 284
f 211 284 283
f 67 140 68
f 67 139 140
f 68 69 213
f 68 213 212
f 140 285 141
f 140 284 285
f 212 213 285
f 212 285 284
f 68 141 69
f 68 140 141
f 69 70 214
f 69 214 213
f 141 286 142
f 141 285 286
f 213 214 286
f 213 286 285
f 69 142 70
f 69 141 142
f 70 71 215
f 70 215 214
f 142 287 143
f 142 286 287
f 214 215 287
f 214 287 286
f 70 143 71
f 70 142 143
f 71 72 216
f 71 216 215
f 143 288 144
f 143 287 288
f 215 216 288
f 215 288 287
f 71 144 72
f 71 143 144
f 72 1 145
f 72 145 216
f 144 217 73
f 144 288 217
f 216 145 217
f 216 217 288
f 72 73 1
f 72 144 73
o Blade_1
v 29.000000 -13.371670 -16.474930
v 29.000000 21.300803 10.614175
v 29.000000 15.452019 18.100277
v 29.000000 -19.220454 -8.988828
v 34.232558 -12.939657 -16.218511
v 34.232558 21.851577 10.354555
v 34.232558 16.155000 17.812895
v 34.232558 -18.636234 -8.760171
v 39.465116 -12.505213 -15.959134
v 39.465116 22.392926 10.095027
v 39.465116 16.847830 17.522384
v 39.465116 -18.050310 -8.531778
v 44.697674 -12.071688 -15.696852
v 44.697674 22.921252 9.835670
v 44.697674 17.526868 17.228804
v 44.697674 -17.466072 -8.303719
v 49.930233 -11.642385 -15.431719
v 49.930233 23.432989 9.576563
v 49.930233 18.188505 16.932216
v 49.930233 -16.886869 -8.076066
v 55.162791 -11.220549 -15.163786
v 55.162791 23.924621 9.317789
v 55.162791 18.829182 16.632681
v 55.162791 -16.315988 -7.848894
v 60.395349 -10.809343 -14.893108
v 60.395349 24.392701 9.059430
v 60.395349 19.445407 16.330260
v 60.395349 -15.756636 -7.622278
v 65.627907 -10.411835 -14.619737
v 65.627907 24.833862 8.801572
v 65.627907 20.033772 16.025016
v 65.627907 -15.211924 -7.396294
v 70.860465 -10.030973 -14.343728
v 70.860465 25.244841 8.544303
v 70.860465 20.590969 15.717010
v 70.860465 -14.684845 -7.171021
v 76.093023 -9.669575 -14.065133
v 76.093023 25.622491 8.287712
v 76.093023 21.113807 15.406304
v 76.093023 -14.178259 -6.946541
v 81.325581 -9.330306 -13.784006
v 81.325581 25.963796 8.031891
v 81.325581 21.599226 15.092960
v 81.325581 -13.694876 -6.722937
v 86.558140 -9.015667 -13.500400
v 86.558140 26.265883 7.776933
v 86.558140 22.044311 14.777040
v 86.558140 -13.237239 -6.500293
v 91.790698 -8.727974 -13.214367
v 91.790698 26.526042 7.522934
v 91.790698 22.446305 14.458605
v 91.790698 -12.807711 -6.278696
v 97.023256 -8.469349 -12.925959
v 97.023256 26.741731 7.269995
v 97.023256 22.802624 14.137716
v 97.023256 -12.408455 -6.058237
v 102.255814 -8.241701 -12.635226
v 102.255814 26.910588 7.018215
v 102.255814 23.110863 13.814432
v 102.255814 -12.041427 -5.839009
v 107.488372 -8.046717 -12.342217
v 107.488372 27.030446 6.767700
v 107.488372 23.368807 13.488812
v 107.488372 -11.708355 -5.621105
v 112.720930 -7.885846 -12.046979
v 112.720930 27.099333 6.518556
v 112.720930 23.574443 13.160911
v 112.720930 -11.410735 -5.404624
v 117.953488 -7.760290 -11.749558
v 117.953488 27.115483 6.270895
v 117.953488 23.725962 12.830785
v 117.953488 -11.149812 -5.189668
v 123.186047 -7.670993 -11.449996
v 123.186047 27.077344 6.024829
v 123.186047 23.821763 12.498486
v 123.186047 -10.926574 -4.976340
v 128.418605 -7.618631 -11.148333
v 128.418605 26.983572 5.780477
v 128.418605 23.860461 12.164062
v 128.418605 -10.741741 -4.764748
v 133.651163 -7.603601 -10.844603
v 133.651163 26.833040 5.537959
v 133.651163 23.840886 11.827557
v 133.651163 -10.595754 -4.555005
v 138.883721 -7.626014 -10.538837
v 138.883721 26.624835 5.297401
v 138.883721 23.762080 11.489011
v 138.883721 -10.488770 -4.347227
v 144.116279 -7.685690 -10.231058
v 144.116279 26.358253 5.058932
v 144.116279 23.623294 11.148458
v 144.116279 -10.420649 -4.141533
v 149.348837 -7.782142 -9.921284
v 149.348837 26.032793 4.822687
v 149.348837 23.423986 10.805922
v 149.348837 -10.390949 -3.938048
v 154.581395 -7.914576 -9.609521
v 154.581395 25.648149 4.588804
v 154.581395 23.163806 10.461420
v 154.581395 -10.398919 -3.736904
v 159.813953 -8.081879 -9.295765
v 159.813953 25.204195 4.357427
v 159.813953 22.842587 10.114957
v 159.813953 -10.443487 -3.538236
v 165.046512 -8.282608 -8.979999
v 165.046512 24.700973 4.128707
v 165.046512 22.460329 9.766521
v 165.046512 -10.523251 -3.342184
v 170.279070 -8.514980 -8.662185
v 170.279070 24.138663 3.902798
v 170.279070 22.017174 9.416084
v 170.279070 -10.636469 -3.148899
v 175.511628 -8.776859 -8.342265
v 175.511628 23.517563 3.679861
v 175.511628 21.513381 9.063593
v 175.511628 -10.781041 -2.958533
v 180.744186 -9.065734 -8.020153
v 180.744186 22.838046 3.460064
v 180.744186 20.949287 8.708966
v 180.744186 -10.954492 -2.771251
v 185.976744 -9.378692 -7.695724
v 185.976744 22.100514 3.243578
v 185.976744 20.325264 8.352082
v 185.976744 -11.153942 -2.587220
v 191.209302 -9.712385 -7.368806
v 191.209302 21.305340 3.030583
v 191.209302 19.641655 7.992769
v 191.209302 -11.376070 -2.406619
v 196.441860 -10.062974 -7.039164
v 196.441860 20.452777 2.821258
v 196.441860 18.898694 7.630790
v 196.441860 -11.617057 -2.229633
v 201.674419 -10.426052 -6.706476
v 201.674419 19.542848 2.615788
v 201.674419 18.096390 7.265812
v 201.674419 -11.872510 -2.056452
v 206.906977 -10.796527 -6.370301
v 206.906977 18.575184 2.414352
v 206.906977 17.234376 6.897381
v 206.906977 -12.137336 -1.887273
v 212.139535 -11.168442 -6.030028
v 212.139535 17.548783 2.217119
v 212.139535 16.311667 6.524857
v 212.139535 -12.405559 -1.722291
v 217.372093 -11.534683 -5.684796
v 217.372093 16.461642 2.024232
v 217.372093 15.326310 6.147338
v 217.372093 -12.670016 -1.561690
v 222.604651 -11.886494 -5.333360
v 222.604651 15.310157 1.835775
v 222.604651 14.274792 5.763508
v 222.604651 -12.921858 -1.405627
v 227.837209 -12.212596 -4.973847
v 227.837209 14.088067 1.651719
v 227.837209 13.151024 5.371381
v 227.837209 -13.149639 -1.254185
v 233.069767 -12.497482 -4.603291
v 233.069767 12.784435 1.471787
v 233.069767 11.944367 4.967795
v 233.069767 -13.337550 -1.107283
v 238.302326 -12.717645 -4.216578
v 238.302326 11.379207 1.295133
v 238.302326 10.635339 4.547280
v 238.302326 -13.461514 -0.964430
v 243.534884 -12.831482 -3.803641
v 243.534884 9.831434 1.119369
v 243.534884 9.184171 4.099021
v 243.534884 -13.478745 -0.823988
v 248.767442 -12.741097 -3.338788
v 248.767442 8.034748 0.936427
v 248.767442 7.487610 3.595301
v 248.767442 -13.288235 -0.679914
v 254.000000 -11.633311 -2.604354
v 254.000000 5.054351 0.639399
v 254.000000 4.634571 2.798979
v 254.000000 -12.053091 -0.444774
f 289 293 294
f 289 294 290
f 290 294 295
f 290 295 291
f 291 295 296
f 291 296 292
f 292 296 293
f 292 293 289
f 293 297 298
f 293 298 294
f 294 298 299
f 294 299 295
f 295 299 300
f 295 300 296
f 296 300 297
f 296 297 293
f 297 301 302
f 297 302 298
f 298 302 303
f 298 303 299
f 299 303 304
f 299 304 300
f 300 304 301
f 300 301 297
f 301 305 306
f 301 306 302
f 302 306 307
f 302 307 303
f 303 307 308
f 303 308 304
f 304 308 305
f 304 305 301
f 305 309 310
f 305 310 306
f 306 310 311
f 306 311 307
f 307 311 312
f 307 312 308
f 308 312 309
f 308 309 305
f 309 313 314
f 309 314 310
f 310 314 315
f 310 315 311
f 311 315 316
f 311 316 312
f 312 316 313
f 312 313 309
f 313 317 318
f 313 318 314
f 314 318 319
f 314 319 315
f 315 319 320
f 315 320 316
f 316 320 317
f 316 317 313
f 317 321 322
f 317 322 318
f 318 322 323
f 318 323 319
f 319 323 324
f 319 324 320
f 320 324 321
f 320 321 317
f 321 325 326
f 321 326 322
f 322 326 327
f 322 327 323
f 323 327 328
f 323 328 324
f 324 328 325
f 324 325 321
f 325 329 330
f 325 330 326
f 326 330 331
f 326 331 327
f 327 331 332
f 327 332 328
f 328 332 329
f 328 329 325
f 329 333 334
f 329 334 330
f 330 334 335
f 330 335 331
f 331 335 336
f 331 336 332
f 332 336 333
f 332 333 329
f 333 337 338
f 333 338 334
f 334 338 339
f 334 339 335
f 335 339 340
f 335 340 336
f 336 340 337
f 336 337 333
f 337 341 342
f 337 342 338
f 338 342 343
f 338 343 339
f 339 343 344
f 339 344 340
f 340 344 341
f 340 341 337
f 341 345 346
f 341 346 342
f 342 346 347
f 342 347 343
f 343 347 348
f 343 348 344
f 344 348 345
f 344 345 341
f 345 349 350
f 345 350 346
f 346 350 351
f 346 351 347
f 347 351 352
f 347 352 348
f 348 352 349
f 348 349 345
f 349 353 354
f 349 354 350
f 350 354 355
f 350 355 351
f 351 355 356
f 351 356 352
f 352 356 353
f 352 353 349
f 353 357 358
f 353 358 354
f 354 358 359
f 354 359 355
f 355 359 360
f 355 360 356
f 356 360 357
f 356 357 353
f 357 361 362
f 357 362 358
f 358 362 363
f 358 363 359
f 359 363 364
f 359 364 360
f 360 364 361
f 360 361 357
f 361 365 366
f 361 366 362
f 362 366 367
f 362 367 363
f 363 367 368
f 363 368 364
f 364 368 365
f 364 365 361
f 365 369 370
f 365 370 366
f 366 370 371
f 366 371 367
f 367 371 372
f 367 372 368
f 368 372 369
f 368 369 365
f 369 373 374
f 369 374 370
f 370 374 375
f 370 375 371
f 371 375 376
f 371 376 372
f 372 376 373
f 372 373 369
f 373 377 378
f 373 378 374
f 374 378 379
f 374 379 375
f 375 379 380
f 375 380 376
f 376 380 377
f 376 377 373
f 377 381 382
f 377 382 378
f 378 382 383
f 378 383 379
f 379 383 384
f 379 384 380
f 380 384 381
f 380 381 377
f 381 385 386
f 381 386 382
f 382 386 387
f 382 387 383
f 383 387 388
f 383 388 384
f 384 388 385
f 384 385 381
f 385 389 390
f 385 390 386
f 386 390 391
f 386 391 387
f 387 391 392
f 387 392 388
f 388 392 389
f 388 389 385
f 389 393 394
f 389 394 390
f 390 394 395
f 390 395 391
f 391 395 396
f 391 396 392
f 392 396 393
f 392 393 389
f 393 397 398
f 393 398 394
f 394 398 399
f 394 399 395
f 395 399 400
f 395 400 396
f 396 400 397
f 396 397 393
f 397 401 402
f 397 402 398
f 398 402 403
f 398 403 399
f 399 403 404
f 399 404 400
f 400 404 401
f 400 401 397
f 401 405 406
f 401 406 402
f 402 406 407
f 402 407 403
f 403 407 408
f 403 408 404
f 404 408 405
f 404 405 401
f 405 409 410
f 405 410 406
f 406 410 411
f 406 411 407
f 407 411 412
f 407 412 408
f 408 412 409
f 408 409 405
f 409 413 414
f 409 414 410
f 410 414 415
f 410 415 411
f 411 415 416
f 411 416 412
f 412 416 413
f 412 413 409
f 413 417 418
f 413 418 414
f 414 418 419
f 414 419 415
f 415 419 420
f 415 420 416
f 416 420 417
f 416 417 413
f 417 421 422
f 417 422 418
f 418 422 423
f 418 423 419
f 419 423 424
f 419 424 420
f 420 424 421
f 420 421 417
f 421 425 426
f 421 426 422
f 422 426 427
f 422 427 423
f 423 427 428
f 423 428 424
f 424 428 425
f 424 425 421
f 425 429 430
f 425 430 426
f 426 430 431
f 426 431 427
f 427 431 432
f 427 432 428
f 428 432 429
f 428 429 425
f 429 433 434
f 429 434 430
f 430 434 435
f 430 435 431
f 431 435 436
f 431 436 432
f 432 436 433
f 432 433 429
f 433 437 438
f 433 438 434
f 434 438 439
f 434 439 435
f 435 439 440
f 435 440 436
f 436 440 437
f 436 437 433
f 437 441 442
f 437 442 438
f 438 442 443
f 438 443 439
f 439 443 444
f 439 444 440
f 440 444 441
f 440 441 437
f 441 445 446
f 441 446 442
f 442 446 447
f 442 447 443
f 443 447 448
f 443 448 444
f 444 448 445
f 444 445 441
f 445 449 450
f 445 450 446
f 446 450 451
f 446 451 447
f 447 451 452
f 447 452 448
f 448 452 449
f 448 449 445
f 449 453 454
f 449 454 450
f 450 454 455
f 450 455 451
f 451 455 456
f 451 456 452
f 452 456 453
f 452 453 449
f 453 457 458
f 453 458 454
f 454 458 459
f 454 459 455
f 455 459 460
f 455 460 456
f 456 460 457
f 456 457 453
f 457 461 462
f 457 462 458
f 458 462 463
f 458 463 459
f 459 463 464
f 459 464 460
f 460 464 461
f 460 461 457
f 289 292 291
f 289 291 290
f 461 462 463
f 461 463 464
o Blade_2
v -29.000000 13.371670 -16.474930
v -29.000000 -21.300803 10.614175
v -29.000000 -15.452019 18.100277
v -29.000000 19.220454 -8.988828
v -34.232558 12.939657 -16.218511
v -34.232558 -21.851577 10.354555
v -34.232558 -16.155000 17.812895
v -34.232558 18.636234 -8.760171
v -39.465116 12.505213 -15.959134
v -39.465116 -22.392926 10.095027
v -39.465116 -16.847830 17.522384
v -39.465116 18.050310 -8.531778
v -44.697674 12.071688 -15.696852
v -44.697674 -22.921252 9.835670
v -44.697674 -17.526868 17.228804
v -44.697674 17.466072 -8.303719
v -49.930233 11.642385 -15.431719
v -49.930233 -23.432989 9.576563
v -49.930233 -18.188505 16.932216
v -49.930233 16.886869 -8.076066
v -55.162791 11.220549 -15.163786
v -55.162791 -23.924621 9.317789
v -55.162791 -18.829182 16.632681
v -55.162791 16.315988 -7.848894
v -60.395349 10.809343 -14.893108
v -60.395349 -24.392701 9.059430
v -60.395349 -19.445407 16.330260
v -60.395349 15.756636 -7.622278
v -65.627907 10.411835 -14.619737
v -65.627907 -24.833862 8.801572
v -65.627907 -20.033772 16.025016
v -65.627907 15.211924 -7.396294
v -70.860465 10.030973 -14.343728
v -70.860465 -25.244841 8.544303
v -70.860465 -20.590969 15.717010
v -70.860465 14.684845 -7.171021
v -76.093023 9.669575 -14.065133
v -76.093023 -25.622491 8.287712
v -76.093023 -21.113807 15.406304
v -76.093023 14.178259 -6.946541
v -81.325581 9.330306 -13.784006
v -81.325581 -25.963796 8.031891
v -81.325581 -21.599226 15.092960
v -81.325581 13.694876 -6.722937
v -86.558140 9.015667 -13.500400
v -86.558140 -26.265883 7.776933
v -86.558140 -22.044311 14.777040
v -86.558140 13.237239 -6.500293
v -91.790698 8.727974 -13.214367
v -91.790698 -26.526042 7.522934
v -91.790698 -22.446305 14.458605
v -91.790698 12.807711 -6.278696
v -97.023256 8.469349 -12.925959
v -97.023256 -26.741731 7.269995
v -97.023256 -22.802624 14.137716
v -97.023256 12.408455 -6.058237
v -102.255814 8.241701 -12.635226
v -102.255814 -26.910588 7.018215
v -102.255814 -23.110863 13.814432
v -102.255814 12.041427 -5.839009
v -107.488372 8.046717 -12.342217
v -107.488372 -27.030446 6.767700
v -107.488372 -23.368807 13.488812
v -107.488372 11.708355 -5.621105
v -112.720930 7.885846 -12.046979
v -112.720930 -27.099333 6.518556
v -112.720930 -23.574443 13.160911
v -112.720930 11.410735 -5.404624
v -117.953488 7.760290 -11.749558
v -117.953488 -27.115483 6.270895
v -117.953488 -23.725962 12.830785
v -117.953488 11.149812 -5.189668
v -123.186047 7.670993 -11.449996
v -123.186047 -27.077344 6.024829
v -123.186047 -23.821763 12.498486
v -123.186047 10.926574 -4.976340
v -128.418605 7.618631 -11.148333
v -128.418605 -26.983572 5.780477
v -128.418605 -23.860461 12.164062
v -128.418605 10.741741 -4.764748
v -133.651163 7.603601 -10.844603
v -133.651163 -26.833040 5.537959
v -133.651163 -23.840886 11.827557
v -133.651163 10.595754 -4.555005
v -138.883721 7.626014 -10.538837
v -138.883721 -26.624835 5.297401
v -138.883721 -23.762080 11.489011
v -138.883721 10.488770 -4.347227
v -144.116279 7.685690 -10.231058
v -144.116279 -26.358253 5.058932
v -144.116279 -23.623294 11.148458
v -144.116279 10.420649 -4.141533
v -149.348837 7.782142 -9.921284
v -149.348837 -26.032793 4.822687
v -149.348837 -23.423986 10.805922
v -149.348837 10.390949 -3.938048
v -154.581395 7.914576 -9.609521
v -154.581395 -25.648149 4.588804
v -154.581395 -23.163806 10.461420
v -154.581395 10.398919 -3.736904
v -159.813953 8.081879 -9.295765
v -159.813953 -25.204195 4.357427
v -159.813953 -22.842587 10.114957
v -159.813953 10.443487 -3.538236
v -165.046512 8.282608 -8.979999
v -165.046512 -24.700973 4.128707
v -165.046512 -22.460329 9.766521
v -165.046512 10.523251 -3.342184
v -170.279070 8.514980 -8.662185
v -170.279070 -24.138663 3.902798
v -170.279070 -22.017174 9.416084
v -170.279070 10.636469 -3.148899
v -175.511628 8.776859 -8.342265
v -175.511628 -23.517563 3.679861
v -175.511628 -21.513381 9.063593
v -175.511628 10.781041 -2.958533
v -180.744186 9.065734 -8.020153
v -180.744186 -22.838046 3.460064
v -180.744186 -20.949287 8.708966
v -180.744186 10.954492 -2.771251
v -185.976744 9.378692 -7.695724
v -185.976744 -22.100514 3.243578
v -185.976744 -20.325264 8.352082
v -185.976744 11.153942 -2.587220
v -191.209302 9.712385 -7.368806
v -191.209302 -21.305340 3.030583
v -191.209302 -19.641655 7.992769
v -191.209302 11.376070 -2.406619
v -196.441860 10.062974 -7.039164
v -196.441860 -20.452777 2.821258
v -196.441860 -18.898694 7.630790
v -196.441860 11.617057 -2.229633
v -201.674419 10.426052 -6.706476
v -201.674419 -19.542848 2.615788
v -201.674419 -18.096390 7.265812
v -201.674419 11.872510 -2.056452
v -206.906977 10.796527 -6.370301
v -206.906977 -18.575184 2.414352
v -206.906977 -17.234376 6.897381
v -206.906977 12.137336 -1.887273
v -212.139535 11.168442 -6.030028
v -212.139535 -17.548783 2.217119
v -212.139535 -16.311667 6.524857
v -212.139535 12.405559 -1.722291
v -217.372093 11.534683 -5.684796
v -217.372093 -16.461642 2.024232
v -217.372093 -15.326310 6.147338
v -217.372093 12.670016 -1.561690
v -222.604651 11.886494 -5.333360
v -222.604651 -15.310157 1.835775
v -222.604651 -14.274792 5.763508
v -222.604651 12.921858 -1.405627
v -227.837209 12.212596 -4.973847
v -227.837209 -14.088067 1.651719
v -227.837209 -13.151024 5.371381
v -227.837209 13.149639 -1.254185
v -233.069767 12.497482 -4.603291
v -233.069767 -12.784435 1.471787
v -233.069767 -11.944367 4.967795
v -233.069767 13.337550 -1.107283
v -238.302326 12.717645 -4.216578
v -238.302326 -11.379207 1.295133
v -238.302326 -10.635339 4.547280
v -238.302326 13.461514 -0.964430
v -243.534884 12.831482 -3.803641
v -243.534884 -9.831434 1.119369
v -243.534884 -9.184171 4.099021
v -243.534884 13.478745 -0.823988
v -248.767442 12.741097 -3.338788
v -248.767442 -8.034748 0.936427
v -248.767442 -7.487610 3.595301
v -248.767442 13.288235 -0.679914
v -254.000000 11.633311 -2.604354
v -254.000000 -5.054351 0.639399
v -254.000000 -4.634571 2.798979
v -254.000000 12.053091 -0.444774
f 465 469 470
f 465 470 466
f 466 470 471
f 466 471 467
f 467 471 472
f 467 472 468
f 468 472 469
f 468 469 465
f 469 473 474
f 469 474 470
f 470 474 475
f 470 475 471
f 471 475 476
f 471 476 472
f 472 476 473
f 472 473 469
f 473 477 478
f 473 478 474
f 474 478 479
f 474 479 475
f 475 479 480
f 475 480 476
f 476 480 477
f 476 477 473
f 477 481 482
f 477 482 478
f 478 482 483
f 478 483 479
f 479 483 484
f 479 484 480
f 480 484 481
f 480 481 477
f 481 485 486
f 481 486 482
f 482 486 487
f 482 487 483
f 483 487 488
f 483 488 484
f 484 488 485
f 484 485 481
f 485 489 490
f 485 490 486
f 486 490 491
f 486 491 487
f 487 491 492
f 487 492 488
f 488 492 489
f 488 489 485
f 489 493 494
f 489 494 490
f 490 494 495
f 490 495 491
f 491 495 496
f 491 496 492
f 492 496 493
f 492 493 489
f 493 497 498
f 493 498 494
f 494 498 499
f 494 499 495
f 495 499 500
f 495 500 496
f 496 500 497
f 496 497 493
f 497 501 502
f 497 502 498
f 498 502 503
f 498 503 499
f 499 503 504
f 499 504 500
f 500 504 501
f 500 501 497
f 501 505 506
f 501 506 502
f 502 506 507
f 502 507 503
f 503 507 508
f 503 508 504
f 504 508 505
f 504 505 501
f 505 509 510
f 505 510 506
f 506 510 511
f 506 511 507
f 507 511 512
f 507 512 508
f 508 512 509
f 508 509 505
f 509 513 514
f 509 514 510
f 510 514 515
f 510 515 511
f 511 515 516
f 511 516 512
f 512 516 513
f 512 513 509
f 513 517 518
f 513 518 514
f 514 518 519
f 514 519 515
f 515 519 520
f 515 520 516
f 516 520 517
f 516 517 513
f 517 521 522
f 517 522 518
f 518 522 523
f 518 523 519
f 519 523 524
f 519 524 520
f 520 524 521
f 520 521 517
f 521 525 526
f 521 526 522
f 522 526 527
f 522 527 523
f 523 527 528
f 523 528 524
f 524 528 525
f 524 525 521
f 525 529 530
f 525 530 526
f 526 530 531
f 526 531 527
f 527 531 532
f 527 532 528
f 528 532 529
f 528 529 525
f 529 533 534
f 529 534 530
f 530 534 535
f 530 535 531
f 531 535 536
f 531 536 532
f 532 536 533
f 532 533 529
f 533 537 538
f 533 538 534
f 534 538 539
f 534 539 535
f 535 539 540
f 535 540 536
f 536 540 537
f 536 537 533
f 537 541 542
f 537 542 538
f 538 542 543
f 538 543 539
f 539 543 544
f 539 544 540
f 540 544 541
f 540 541 537
f 541 545 546
f 541 546 542
f 542 546 547
f 542 547 543
f 543 547 548
f 543 548 544
f 544 548 545
f 544 545 541
f 545 549 550
f 545 550 546
f 546 550 551
f 546 551 547
f 547 551 552
f 547 552 548
f 548 552 549
f 548 549 545
f 549 553 554
f 549 554 550
f 550 554 555
f 550 555 551
f 551 555 556
f 551 556 552
f 552 556 553
f 552 553 549
f 553 557 558
f 553 558 554
f 554 558 559
f 554 559 555
f 555 559 560
f 555 560 556
f 556 560 557
f 556 557 553
f 557 561 562
f 557 562 558
f 558 562 563
f 558 563 559
f 559 563 564
f 559 564 560
f 560 564 561
f 560 561 557
f 561 565 566
f 561 566 562
f 562 566 567
f 562 567 563
f 563 567 568
f 563 568 564
f 564 568 565
f 564 565 561
f 565 569 570
f 565 570 566
f 566 570 571
f 566 571 567
f 567 571 572
f 567 572 568
f 568 572 569
f 568 569 565
f 569 573 574
f 569 574 570
f 570 574 575
f 570 575 571
f 571 575 576
f 571 576 572
f 572 576 573
f 572 573 569
f 573 577 578
f 573 578 574
f 574 578 579
f 574 579 575
f 575 579 580
f 575 580 576
f 576 580 577
f 576 577 573
f 577 581 582
f 577 582 578
f 578 582 583
f 578 583 579
f 579 583 584
f 579 584 580
f 580 584 581
f 580 581 577
f 581 585 586
f 581 586 582
f 582 586 587
f 582 587 583
f 583 587 588
f 583 588 584
f 584 588 585
f 584 585 581
f 585 589 590
f 585 590 586
f 586 590 591
f 586 591 587
f 587 591 592
f 587 592 588
f 588 592 589
f 588 589 585
f 589 593 594
f 589 594 590
f 590 594 595
f 590 595 591
f 591 595 596
f 591 596 592
f 592 596 593
f 592 593 589
f 593 597 598
f 593 598 594
f 594 598 599
f 594 599 595
f 595 599 600
f 595 600 596
f 596 600 597
f 596 597 593
f 597 601 602
f 597 602 598
f 598 602 603
f 598 603 599
f 599 603 604
f 599 604 600
f 600 604 601
f 600 601 597
f 601 605 606
f 601 606 602
f 602 606 607
f 602 607 603
f 603 607 608
f 603 608 604
f 604 608 605
f 604 605 601
f 605 609 610
f 605 610 606
f 606 610 611
f 606 611 607
f 607 611 612
f 607 612 608
f 608 612 609
f 608 609 605
f 609 613 614
f 609 614 610
f 610 614 615
f 610 615 611
f 611 615 616
f 611 616 612
f 612 616 613
f 612 613 609
f 613 617 618
f 613 618 614
f 614 618 619
f 614 619 615
f 615 619 620
f 615 620 616
f 616 620 617
f 616 617 613
f 617 621 622
f 617 622 618
f 618 622 623
f 618 623 619
f 619 623 624
f 619 624 620
f 620 624 621
f 620 621 617
f 621 625 626
f 621 626 622
f 622 626 627
f 622 627 623
f 623 627 628
f 623 628 624
f 624 628 625
f 624 625 621
f 625 629 630
f 625 630 626
f 626 630 631
f 626 631 627
f 627 631 632
f 627 632 628
f 628 632 629
f 628 629 625
f 629 633 634
f 629 634 630
f 630 634 635
f 630 635 631
f 631 635 636
f 631 636 632
f 632 636 633
f 632 633 629
f 633 637 638
f 633 638 634
f 634 638 639
f 634 639 635
f 635 639 640
f 635 640 636
f 636 640 637
f 636 637 633
f 465 468 467
f 465 467 466
f 637 638 639
f 637 639 640
