mtllib SIYI_4-18S_BEC_HM30.mtl
# SIYI 4-18S BEC for HM30; units millimeters
o BEC_Enclosure
usemtl black
v 25.500000 13.000000 -8.000000
v 25.442356 13.585271 -8.000000
v 25.271639 14.148050 -8.000000
v 24.994409 14.666711 -8.000000
v 24.621320 15.121320 -8.000000
v 24.166711 15.494409 -8.000000
v 23.648050 15.771639 -8.000000
v 23.085271 15.942356 -8.000000
v 22.500000 16.000000 -8.000000
v -22.500000 16.000000 -8.000000
v -23.085271 15.942356 -8.000000
v -23.648050 15.771639 -8.000000
v -24.166711 15.494409 -8.000000
v -24.621320 15.121320 -8.000000
v -24.994409 14.666711 -8.000000
v -25.271639 14.148050 -8.000000
v -25.442356 13.585271 -8.000000
v -25.500000 13.000000 -8.000000
v -25.500000 -13.000000 -8.000000
v -25.442356 -13.585271 -8.000000
v -25.271639 -14.148050 -8.000000
v -24.994409 -14.666711 -8.000000
v -24.621320 -15.121320 -8.000000
v -24.166711 -15.494409 -8.000000
v -23.648050 -15.771639 -8.000000
v -23.085271 -15.942356 -8.000000
v -22.500000 -16.000000 -8.000000
v 22.500000 -16.000000 -8.000000
v 23.085271 -15.942356 -8.000000
v 23.648050 -15.771639 -8.000000
v 24.166711 -15.494409 -8.000000
v 24.621320 -15.121320 -8.000000
v 24.994409 -14.666711 -8.000000
v 25.271639 -14.148050 -8.000000
v 25.442356 -13.585271 -8.000000
v 25.500000 -13.000000 -8.000000
v 25.500000 13.000000 8.000000
v 25.442356 13.585271 8.000000
v 25.271639 14.148050 8.000000
v 24.994409 14.666711 8.000000
v 24.621320 15.121320 8.000000
v 24.166711 15.494409 8.000000
v 23.648050 15.771639 8.000000
v 23.085271 15.942356 8.000000
v 22.500000 16.000000 8.000000
v -22.500000 16.000000 8.000000
v -23.085271 15.942356 8.000000
v -23.648050 15.771639 8.000000
v -24.166711 15.494409 8.000000
v -24.621320 15.121320 8.000000
v -24.994409 14.666711 8.000000
v -25.271639 14.148050 8.000000
v -25.442356 13.585271 8.000000
v -25.500000 13.000000 8.000000
v -25.500000 -13.000000 8.000000
v -25.442356 -13.585271 8.000000
v -25.271639 -14.148050 8.000000
v -24.994409 -14.666711 8.000000
v -24.621320 -15.121320 8.000000
v -24.166711 -15.494409 8.000000
v -23.648050 -15.771639 8.000000
v -23.085271 -15.942356 8.000000
v -22.500000 -16.000000 8.000000
v 22.500000 -16.000000 8.000000
v 23.085271 -15.942356 8.000000
v 23.648050 -15.771639 8.000000
v 24.166711 -15.494409 8.000000
v 24.621320 -15.121320 8.000000
v 24.994409 -14.666711 8.000000
v 25.271639 -14.148050 8.000000
v 25.442356 -13.585271 8.000000
v 25.500000 -13.000000 8.000000
f 1 2 38
f 1 38 37
f 2 3 39
f 2 39 38
f 3 4 40
f 3 40 39
f 4 5 41
f 4 41 40
f 5 6 42
f 5 42 41
f 6 7 43
f 6 43 42
f 7 8 44
f 7 44 43
f 8 9 45
f 8 45 44
f 9 10 46
f 9 46 45
f 10 11 47
f 10 47 46
f 11 12 48
f 11 48 47
f 12 13 49
f 12 49 48
f 13 14 50
f 13 50 49
f 14 15 51
f 14 51 50
f 15 16 52
f 15 52 51
f 16 17 53
f 16 53 52
f 17 18 54
f 17 54 53
f 18 19 55
f 18 55 54
f 19 20 56
f 19 56 55
f 20 21 57
f 20 57 56
f 21 22 58
f 21 58 57
f 22 23 59
f 22 59 58
f 23 24 60
f 23 60 59
f 24 25 61
f 24 61 60
f 25 26 62
f 25 62 61
f 26 27 63
f 26 63 62
f 27 28 64
f 27 64 63
f 28 29 65
f 28 65 64
f 29 30 66
f 29 66 65
f 30 31 67
f 30 67 66
f 31 32 68
f 31 68 67
f 32 33 69
f 32 69 68
f 33 34 70
f 33 70 69
f 34 35 71
f 34 71 70
f 35 36 72
f 35 72 71
f 36 1 37
f 36 37 72
f 1 3 2
f 37 38 39
f 1 4 3
f 37 39 40
f 1 5 4
f 37 40 41
f 1 6 5
f 37 41 42
f 1 7 6
f 37 42 43
f 1 8 7
f 37 43 44
f 1 9 8
f 37 44 45
f 1 10 9
f 37 45 46
f 1 11 10
f 37 46 47
f 1 12 11
f 37 47 48
f 1 13 12
f 37 48 49
f 1 14 13
f 37 49 50
f 1 15 14
f 37 50 51
f 1 16 15
f 37 51 52
f 1 17 16
f 37 52 53
f 1 18 17
f 37 53 54
f 1 19 18
f 37 54 55
f 1 20 19
f 37 55 56
f 1 21 20
f 37 56 57
f 1 22 21
f 37 57 58
f 1 23 22
f 37 58 59
f 1 24 23
f 37 59 60
f 1 25 24
f 37 60 61
f 1 26 25
f 37 61 62
f 1 27 26
f 37 62 63
f 1 28 27
f 37 63 64
f 1 29 28
f 37 64 65
f 1 30 29
f 37 65 66
f 1 31 30
f 37 66 67
f 1 32 31
f 37 67 68
f 1 33 32
f 37 68 69
f 1 34 33
f 37 69 70
f 1 35 34
f 37 70 71
f 1 36 35
f 37 71 72
o Top_Label
usemtl label
v 18.500000 9.800000 8.010000
v 18.441268 10.170820 8.010000
v 18.270820 10.505342 8.010000
v 18.005342 10.770820 8.010000
v 17.670820 10.941268 8.010000
v 17.300000 11.000000 8.010000
v -17.300000 11.000000 8.010000
v -17.670820 10.941268 8.010000
v -18.005342 10.770820 8.010000
v -18.270820 10.505342 8.010000
v -18.441268 10.170820 8.010000
v -18.500000 9.800000 8.010000
v -18.500000 -9.800000 8.010000
v -18.441268 -10.170820 8.010000
v -18.270820 -10.505342 8.010000
v -18.005342 -10.770820 8.010000
v -17.670820 -10.941268 8.010000
v -17.300000 -11.000000 8.010000
v 17.300000 -11.000000 8.010000
v 17.670820 -10.941268 8.010000
v 18.005342 -10.770820 8.010000
v 18.270820 -10.505342 8.010000
v 18.441268 -10.170820 8.010000
v 18.500000 -9.800000 8.010000
v 18.500000 9.800000 8.230000
v 18.441268 10.170820 8.230000
v 18.270820 10.505342 8.230000
v 18.005342 10.770820 8.230000
v 17.670820 10.941268 8.230000
v 17.300000 11.000000 8.230000
v -17.300000 11.000000 8.230000
v -17.670820 10.941268 8.230000
v -18.005342 10.770820 8.230000
v -18.270820 10.505342 8.230000
v -18.441268 10.170820 8.230000
v -18.500000 9.800000 8.230000
v -18.500000 -9.800000 8.230000
v -18.441268 -10.170820 8.230000
v -18.270820 -10.505342 8.230000
v -18.005342 -10.770820 8.230000
v -17.670820 -10.941268 8.230000
v -17.300000 -11.000000 8.230000
v 17.300000 -11.000000 8.230000
v 17.670820 -10.941268 8.230000
v 18.005342 -10.770820 8.230000
v 18.270820 -10.505342 8.230000
v 18.441268 -10.170820 8.230000
v 18.500000 -9.800000 8.230000
f 73 74 98
f 73 98 97
f 74 75 99
f 74 99 98
f 75 76 100
f 75 100 99
f 76 77 101
f 76 101 100
f 77 78 102
f 77 102 101
f 78 79 103
f 78 103 102
f 79 80 104
f 79 104 103
f 80 81 105
f 80 105 104
f 81 82 106
f 81 106 105
f 82 83 107
f 82 107 106
f 83 84 108
f 83 108 107
f 84 85 109
f 84 109 108
f 85 86 110
f 85 110 109
f 86 87 111
f 86 111 110
f 87 88 112
f 87 112 111
f 88 89 113
f 88 113 112
f 89 90 114
f 89 114 113
f 90 91 115
f 90 115 114
f 91 92 116
f 91 116 115
f 92 93 117
f 92 117 116
f 93 94 118
f 93 118 117
f 94 95 119
f 94 119 118
f 95 96 120
f 95 120 119
f 96 73 97
f 96 97 120
f 73 75 74
f 97 98 99
f 73 76 75
f 97 99 100
f 73 77 76
f 97 100 101
f 73 78 77
f 97 101 102
f 73 79 78
f 97 102 103
f 73 80 79
f 97 103 104
f 73 81 80
f 97 104 105
f 73 82 81
f 97 105 106
f 73 83 82
f 97 106 107
f 73 84 83
f 97 107 108
f 73 85 84
f 97 108 109
f 73 86 85
f 97 109 110
f 73 87 86
f 97 110 111
f 73 88 87
f 97 111 112
f 73 89 88
f 97 112 113
f 73 90 89
f 97 113 114
f 73 91 90
f 97 114 115
f 73 92 91
f 97 115 116
f 73 93 92
f 97 116 117
f 73 94 93
f 97 117 118
f 73 95 94
f 97 118 119
f 73 96 95
f 97 119 120
o Strain_Relief_-1
usemtl black
v -33.500000 5.200000 0.000000
v -33.500000 5.069625 1.157109
v -33.500000 4.685038 2.256195
v -33.500000 4.065524 3.242147
v -33.500000 3.242147 4.065524
v -33.500000 2.256195 4.685038
v -33.500000 1.157109 5.069625
v -33.500000 0.000000 5.200000
v -33.500000 -1.157109 5.069625
v -33.500000 -2.256195 4.685038
v -33.500000 -3.242147 4.065524
v -33.500000 -4.065524 3.242147
v -33.500000 -4.685038 2.256195
v -33.500000 -5.069625 1.157109
v -33.500000 -5.200000 0.000000
v -33.500000 -5.069625 -1.157109
v -33.500000 -4.685038 -2.256195
v -33.500000 -4.065524 -3.242147
v -33.500000 -3.242147 -4.065524
v -33.500000 -2.256195 -4.685038
v -33.500000 -1.157109 -5.069625
v -33.500000 -0.000000 -5.200000
v -33.500000 1.157109 -5.069625
v -33.500000 2.256195 -4.685038
v -33.500000 3.242147 -4.065524
v -33.500000 4.065524 -3.242147
v -33.500000 4.685038 -2.256195
v -33.500000 5.069625 -1.157109
v -25.500000 5.200000 0.000000
v -25.500000 5.069625 1.157109
v -25.500000 4.685038 2.256195
v -25.500000 4.065524 3.242147
v -25.500000 3.242147 4.065524
v -25.500000 2.256195 4.685038
v -25.500000 1.157109 5.069625
v -25.500000 0.000000 5.200000
v -25.500000 -1.157109 5.069625
v -25.500000 -2.256195 4.685038
v -25.500000 -3.242147 4.065524
v -25.500000 -4.065524 3.242147
v -25.500000 -4.685038 2.256195
v -25.500000 -5.069625 1.157109
v -25.500000 -5.200000 0.000000
v -25.500000 -5.069625 -1.157109
v -25.500000 -4.685038 -2.256195
v -25.500000 -4.065524 -3.242147
v -25.500000 -3.242147 -4.065524
v -25.500000 -2.256195 -4.685038
v -25.500000 -1.157109 -5.069625
v -25.500000 -0.000000 -5.200000
v -25.500000 1.157109 -5.069625
v -25.500000 2.256195 -4.685038
v -25.500000 3.242147 -4.065524
v -25.500000 4.065524 -3.242147
v -25.500000 4.685038 -2.256195
v -25.500000 5.069625 -1.157109
f 121 122 150
f 121 150 149
f 122 123 151
f 122 151 150
f 123 124 152
f 123 152 151
f 124 125 153
f 124 153 152
f 125 126 154
f 125 154 153
f 126 127 155
f 126 155 154
f 127 128 156
f 127 156 155
f 128 129 157
f 128 157 156
f 129 130 158
f 129 158 157
f 130 131 159
f 130 159 158
f 131 132 160
f 131 160 159
f 132 133 161
f 132 161 160
f 133 134 162
f 133 162 161
f 134 135 163
f 134 163 162
f 135 136 164
f 135 164 163
f 136 137 165
f 136 165 164
f 137 138 166
f 137 166 165
f 138 139 167
f 138 167 166
f 139 140 168
f 139 168 167
f 140 141 169
f 140 169 168
f 141 142 170
f 141 170 169
f 142 143 171
f 142 171 170
f 143 144 172
f 143 172 171
f 144 145 173
f 144 173 172
f 145 146 174
f 145 174 173
f 146 147 175
f 146 175 174
f 147 148 176
f 147 176 175
f 148 121 149
f 148 149 176
f 121 123 122
f 149 150 151
f 121 124 123
f 149 151 152
f 121 125 124
f 149 152 153
f 121 126 125
f 149 153 154
f 121 127 126
f 149 154 155
f 121 128 127
f 149 155 156
f 121 129 128
f 149 156 157
f 121 130 129
f 149 157 158
f 121 131 130
f 149 158 159
f 121 132 131
f 149 159 160
f 121 133 132
f 149 160 161
f 121 134 133
f 149 161 162
f 121 135 134
f 149 162 163
f 121 136 135
f 149 163 164
f 121 137 136
f 149 164 165
f 121 138 137
f 149 165 166
f 121 139 138
f 149 166 167
f 121 140 139
f 149 167 168
f 121 141 140
f 149 168 169
f 121 142 141
f 149 169 170
f 121 143 142
f 149 170 171
f 121 144 143
f 149 171 172
f 121 145 144
f 149 172 173
f 121 146 145
f 149 173 174
f 121 147 146
f 149 174 175
f 121 148 147
f 149 175 176
o blackwire_Cable_-1
usemtl blackwire
v -88.500000 -1.100000 0.000000
v -88.500000 -1.207676 0.679837
v -88.500000 -1.520163 1.293128
v -88.500000 -2.006872 1.779837
v -88.500000 -2.620163 2.092324
v -88.500000 -3.300000 2.200000
v -88.500000 -3.979837 2.092324
v -88.500000 -4.593128 1.779837
v -88.500000 -5.079837 1.293128
v -88.500000 -5.392324 0.679837
v -88.500000 -5.500000 0.000000
v -88.500000 -5.392324 -0.679837
v -88.500000 -5.079837 -1.293128
v -88.500000 -4.593128 -1.779837
v -88.500000 -3.979837 -2.092324
v -88.500000 -3.300000 -2.200000
v -88.500000 -2.620163 -2.092324
v -88.500000 -2.006872 -1.779837
v -88.500000 -1.520163 -1.293128
v -88.500000 -1.207676 -0.679837
v -29.500000 -1.100000 0.000000
v -29.500000 -1.207676 0.679837
v -29.500000 -1.520163 1.293128
v -29.500000 -2.006872 1.779837
v -29.500000 -2.620163 2.092324
v -29.500000 -3.300000 2.200000
v -29.500000 -3.979837 2.092324
v -29.500000 -4.593128 1.779837
v -29.500000 -5.079837 1.293128
v -29.500000 -5.392324 0.679837
v -29.500000 -5.500000 0.000000
v -29.500000 -5.392324 -0.679837
v -29.500000 -5.079837 -1.293128
v -29.500000 -4.593128 -1.779837
v -29.500000 -3.979837 -2.092324
v -29.500000 -3.300000 -2.200000
v -29.500000 -2.620163 -2.092324
v -29.500000 -2.006872 -1.779837
v -29.500000 -1.520163 -1.293128
v -29.500000 -1.207676 -0.679837
f 177 178 198
f 177 198 197
f 178 179 199
f 178 199 198
f 179 180 200
f 179 200 199
f 180 181 201
f 180 201 200
f 181 182 202
f 181 202 201
f 182 183 203
f 182 203 202
f 183 184 204
f 183 204 203
f 184 185 205
f 184 205 204
f 185 186 206
f 185 206 205
f 186 187 207
f 186 207 206
f 187 188 208
f 187 208 207
f 188 189 209
f 188 209 208
f 189 190 210
f 189 210 209
f 190 191 211
f 190 211 210
f 191 192 212
f 191 212 211
f 192 193 213
f 192 213 212
f 193 194 214
f 193 214 213
f 194 195 215
f 194 215 214
f 195 196 216
f 195 216 215
f 196 177 197
f 196 197 216
f 177 179 178
f 197 198 199
f 177 180 179
f 197 199 200
f 177 181 180
f 197 200 201
f 177 182 181
f 197 201 202
f 177 183 182
f 197 202 203
f 177 184 183
f 197 203 204
f 177 185 184
f 197 204 205
f 177 186 185
f 197 205 206
f 177 187 186
f 197 206 207
f 177 188 187
f 197 207 208
f 177 189 188
f 197 208 209
f 177 190 189
f 197 209 210
f 177 191 190
f 197 210 211
f 177 192 191
f 197 211 212
f 177 193 192
f 197 212 213
f 177 194 193
f 197 213 214
f 177 195 194
f 197 214 215
f 177 196 195
f 197 215 216
o red_Cable_-1
usemtl red
v -88.500000 5.500000 0.000000
v -88.500000 5.392324 0.679837
v -88.500000 5.079837 1.293128
v -88.500000 4.593128 1.779837
v -88.500000 3.979837 2.092324
v -88.500000 3.300000 2.200000
v -88.500000 2.620163 2.092324
v -88.500000 2.006872 1.779837
v -88.500000 1.520163 1.293128
v -88.500000 1.207676 0.679837
v -88.500000 1.100000 0.000000
v -88.500000 1.207676 -0.679837
v -88.500000 1.520163 -1.293128
v -88.500000 2.006872 -1.779837
v -88.500000 2.620163 -2.092324
v -88.500000 3.300000 -2.200000
v -88.500000 3.979837 -2.092324
v -88.500000 4.593128 -1.779837
v -88.500000 5.079837 -1.293128
v -88.500000 5.392324 -0.679837
v -29.500000 5.500000 0.000000
v -29.500000 5.392324 0.679837
v -29.500000 5.079837 1.293128
v -29.500000 4.593128 1.779837
v -29.500000 3.979837 2.092324
v -29.500000 3.300000 2.200000
v -29.500000 2.620163 2.092324
v -29.500000 2.006872 1.779837
v -29.500000 1.520163 1.293128
v -29.500000 1.207676 0.679837
v -29.500000 1.100000 0.000000
v -29.500000 1.207676 -0.679837
v -29.500000 1.520163 -1.293128
v -29.500000 2.006872 -1.779837
v -29.500000 2.620163 -2.092324
v -29.500000 3.300000 -2.200000
v -29.500000 3.979837 -2.092324
v -29.500000 4.593128 -1.779837
v -29.500000 5.079837 -1.293128
v -29.500000 5.392324 -0.679837
f 217 218 238
f 217 238 237
f 218 219 239
f 218 239 238
f 219 220 240
f 219 240 239
f 220 221 241
f 220 241 240
f 221 222 242
f 221 242 241
f 222 223 243
f 222 243 242
f 223 224 244
f 223 244 243
f 224 225 245
f 224 245 244
f 225 226 246
f 225 246 245
f 226 227 247
f 226 247 246
f 227 228 248
f 227 248 247
f 228 229 249
f 228 249 248
f 229 230 250
f 229 250 249
f 230 231 251
f 230 251 250
f 231 232 252
f 231 252 251
f 232 233 253
f 232 253 252
f 233 234 254
f 233 254 253
f 234 235 255
f 234 255 254
f 235 236 256
f 235 256 255
f 236 217 237
f 236 237 256
f 217 219 218
f 237 238 239
f 217 220 219
f 237 239 240
f 217 221 220
f 237 240 241
f 217 222 221
f 237 241 242
f 217 223 222
f 237 242 243
f 217 224 223
f 237 243 244
f 217 225 224
f 237 244 245
f 217 226 225
f 237 245 246
f 217 227 226
f 237 246 247
f 217 228 227
f 237 247 248
f 217 229 228
f 237 248 249
f 217 230 229
f 237 249 250
f 217 231 230
f 237 250 251
f 217 232 231
f 237 251 252
f 217 233 232
f 237 252 253
f 217 234 233
f 237 253 254
f 217 235 234
f 237 254 255
f 217 236 235
f 237 255 256
o Strain_Relief_1
usemtl black
v 25.500000 5.200000 0.000000
v 25.500000 5.069625 1.157109
v 25.500000 4.685038 2.256195
v 25.500000 4.065524 3.242147
v 25.500000 3.242147 4.065524
v 25.500000 2.256195 4.685038
v 25.500000 1.157109 5.069625
v 25.500000 0.000000 5.200000
v 25.500000 -1.157109 5.069625
v 25.500000 -2.256195 4.685038
v 25.500000 -3.242147 4.065524
v 25.500000 -4.065524 3.242147
v 25.500000 -4.685038 2.256195
v 25.500000 -5.069625 1.157109
v 25.500000 -5.200000 0.000000
v 25.500000 -5.069625 -1.157109
v 25.500000 -4.685038 -2.256195
v 25.500000 -4.065524 -3.242147
v 25.500000 -3.242147 -4.065524
v 25.500000 -2.256195 -4.685038
v 25.500000 -1.157109 -5.069625
v 25.500000 -0.000000 -5.200000
v 25.500000 1.157109 -5.069625
v 25.500000 2.256195 -4.685038
v 25.500000 3.242147 -4.065524
v 25.500000 4.065524 -3.242147
v 25.500000 4.685038 -2.256195
v 25.500000 5.069625 -1.157109
v 33.500000 5.200000 0.000000
v 33.500000 5.069625 1.157109
v 33.500000 4.685038 2.256195
v 33.500000 4.065524 3.242147
v 33.500000 3.242147 4.065524
v 33.500000 2.256195 4.685038
v 33.500000 1.157109 5.069625
v 33.500000 0.000000 5.200000
v 33.500000 -1.157109 5.069625
v 33.500000 -2.256195 4.685038
v 33.500000 -3.242147 4.065524
v 33.500000 -4.065524 3.242147
v 33.500000 -4.685038 2.256195
v 33.500000 -5.069625 1.157109
v 33.500000 -5.200000 0.000000
v 33.500000 -5.069625 -1.157109
v 33.500000 -4.685038 -2.256195
v 33.500000 -4.065524 -3.242147
v 33.500000 -3.242147 -4.065524
v 33.500000 -2.256195 -4.685038
v 33.500000 -1.157109 -5.069625
v 33.500000 -0.000000 -5.200000
v 33.500000 1.157109 -5.069625
v 33.500000 2.256195 -4.685038
v 33.500000 3.242147 -4.065524
v 33.500000 4.065524 -3.242147
v 33.500000 4.685038 -2.256195
v 33.500000 5.069625 -1.157109
f 257 258 286
f 257 286 285
f 258 259 287
f 258 287 286
f 259 260 288
f 259 288 287
f 260 261 289
f 260 289 288
f 261 262 290
f 261 290 289
f 262 263 291
f 262 291 290
f 263 264 292
f 263 292 291
f 264 265 293
f 264 293 292
f 265 266 294
f 265 294 293
f 266 267 295
f 266 295 294
f 267 268 296
f 267 296 295
f 268 269 297
f 268 297 296
f 269 270 298
f 269 298 297
f 270 271 299
f 270 299 298
f 271 272 300
f 271 300 299
f 272 273 301
f 272 301 300
f 273 274 302
f 273 302 301
f 274 275 303
f 274 303 302
f 275 276 304
f 275 304 303
f 276 277 305
f 276 305 304
f 277 278 306
f 277 306 305
f 278 279 307
f 278 307 306
f 279 280 308
f 279 308 307
f 280 281 309
f 280 309 308
f 281 282 310
f 281 310 309
f 282 283 311
f 282 311 310
f 283 284 312
f 283 312 311
f 284 257 285
f 284 285 312
f 257 259 258
f 285 286 287
f 257 260 259
f 285 287 288
f 257 261 260
f 285 288 289
f 257 262 261
f 285 289 290
f 257 263 262
f 285 290 291
f 257 264 263
f 285 291 292
f 257 265 264
f 285 292 293
f 257 266 265
f 285 293 294
f 257 267 266
f 285 294 295
f 257 268 267
f 285 295 296
f 257 269 268
f 285 296 297
f 257 270 269
f 285 297 298
f 257 271 270
f 285 298 299
f 257 272 271
f 285 299 300
f 257 273 272
f 285 300 301
f 257 274 273
f 285 301 302
f 257 275 274
f 285 302 303
f 257 276 275
f 285 303 304
f 257 277 276
f 285 304 305
f 257 278 277
f 285 305 306
f 257 279 278
f 285 306 307
f 257 280 279
f 285 307 308
f 257 281 280
f 285 308 309
f 257 282 281
f 285 309 310
f 257 283 282
f 285 310 311
f 257 284 283
f 285 311 312
o blackwire_Cable_1
usemtl blackwire
v 29.500000 -1.100000 0.000000
v 29.500000 -1.207676 0.679837
v 29.500000 -1.520163 1.293128
v 29.500000 -2.006872 1.779837
v 29.500000 -2.620163 2.092324
v 29.500000 -3.300000 2.200000
v 29.500000 -3.979837 2.092324
v 29.500000 -4.593128 1.779837
v 29.500000 -5.079837 1.293128
v 29.500000 -5.392324 0.679837
v 29.500000 -5.500000 0.000000
v 29.500000 -5.392324 -0.679837
v 29.500000 -5.079837 -1.293128
v 29.500000 -4.593128 -1.779837
v 29.500000 -3.979837 -2.092324
v 29.500000 -3.300000 -2.200000
v 29.500000 -2.620163 -2.092324
v 29.500000 -2.006872 -1.779837
v 29.500000 -1.520163 -1.293128
v 29.500000 -1.207676 -0.679837
v 88.500000 -1.100000 0.000000
v 88.500000 -1.207676 0.679837
v 88.500000 -1.520163 1.293128
v 88.500000 -2.006872 1.779837
v 88.500000 -2.620163 2.092324
v 88.500000 -3.300000 2.200000
v 88.500000 -3.979837 2.092324
v 88.500000 -4.593128 1.779837
v 88.500000 -5.079837 1.293128
v 88.500000 -5.392324 0.679837
v 88.500000 -5.500000 0.000000
v 88.500000 -5.392324 -0.679837
v 88.500000 -5.079837 -1.293128
v 88.500000 -4.593128 -1.779837
v 88.500000 -3.979837 -2.092324
v 88.500000 -3.300000 -2.200000
v 88.500000 -2.620163 -2.092324
v 88.500000 -2.006872 -1.779837
v 88.500000 -1.520163 -1.293128
v 88.500000 -1.207676 -0.679837
f 313 314 334
f 313 334 333
f 314 315 335
f 314 335 334
f 315 316 336
f 315 336 335
f 316 317 337
f 316 337 336
f 317 318 338
f 317 338 337
f 318 319 339
f 318 339 338
f 319 320 340
f 319 340 339
f 320 321 341
f 320 341 340
f 321 322 342
f 321 342 341
f 322 323 343
f 322 343 342
f 323 324 344
f 323 344 343
f 324 325 345
f 324 345 344
f 325 326 346
f 325 346 345
f 326 327 347
f 326 347 346
f 327 328 348
f 327 348 347
f 328 329 349
f 328 349 348
f 329 330 350
f 329 350 349
f 330 331 351
f 330 351 350
f 331 332 352
f 331 352 351
f 332 313 333
f 332 333 352
f 313 315 314
f 333 334 335
f 313 316 315
f 333 335 336
f 313 317 316
f 333 336 337
f 313 318 317
f 333 337 338
f 313 319 318
f 333 338 339
f 313 320 319
f 333 339 340
f 313 321 320
f 333 340 341
f 313 322 321
f 333 341 342
f 313 323 322
f 333 342 343
f 313 324 323
f 333 343 344
f 313 325 324
f 333 344 345
f 313 326 325
f 333 345 346
f 313 327 326
f 333 346 347
f 313 328 327
f 333 347 348
f 313 329 328
f 333 348 349
f 313 330 329
f 333 349 350
f 313 331 330
f 333 350 351
f 313 332 331
f 333 351 352
o red_Cable_1
usemtl red
v 29.500000 5.500000 0.000000
v 29.500000 5.392324 0.679837
v 29.500000 5.079837 1.293128
v 29.500000 4.593128 1.779837
v 29.500000 3.979837 2.092324
v 29.500000 3.300000 2.200000
v 29.500000 2.620163 2.092324
v 29.500000 2.006872 1.779837
v 29.500000 1.520163 1.293128
v 29.500000 1.207676 0.679837
v 29.500000 1.100000 0.000000
v 29.500000 1.207676 -0.679837
v 29.500000 1.520163 -1.293128
v 29.500000 2.006872 -1.779837
v 29.500000 2.620163 -2.092324
v 29.500000 3.300000 -2.200000
v 29.500000 3.979837 -2.092324
v 29.500000 4.593128 -1.779837
v 29.500000 5.079837 -1.293128
v 29.500000 5.392324 -0.679837
v 88.500000 5.500000 0.000000
v 88.500000 5.392324 0.679837
v 88.500000 5.079837 1.293128
v 88.500000 4.593128 1.779837
v 88.500000 3.979837 2.092324
v 88.500000 3.300000 2.200000
v 88.500000 2.620163 2.092324
v 88.500000 2.006872 1.779837
v 88.500000 1.520163 1.293128
v 88.500000 1.207676 0.679837
v 88.500000 1.100000 0.000000
v 88.500000 1.207676 -0.679837
v 88.500000 1.520163 -1.293128
v 88.500000 2.006872 -1.779837
v 88.500000 2.620163 -2.092324
v 88.500000 3.300000 -2.200000
v 88.500000 3.979837 -2.092324
v 88.500000 4.593128 -1.779837
v 88.500000 5.079837 -1.293128
v 88.500000 5.392324 -0.679837
f 353 354 374
f 353 374 373
f 354 355 375
f 354 375 374
f 355 356 376
f 355 376 375
f 356 357 377
f 356 377 376
f 357 358 378
f 357 378 377
f 358 359 379
f 358 379 378
f 359 360 380
f 359 380 379
f 360 361 381
f 360 381 380
f 361 362 382
f 361 382 381
f 362 363 383
f 362 383 382
f 363 364 384
f 363 384 383
f 364 365 385
f 364 385 384
f 365 366 386
f 365 386 385
f 366 367 387
f 366 387 386
f 367 368 388
f 367 388 387
f 368 369 389
f 368 389 388
f 369 370 390
f 369 390 389
f 370 371 391
f 370 391 390
f 371 372 392
f 371 392 391
f 372 353 373
f 372 373 392
f 353 355 354
f 373 374 375
f 353 356 355
f 373 375 376
f 353 357 356
f 373 376 377
f 353 358 357
f 373 377 378
f 353 359 358
f 373 378 379
f 353 360 359
f 373 379 380
f 353 361 360
f 373 380 381
f 353 362 361
f 373 381 382
f 353 363 362
f 373 382 383
f 353 364 363
f 373 383 384
f 353 365 364
f 373 384 385
f 353 366 365
f 373 385 386
f 353 367 366
f 373 386 387
f 353 368 367
f 373 387 388
f 353 369 368
f 373 388 389
f 353 370 369
f 373 389 390
f 353 371 370
f 373 390 391
f 353 372 371
f 373 391 392
o XT60_Input
usemtl yellow
v -88.000000 6.300000 -5.500000
v -88.074963 6.869402 -5.500000
v -88.294744 7.400000 -5.500000
v -88.644365 7.855635 -5.500000
v -89.100000 8.205256 -5.500000
v -89.630598 8.425037 -5.500000
v -90.200000 8.500000 -5.500000
v -103.800000 8.500000 -5.500000
v -104.369402 8.425037 -5.500000
v -104.900000 8.205256 -5.500000
v -105.355635 7.855635 -5.500000
v -105.705256 7.400000 -5.500000
v -105.925037 6.869402 -5.500000
v -106.000000 6.300000 -5.500000
v -106.000000 -6.300000 -5.500000
v -105.925037 -6.869402 -5.500000
v -105.705256 -7.400000 -5.500000
v -105.355635 -7.855635 -5.500000
v -104.900000 -8.205256 -5.500000
v -104.369402 -8.425037 -5.500000
v -103.800000 -8.500000 -5.500000
v -90.200000 -8.500000 -5.500000
v -89.630598 -8.425037 -5.500000
v -89.100000 -8.205256 -5.500000
v -88.644365 -7.855635 -5.500000
v -88.294744 -7.400000 -5.500000
v -88.074963 -6.869402 -5.500000
v -88.000000 -6.300000 -5.500000
v -88.000000 6.300000 5.500000
v -88.074963 6.869402 5.500000
v -88.294744 7.400000 5.500000
v -88.644365 7.855635 5.500000
v -89.100000 8.205256 5.500000
v -89.630598 8.425037 5.500000
v -90.200000 8.500000 5.500000
v -103.800000 8.500000 5.500000
v -104.369402 8.425037 5.500000
v -104.900000 8.205256 5.500000
v -105.355635 7.855635 5.500000
v -105.705256 7.400000 5.500000
v -105.925037 6.869402 5.500000
v -106.000000 6.300000 5.500000
v -106.000000 -6.300000 5.500000
v -105.925037 -6.869402 5.500000
v -105.705256 -7.400000 5.500000
v -105.355635 -7.855635 5.500000
v -104.900000 -8.205256 5.500000
v -104.369402 -8.425037 5.500000
v -103.800000 -8.500000 5.500000
v -90.200000 -8.500000 5.500000
v -89.630598 -8.425037 5.500000
v -89.100000 -8.205256 5.500000
v -88.644365 -7.855635 5.500000
v -88.294744 -7.400000 5.500000
v -88.074963 -6.869402 5.500000
v -88.000000 -6.300000 5.500000
f 393 394 422
f 393 422 421
f 394 395 423
f 394 423 422
f 395 396 424
f 395 424 423
f 396 397 425
f 396 425 424
f 397 398 426
f 397 426 425
f 398 399 427
f 398 427 426
f 399 400 428
f 399 428 427
f 400 401 429
f 400 429 428
f 401 402 430
f 401 430 429
f 402 403 431
f 402 431 430
f 403 404 432
f 403 432 431
f 404 405 433
f 404 433 432
f 405 406 434
f 405 434 433
f 406 407 435
f 406 435 434
f 407 408 436
f 407 436 435
f 408 409 437
f 408 437 436
f 409 410 438
f 409 438 437
f 410 411 439
f 410 439 438
f 411 412 440
f 411 440 439
f 412 413 441
f 412 441 440
f 413 414 442
f 413 442 441
f 414 415 443
f 414 443 442
f 415 416 444
f 415 444 443
f 416 417 445
f 416 445 444
f 417 418 446
f 417 446 445
f 418 419 447
f 418 447 446
f 419 420 448
f 419 448 447
f 420 393 421
f 420 421 448
f 393 395 394
f 421 422 423
f 393 396 395
f 421 423 424
f 393 397 396
f 421 424 425
f 393 398 397
f 421 425 426
f 393 399 398
f 421 426 427
f 393 400 399
f 421 427 428
f 393 401 400
f 421 428 429
f 393 402 401
f 421 429 430
f 393 403 402
f 421 430 431
f 393 404 403
f 421 431 432
f 393 405 404
f 421 432 433
f 393 406 405
f 421 433 434
f 393 407 406
f 421 434 435
f 393 408 407
f 421 435 436
f 393 409 408
f 421 436 437
f 393 410 409
f 421 437 438
f 393 411 410
f 421 438 439
f 393 412 411
f 421 439 440
f 393 413 412
f 421 440 441
f 393 414 413
f 421 441 442
f 393 415 414
f 421 442 443
f 393 416 415
f 421 443 444
f 393 417 416
f 421 444 445
f 393 418 417
f 421 445 446
f 393 419 418
f 421 446 447
f 393 420 419
f 421 447 448
o XT30_Output
usemtl yellow
v 101.500000 3.700000 -4.500000
v 101.438666 4.165874 -4.500000
v 101.258846 4.600000 -4.500000
v 100.972792 4.972792 -4.500000
v 100.600000 5.258846 -4.500000
v 100.165874 5.438666 -4.500000
v 99.700000 5.500000 -4.500000
v 88.300000 5.500000 -4.500000
v 87.834126 5.438666 -4.500000
v 87.400000 5.258846 -4.500000
v 87.027208 4.972792 -4.500000
v 86.741154 4.600000 -4.500000
v 86.561334 4.165874 -4.500000
v 86.500000 3.700000 -4.500000
v 86.500000 -3.700000 -4.500000
v 86.561334 -4.165874 -4.500000
v 86.741154 -4.600000 -4.500000
v 87.027208 -4.972792 -4.500000
v 87.400000 -5.258846 -4.500000
v 87.834126 -5.438666 -4.500000
v 88.300000 -5.500000 -4.500000
v 99.700000 -5.500000 -4.500000
v 100.165874 -5.438666 -4.500000
v 100.600000 -5.258846 -4.500000
v 100.972792 -4.972792 -4.500000
v 101.258846 -4.600000 -4.500000
v 101.438666 -4.165874 -4.500000
v 101.500000 -3.700000 -4.500000
v 101.500000 3.700000 4.500000
v 101.438666 4.165874 4.500000
v 101.258846 4.600000 4.500000
v 100.972792 4.972792 4.500000
v 100.600000 5.258846 4.500000
v 100.165874 5.438666 4.500000
v 99.700000 5.500000 4.500000
v 88.300000 5.500000 4.500000
v 87.834126 5.438666 4.500000
v 87.400000 5.258846 4.500000
v 87.027208 4.972792 4.500000
v 86.741154 4.600000 4.500000
v 86.561334 4.165874 4.500000
v 86.500000 3.700000 4.500000
v 86.500000 -3.700000 4.500000
v 86.561334 -4.165874 4.500000
v 86.741154 -4.600000 4.500000
v 87.027208 -4.972792 4.500000
v 87.400000 -5.258846 4.500000
v 87.834126 -5.438666 4.500000
v 88.300000 -5.500000 4.500000
v 99.700000 -5.500000 4.500000
v 100.165874 -5.438666 4.500000
v 100.600000 -5.258846 4.500000
v 100.972792 -4.972792 4.500000
v 101.258846 -4.600000 4.500000
v 101.438666 -4.165874 4.500000
v 101.500000 -3.700000 4.500000
f 449 450 478
f 449 478 477
f 450 451 479
f 450 479 478
f 451 452 480
f 451 480 479
f 452 453 481
f 452 481 480
f 453 454 482
f 453 482 481
f 454 455 483
f 454 483 482
f 455 456 484
f 455 484 483
f 456 457 485
f 456 485 484
f 457 458 486
f 457 486 485
f 458 459 487
f 458 487 486
f 459 460 488
f 459 488 487
f 460 461 489
f 460 489 488
f 461 462 490
f 461 490 489
f 462 463 491
f 462 491 490
f 463 464 492
f 463 492 491
f 464 465 493
f 464 493 492
f 465 466 494
f 465 494 493
f 466 467 495
f 466 495 494
f 467 468 496
f 467 496 495
f 468 469 497
f 468 497 496
f 469 470 498
f 469 498 497
f 470 471 499
f 470 499 498
f 471 472 500
f 471 500 499
f 472 473 501
f 472 501 500
f 473 474 502
f 473 502 501
f 474 475 503
f 474 503 502
f 475 476 504
f 475 504 503
f 476 449 477
f 476 477 504
f 449 451 450
f 477 478 479
f 449 452 451
f 477 479 480
f 449 453 452
f 477 480 481
f 449 454 453
f 477 481 482
f 449 455 454
f 477 482 483
f 449 456 455
f 477 483 484
f 449 457 456
f 477 484 485
f 449 458 457
f 477 485 486
f 449 459 458
f 477 486 487
f 449 460 459
f 477 487 488
f 449 461 460
f 477 488 489
f 449 462 461
f 477 489 490
f 449 463 462
f 477 490 491
f 449 464 463
f 477 491 492
f 449 465 464
f 477 492 493
f 449 466 465
f 477 493 494
f 449 467 466
f 477 494 495
f 449 468 467
f 477 495 496
f 449 469 468
f 477 496 497
f 449 470 469
f 477 497 498
f 449 471 470
f 477 498 499
f 449 472 471
f 477 499 500
f 449 473 472
f 477 500 501
f 449 474 473
f 477 501 502
f 449 475 474
f 477 502 503
f 449 476 475
f 477 503 504
o XT60_Face
usemtl yellowdark
v -105.900000 6.500000 -4.000000
v -106.046447 6.853553 -4.000000
v -106.400000 7.000000 -4.000000
v -105.800000 7.000000 -4.000000
v -106.153553 6.853553 -4.000000
v -106.300000 6.500000 -4.000000
v -106.300000 -6.500000 -4.000000
v -106.153553 -6.853553 -4.000000
v -105.800000 -7.000000 -4.000000
v -106.400000 -7.000000 -4.000000
v -106.046447 -6.853553 -4.000000
v -105.900000 -6.500000 -4.000000
v -105.900000 6.500000 4.000000
v -106.046447 6.853553 4.000000
v -106.400000 7.000000 4.000000
v -105.800000 7.000000 4.000000
v -106.153553 6.853553 4.000000
v -106.300000 6.500000 4.000000
v -106.300000 -6.500000 4.000000
v -106.153553 -6.853553 4.000000
v -105.800000 -7.000000 4.000000
v -106.400000 -7.000000 4.000000
v -106.046447 -6.853553 4.000000
v -105.900000 -6.500000 4.000000
f 505 506 518
f 505 518 517
f 506 507 519
f 506 519 518
f 507 508 520
f 507 520 519
f 508 509 521
f 508 521 520
f 509 510 522
f 509 522 521
f 510 511 523
f 510 523 522
f 511 512 524
f 511 524 523
f 512 513 525
f 512 525 524
f 513 514 526
f 513 526 525
f 514 515 527
f 514 527 526
f 515 516 528
f 515 528 527
f 516 505 517
f 516 517 528
f 505 507 506
f 517 518 519
f 505 508 507
f 517 519 520
f 505 509 508
f 517 520 521
f 505 510 509
f 517 521 522
f 505 511 510
f 517 522 523
f 505 512 511
f 517 523 524
f 505 513 512
f 517 524 525
f 505 514 513
f 517 525 526
f 505 515 514
f 517 526 527
f 505 516 515
f 517 527 528
o XT60_Terminal_-4.0
usemtl metal
v -107.100000 -1.900000 0.000000
v -107.100000 -1.971556 0.543520
v -107.100000 -2.181347 1.050000
v -107.100000 -2.515076 1.484924
v -107.100000 -2.950000 1.818653
v -107.100000 -3.456480 2.028444
v -107.100000 -4.000000 2.100000
v -107.100000 -4.543520 2.028444
v -107.100000 -5.050000 1.818653
v -107.100000 -5.484924 1.484924
v -107.100000 -5.818653 1.050000
v -107.100000 -6.028444 0.543520
v -107.100000 -6.100000 0.000000
v -107.100000 -6.028444 -0.543520
v -107.100000 -5.818653 -1.050000
v -107.100000 -5.484924 -1.484924
v -107.100000 -5.050000 -1.818653
v -107.100000 -4.543520 -2.028444
v -107.100000 -4.000000 -2.100000
v -107.100000 -3.456480 -2.028444
v -107.100000 -2.950000 -1.818653
v -107.100000 -2.515076 -1.484924
v -107.100000 -2.181347 -1.050000
v -107.100000 -1.971556 -0.543520
v -105.900000 -1.900000 0.000000
v -105.900000 -1.971556 0.543520
v -105.900000 -2.181347 1.050000
v -105.900000 -2.515076 1.484924
v -105.900000 -2.950000 1.818653
v -105.900000 -3.456480 2.028444
v -105.900000 -4.000000 2.100000
v -105.900000 -4.543520 2.028444
v -105.900000 -5.050000 1.818653
v -105.900000 -5.484924 1.484924
v -105.900000 -5.818653 1.050000
v -105.900000 -6.028444 0.543520
v -105.900000 -6.100000 0.000000
v -105.900000 -6.028444 -0.543520
v -105.900000 -5.818653 -1.050000
v -105.900000 -5.484924 -1.484924
v -105.900000 -5.050000 -1.818653
v -105.900000 -4.543520 -2.028444
v -105.900000 -4.000000 -2.100000
v -105.900000 -3.456480 -2.028444
v -105.900000 -2.950000 -1.818653
v -105.900000 -2.515076 -1.484924
v -105.900000 -2.181347 -1.050000
v -105.900000 -1.971556 -0.543520
f 529 530 554
f 529 554 553
f 530 531 555
f 530 555 554
f 531 532 556
f 531 556 555
f 532 533 557
f 532 557 556
f 533 534 558
f 533 558 557
f 534 535 559
f 534 559 558
f 535 536 560
f 535 560 559
f 536 537 561
f 536 561 560
f 537 538 562
f 537 562 561
f 538 539 563
f 538 563 562
f 539 540 564
f 539 564 563
f 540 541 565
f 540 565 564
f 541 542 566
f 541 566 565
f 542 543 567
f 542 567 566
f 543 544 568
f 543 568 567
f 544 545 569
f 544 569 568
f 545 546 570
f 545 570 569
f 546 547 571
f 546 571 570
f 547 548 572
f 547 572 571
f 548 549 573
f 548 573 572
f 549 550 574
f 549 574 573
f 550 551 575
f 550 575 574
f 551 552 576
f 551 576 575
f 552 529 553
f 552 553 576
f 529 531 530
f 553 554 555
f 529 532 531
f 553 555 556
f 529 533 532
f 553 556 557
f 529 534 533
f 553 557 558
f 529 535 534
f 553 558 559
f 529 536 535
f 553 559 560
f 529 537 536
f 553 560 561
f 529 538 537
f 553 561 562
f 529 539 538
f 553 562 563
f 529 540 539
f 553 563 564
f 529 541 540
f 553 564 565
f 529 542 541
f 553 565 566
f 529 543 542
f 553 566 567
f 529 544 543
f 553 567 568
f 529 545 544
f 553 568 569
f 529 546 545
f 553 569 570
f 529 547 546
f 553 570 571
f 529 548 547
f 553 571 572
f 529 549 548
f 553 572 573
f 529 550 549
f 553 573 574
f 529 551 550
f 553 574 575
f 529 552 551
f 553 575 576
o XT60_Terminal_4.0
usemtl metal
v -107.100000 6.100000 0.000000
v -107.100000 6.028444 0.543520
v -107.100000 5.818653 1.050000
v -107.100000 5.484924 1.484924
v -107.100000 5.050000 1.818653
v -107.100000 4.543520 2.028444
v -107.100000 4.000000 2.100000
v -107.100000 3.456480 2.028444
v -107.100000 2.950000 1.818653
v -107.100000 2.515076 1.484924
v -107.100000 2.181347 1.050000
v -107.100000 1.971556 0.543520
v -107.100000 1.900000 0.000000
v -107.100000 1.971556 -0.543520
v -107.100000 2.181347 -1.050000
v -107.100000 2.515076 -1.484924
v -107.100000 2.950000 -1.818653
v -107.100000 3.456480 -2.028444
v -107.100000 4.000000 -2.100000
v -107.100000 4.543520 -2.028444
v -107.100000 5.050000 -1.818653
v -107.100000 5.484924 -1.484924
v -107.100000 5.818653 -1.050000
v -107.100000 6.028444 -0.543520
v -105.900000 6.100000 0.000000
v -105.900000 6.028444 0.543520
v -105.900000 5.818653 1.050000
v -105.900000 5.484924 1.484924
v -105.900000 5.050000 1.818653
v -105.900000 4.543520 2.028444
v -105.900000 4.000000 2.100000
v -105.900000 3.456480 2.028444
v -105.900000 2.950000 1.818653
v -105.900000 2.515076 1.484924
v -105.900000 2.181347 1.050000
v -105.900000 1.971556 0.543520
v -105.900000 1.900000 0.000000
v -105.900000 1.971556 -0.543520
v -105.900000 2.181347 -1.050000
v -105.900000 2.515076 -1.484924
v -105.900000 2.950000 -1.818653
v -105.900000 3.456480 -2.028444
v -105.900000 4.000000 -2.100000
v -105.900000 4.543520 -2.028444
v -105.900000 5.050000 -1.818653
v -105.900000 5.484924 -1.484924
v -105.900000 5.818653 -1.050000
v -105.900000 6.028444 -0.543520
f 577 578 602
f 577 602 601
f 578 579 603
f 578 603 602
f 579 580 604
f 579 604 603
f 580 581 605
f 580 605 604
f 581 582 606
f 581 606 605
f 582 583 607
f 582 607 606
f 583 584 608
f 583 608 607
f 584 585 609
f 584 609 608
f 585 586 610
f 585 610 609
f 586 587 611
f 586 611 610
f 587 588 612
f 587 612 611
f 588 589 613
f 588 613 612
f 589 590 614
f 589 614 613
f 590 591 615
f 590 615 614
f 591 592 616
f 591 616 615
f 592 593 617
f 592 617 616
f 593 594 618
f 593 618 617
f 594 595 619
f 594 619 618
f 595 596 620
f 595 620 619
f 596 597 621
f 596 621 620
f 597 598 622
f 597 622 621
f 598 599 623
f 598 623 622
f 599 600 624
f 599 624 623
f 600 577 601
f 600 601 624
f 577 579 578
f 601 602 603
f 577 580 579
f 601 603 604
f 577 581 580
f 601 604 605
f 577 582 581
f 601 605 606
f 577 583 582
f 601 606 607
f 577 584 583
f 601 607 608
f 577 585 584
f 601 608 609
f 577 586 585
f 601 609 610
f 577 587 586
f 601 610 611
f 577 588 587
f 601 611 612
f 577 589 588
f 601 612 613
f 577 590 589
f 601 613 614
f 577 591 590
f 601 614 615
f 577 592 591
f 601 615 616
f 577 593 592
f 601 616 617
f 577 594 593
f 601 617 618
f 577 595 594
f 601 618 619
f 577 596 595
f 601 619 620
f 577 597 596
f 601 620 621
f 577 598 597
f 601 621 622
f 577 599 598
f 601 622 623
f 577 600 599
f 601 623 624
o XT30_Face
usemtl yellowdark
v 101.800000 3.500000 -3.000000
v 101.653553 3.853553 -3.000000
v 101.300000 4.000000 -3.000000
v 101.900000 4.000000 -3.000000
v 101.546447 3.853553 -3.000000
v 101.400000 3.500000 -3.000000
v 101.400000 -3.500000 -3.000000
v 101.546447 -3.853553 -3.000000
v 101.900000 -4.000000 -3.000000
v 101.300000 -4.000000 -3.000000
v 101.653553 -3.853553 -3.000000
v 101.800000 -3.500000 -3.000000
v 101.800000 3.500000 3.000000
v 101.653553 3.853553 3.000000
v 101.300000 4.000000 3.000000
v 101.900000 4.000000 3.000000
v 101.546447 3.853553 3.000000
v 101.400000 3.500000 3.000000
v 101.400000 -3.500000 3.000000
v 101.546447 -3.853553 3.000000
v 101.900000 -4.000000 3.000000
v 101.300000 -4.000000 3.000000
v 101.653553 -3.853553 3.000000
v 101.800000 -3.500000 3.000000
f 625 626 638
f 625 638 637
f 626 627 639
f 626 639 638
f 627 628 640
f 627 640 639
f 628 629 641
f 628 641 640
f 629 630 642
f 629 642 641
f 630 631 643
f 630 643 642
f 631 632 644
f 631 644 643
f 632 633 645
f 632 645 644
f 633 634 646
f 633 646 645
f 634 635 647
f 634 647 646
f 635 636 648
f 635 648 647
f 636 625 637
f 636 637 648
f 625 627 626
f 637 638 639
f 625 628 627
f 637 639 640
f 625 629 628
f 637 640 641
f 625 630 629
f 637 641 642
f 625 631 630
f 637 642 643
f 625 632 631
f 637 643 644
f 625 633 632
f 637 644 645
f 625 634 633
f 637 645 646
f 625 635 634
f 637 646 647
f 625 636 635
f 637 647 648
o XT30_Terminal_-2.3
usemtl metal
v 101.400000 -0.950000 0.000000
v 101.400000 -1.016074 0.417173
v 101.400000 -1.207827 0.793510
v 101.400000 -1.506490 1.092173
v 101.400000 -1.882827 1.283926
v 101.400000 -2.300000 1.350000
v 101.400000 -2.717173 1.283926
v 101.400000 -3.093510 1.092173
v 101.400000 -3.392173 0.793510
v 101.400000 -3.583926 0.417173
v 101.400000 -3.650000 0.000000
v 101.400000 -3.583926 -0.417173
v 101.400000 -3.392173 -0.793510
v 101.400000 -3.093510 -1.092173
v 101.400000 -2.717173 -1.283926
v 101.400000 -2.300000 -1.350000
v 101.400000 -1.882827 -1.283926
v 101.400000 -1.506490 -1.092173
v 101.400000 -1.207827 -0.793510
v 101.400000 -1.016074 -0.417173
v 102.600000 -0.950000 0.000000
v 102.600000 -1.016074 0.417173
v 102.600000 -1.207827 0.793510
v 102.600000 -1.506490 1.092173
v 102.600000 -1.882827 1.283926
v 102.600000 -2.300000 1.350000
v 102.600000 -2.717173 1.283926
v 102.600000 -3.093510 1.092173
v 102.600000 -3.392173 0.793510
v 102.600000 -3.583926 0.417173
v 102.600000 -3.650000 0.000000
v 102.600000 -3.583926 -0.417173
v 102.600000 -3.392173 -0.793510
v 102.600000 -3.093510 -1.092173
v 102.600000 -2.717173 -1.283926
v 102.600000 -2.300000 -1.350000
v 102.600000 -1.882827 -1.283926
v 102.600000 -1.506490 -1.092173
v 102.600000 -1.207827 -0.793510
v 102.600000 -1.016074 -0.417173
f 649 650 670
f 649 670 669
f 650 651 671
f 650 671 670
f 651 652 672
f 651 672 671
f 652 653 673
f 652 673 672
f 653 654 674
f 653 674 673
f 654 655 675
f 654 675 674
f 655 656 676
f 655 676 675
f 656 657 677
f 656 677 676
f 657 658 678
f 657 678 677
f 658 659 679
f 658 679 678
f 659 660 680
f 659 680 679
f 660 661 681
f 660 681 680
f 661 662 682
f 661 682 681
f 662 663 683
f 662 683 682
f 663 664 684
f 663 684 683
f 664 665 685
f 664 685 684
f 665 666 686
f 665 686 685
f 666 667 687
f 666 687 686
f 667 668 688
f 667 688 687
f 668 649 669
f 668 669 688
f 649 651 650
f 669 670 671
f 649 652 651
f 669 671 672
f 649 653 652
f 669 672 673
f 649 654 653
f 669 673 674
f 649 655 654
f 669 674 675
f 649 656 655
f 669 675 676
f 649 657 656
f 669 676 677
f 649 658 657
f 669 677 678
f 649 659 658
f 669 678 679
f 649 660 659
f 669 679 680
f 649 661 660
f 669 680 681
f 649 662 661
f 669 681 682
f 649 663 662
f 669 682 683
f 649 664 663
f 669 683 684
f 649 665 664
f 669 684 685
f 649 666 665
f 669 685 686
f 649 667 666
f 669 686 687
f 649 668 667
f 669 687 688
o XT30_Terminal_2.3
usemtl metal
v 101.400000 3.650000 0.000000
v 101.400000 3.583926 0.417173
v 101.400000 3.392173 0.793510
v 101.400000 3.093510 1.092173
v 101.400000 2.717173 1.283926
v 101.400000 2.300000 1.350000
v 101.400000 1.882827 1.283926
v 101.400000 1.506490 1.092173
v 101.400000 1.207827 0.793510
v 101.400000 1.016074 0.417173
v 101.400000 0.950000 0.000000
v 101.400000 1.016074 -0.417173
v 101.400000 1.207827 -0.793510
v 101.400000 1.506490 -1.092173
v 101.400000 1.882827 -1.283926
v 101.400000 2.300000 -1.350000
v 101.400000 2.717173 -1.283926
v 101.400000 3.093510 -1.092173
v 101.400000 3.392173 -0.793510
v 101.400000 3.583926 -0.417173
v 102.600000 3.650000 0.000000
v 102.600000 3.583926 0.417173
v 102.600000 3.392173 0.793510
v 102.600000 3.093510 1.092173
v 102.600000 2.717173 1.283926
v 102.600000 2.300000 1.350000
v 102.600000 1.882827 1.283926
v 102.600000 1.506490 1.092173
v 102.600000 1.207827 0.793510
v 102.600000 1.016074 0.417173
v 102.600000 0.950000 0.000000
v 102.600000 1.016074 -0.417173
v 102.600000 1.207827 -0.793510
v 102.600000 1.506490 -1.092173
v 102.600000 1.882827 -1.283926
v 102.600000 2.300000 -1.350000
v 102.600000 2.717173 -1.283926
v 102.600000 3.093510 -1.092173
v 102.600000 3.392173 -0.793510
v 102.600000 3.583926 -0.417173
f 689 690 710
f 689 710 709
f 690 691 711
f 690 711 710
f 691 692 712
f 691 712 711
f 692 693 713
f 692 713 712
f 693 694 714
f 693 714 713
f 694 695 715
f 694 715 714
f 695 696 716
f 695 716 715
f 696 697 717
f 696 717 716
f 697 698 718
f 697 718 717
f 698 699 719
f 698 719 718
f 699 700 720
f 699 720 719
f 700 701 721
f 700 721 720
f 701 702 722
f 701 722 721
f 702 703 723
f 702 723 722
f 703 704 724
f 703 724 723
f 704 705 725
f 704 725 724
f 705 706 726
f 705 726 725
f 706 707 727
f 706 727 726
f 707 708 728
f 707 728 727
f 708 689 709
f 708 709 728
f 689 691 690
f 709 710 711
f 689 692 691
f 709 711 712
f 689 693 692
f 709 712 713
f 689 694 693
f 709 713 714
f 689 695 694
f 709 714 715
f 689 696 695
f 709 715 716
f 689 697 696
f 709 716 717
f 689 698 697
f 709 717 718
f 689 699 698
f 709 718 719
f 689 700 699
f 709 719 720
f 689 701 700
f 709 720 721
f 689 702 701
f 709 721 722
f 689 703 702
f 709 722 723
f 689 704 703
f 709 723 724
f 689 705 704
f 709 724 725
f 689 706 705
f 709 725 726
f 689 707 706
f 709 726 727
f 689 708 707
f 709 727 728
